G04 #@! TF.GenerationSoftware,KiCad,Pcbnew,(5.1.5)-3*
G04 #@! TF.CreationDate,2020-11-27T19:53:37+01:00*
G04 #@! TF.ProjectId,nRF52832-toyboard,6e524635-3238-4333-922d-746f79626f61,rev?*
G04 #@! TF.SameCoordinates,Original*
G04 #@! TF.FileFunction,Copper,L4,Bot*
G04 #@! TF.FilePolarity,Positive*
%FSLAX46Y46*%
G04 Gerber Fmt 4.6, Leading zero omitted, Abs format (unit mm)*
G04 Created by KiCad (PCBNEW (5.1.5)-3) date 2020-11-27 19:53:37*
%MOMM*%
%LPD*%
G04 APERTURE LIST*
%ADD10O,1.700000X1.700000*%
%ADD11R,1.700000X1.700000*%
%ADD12R,0.500000X0.900000*%
%ADD13C,0.600000*%
%ADD14C,0.400000*%
%ADD15C,0.200000*%
%ADD16C,0.254000*%
G04 APERTURE END LIST*
D10*
X154000000Y-98760000D03*
X154000000Y-101300000D03*
X154000000Y-103840000D03*
X154000000Y-106380000D03*
X154000000Y-108920000D03*
X154000000Y-111460000D03*
D11*
X154000000Y-114000000D03*
D10*
X154000000Y-86000000D03*
X151460000Y-86000000D03*
X148920000Y-86000000D03*
X146380000Y-86000000D03*
X143840000Y-86000000D03*
X141300000Y-86000000D03*
X138760000Y-86000000D03*
D11*
X136220000Y-86000000D03*
D12*
X130000000Y-106750000D03*
D13*
X133500000Y-114500000D03*
X133500000Y-109500000D03*
X133500000Y-85500000D03*
X133500000Y-88000000D03*
X130500000Y-93500000D03*
X130500000Y-97000000D03*
X130500000Y-99000000D03*
X130500000Y-101000000D03*
X130500000Y-103000000D03*
X154500000Y-91000000D03*
X154500000Y-92000000D03*
X149500000Y-91000000D03*
X149500000Y-92000000D03*
X130500000Y-95000000D03*
X150500000Y-110500000D03*
X151500000Y-111500000D03*
X151500000Y-112500000D03*
X150500000Y-109500000D03*
X136500000Y-108500000D03*
X136500000Y-109500000D03*
X143000000Y-111500000D03*
X143000000Y-112500000D03*
X151000000Y-104000000D03*
X151000000Y-96500000D03*
X148500000Y-106000000D03*
X145000000Y-91000000D03*
X145000000Y-92000000D03*
X145000000Y-93000000D03*
X145000000Y-94000000D03*
X148500000Y-101750000D03*
X134750000Y-111750000D03*
X140250000Y-114500000D03*
X146000000Y-105000000D03*
X133500000Y-105750000D03*
X134500000Y-106500000D03*
X135000000Y-104000000D03*
X136000000Y-105000000D03*
X134000000Y-103000000D03*
X132500000Y-103000000D03*
X131000000Y-106750000D03*
X133500000Y-112000000D03*
X136500000Y-107500000D03*
X132500000Y-106750000D03*
X139500000Y-88000000D03*
X138500000Y-88000000D03*
X135500000Y-95000000D03*
X134500000Y-95000000D03*
X146000000Y-106250000D03*
X146000000Y-107750000D03*
X142000000Y-105000000D03*
X142000000Y-106250000D03*
X143250000Y-106250000D03*
X144750000Y-106250000D03*
X144750000Y-105000000D03*
X143250000Y-105000000D03*
X146000000Y-109000000D03*
X142000000Y-109000000D03*
X142000000Y-107750000D03*
X143250000Y-107750000D03*
X144750000Y-107750000D03*
X144750000Y-109000000D03*
X143250000Y-109000000D03*
X142000000Y-114500000D03*
X149000000Y-114500000D03*
X151500000Y-114500000D03*
X154500000Y-96000000D03*
X154500000Y-94500000D03*
X135500000Y-107500000D03*
X144000000Y-88000000D03*
X143000000Y-88000000D03*
X137500000Y-103500000D03*
X145000000Y-95000000D03*
X145000000Y-96000000D03*
X148500000Y-94000000D03*
X153500000Y-94000000D03*
X141500000Y-112500000D03*
X148500000Y-113000000D03*
X149500000Y-113000000D03*
X147500000Y-101750000D03*
X140000000Y-89000000D03*
X139000000Y-89000000D03*
X138000000Y-89000000D03*
X138000000Y-90000000D03*
X143500000Y-89000000D03*
X144500000Y-89000000D03*
X142500000Y-89000000D03*
X154000000Y-89000000D03*
X153000000Y-89000000D03*
X148000000Y-89000000D03*
X149000000Y-89000000D03*
X151500000Y-106000000D03*
X148500000Y-100500000D03*
X147000000Y-99000000D03*
D14*
X150713998Y-106000000D02*
X151075736Y-106000000D01*
X142500000Y-97786002D02*
X150713998Y-106000000D01*
X151075736Y-106000000D02*
X151500000Y-106000000D01*
X142500000Y-89000000D02*
X142500000Y-97786002D01*
D15*
X148075736Y-100500000D02*
X148500000Y-100500000D01*
X147000000Y-99424264D02*
X148075736Y-100500000D01*
X147000000Y-99000000D02*
X147000000Y-99424264D01*
D16*
G36*
X134973595Y-84985804D02*
G01*
X134949178Y-85066293D01*
X134940934Y-85150000D01*
X134940934Y-86850000D01*
X134949178Y-86933707D01*
X134973595Y-87014196D01*
X135013245Y-87088376D01*
X135066605Y-87153395D01*
X135131624Y-87206755D01*
X135205804Y-87246405D01*
X135286293Y-87270822D01*
X135370000Y-87279066D01*
X137070000Y-87279066D01*
X137153707Y-87270822D01*
X137234196Y-87246405D01*
X137308376Y-87206755D01*
X137373395Y-87153395D01*
X137426755Y-87088376D01*
X137466405Y-87014196D01*
X137490822Y-86933707D01*
X137499066Y-86850000D01*
X137499066Y-86551438D01*
X137625705Y-86780713D01*
X137799810Y-86987002D01*
X138010814Y-87155361D01*
X138250609Y-87279320D01*
X138472791Y-87346715D01*
X138687000Y-87243108D01*
X138687000Y-86073000D01*
X138667000Y-86073000D01*
X138667000Y-85927000D01*
X138687000Y-85927000D01*
X138687000Y-85907000D01*
X138833000Y-85907000D01*
X138833000Y-85927000D01*
X138853000Y-85927000D01*
X138853000Y-86073000D01*
X138833000Y-86073000D01*
X138833000Y-87243108D01*
X139047209Y-87346715D01*
X139269391Y-87279320D01*
X139509186Y-87155361D01*
X139720190Y-86987002D01*
X139894295Y-86780713D01*
X140024809Y-86544422D01*
X140076307Y-86382706D01*
X140168337Y-86604886D01*
X140308089Y-86814040D01*
X140485960Y-86991911D01*
X140695114Y-87131663D01*
X140927513Y-87227926D01*
X141174226Y-87277000D01*
X141425774Y-87277000D01*
X141672487Y-87227926D01*
X141904886Y-87131663D01*
X142114040Y-86991911D01*
X142291911Y-86814040D01*
X142431663Y-86604886D01*
X142523693Y-86382706D01*
X142575191Y-86544422D01*
X142705705Y-86780713D01*
X142879810Y-86987002D01*
X143090814Y-87155361D01*
X143330609Y-87279320D01*
X143552791Y-87346715D01*
X143767000Y-87243108D01*
X143767000Y-86073000D01*
X143747000Y-86073000D01*
X143747000Y-85927000D01*
X143767000Y-85927000D01*
X143767000Y-85907000D01*
X143913000Y-85907000D01*
X143913000Y-85927000D01*
X143933000Y-85927000D01*
X143933000Y-86073000D01*
X143913000Y-86073000D01*
X143913000Y-87243108D01*
X144127209Y-87346715D01*
X144349391Y-87279320D01*
X144589186Y-87155361D01*
X144800190Y-86987002D01*
X144974295Y-86780713D01*
X145104809Y-86544422D01*
X145156307Y-86382706D01*
X145248337Y-86604886D01*
X145388089Y-86814040D01*
X145565960Y-86991911D01*
X145775114Y-87131663D01*
X146007513Y-87227926D01*
X146254226Y-87277000D01*
X146505774Y-87277000D01*
X146752487Y-87227926D01*
X146984886Y-87131663D01*
X147194040Y-86991911D01*
X147371911Y-86814040D01*
X147511663Y-86604886D01*
X147607926Y-86372487D01*
X147650000Y-86160966D01*
X147692074Y-86372487D01*
X147788337Y-86604886D01*
X147928089Y-86814040D01*
X148105960Y-86991911D01*
X148315114Y-87131663D01*
X148547513Y-87227926D01*
X148794226Y-87277000D01*
X149045774Y-87277000D01*
X149292487Y-87227926D01*
X149524886Y-87131663D01*
X149734040Y-86991911D01*
X149911911Y-86814040D01*
X150051663Y-86604886D01*
X150147926Y-86372487D01*
X150190000Y-86160966D01*
X150232074Y-86372487D01*
X150328337Y-86604886D01*
X150468089Y-86814040D01*
X150645960Y-86991911D01*
X150855114Y-87131663D01*
X151087513Y-87227926D01*
X151334226Y-87277000D01*
X151585774Y-87277000D01*
X151832487Y-87227926D01*
X152064886Y-87131663D01*
X152274040Y-86991911D01*
X152451911Y-86814040D01*
X152591663Y-86604886D01*
X152687926Y-86372487D01*
X152730000Y-86160966D01*
X152772074Y-86372487D01*
X152868337Y-86604886D01*
X153008089Y-86814040D01*
X153185960Y-86991911D01*
X153395114Y-87131663D01*
X153627513Y-87227926D01*
X153874226Y-87277000D01*
X154125774Y-87277000D01*
X154372487Y-87227926D01*
X154604886Y-87131663D01*
X154814040Y-86991911D01*
X154991911Y-86814040D01*
X155048001Y-86730095D01*
X155048001Y-98029904D01*
X154991911Y-97945960D01*
X154814040Y-97768089D01*
X154604886Y-97628337D01*
X154372487Y-97532074D01*
X154125774Y-97483000D01*
X153874226Y-97483000D01*
X153627513Y-97532074D01*
X153395114Y-97628337D01*
X153185960Y-97768089D01*
X153008089Y-97945960D01*
X152868337Y-98155114D01*
X152772074Y-98387513D01*
X152723000Y-98634226D01*
X152723000Y-98885774D01*
X152772074Y-99132487D01*
X152868337Y-99364886D01*
X153008089Y-99574040D01*
X153185960Y-99751911D01*
X153395114Y-99891663D01*
X153627513Y-99987926D01*
X153839034Y-100030000D01*
X153627513Y-100072074D01*
X153395114Y-100168337D01*
X153185960Y-100308089D01*
X153008089Y-100485960D01*
X152868337Y-100695114D01*
X152772074Y-100927513D01*
X152723000Y-101174226D01*
X152723000Y-101425774D01*
X152772074Y-101672487D01*
X152868337Y-101904886D01*
X153008089Y-102114040D01*
X153185960Y-102291911D01*
X153395114Y-102431663D01*
X153627513Y-102527926D01*
X153839034Y-102570000D01*
X153627513Y-102612074D01*
X153395114Y-102708337D01*
X153185960Y-102848089D01*
X153008089Y-103025960D01*
X152868337Y-103235114D01*
X152772074Y-103467513D01*
X152723000Y-103714226D01*
X152723000Y-103965774D01*
X152772074Y-104212487D01*
X152868337Y-104444886D01*
X153008089Y-104654040D01*
X153185960Y-104831911D01*
X153395114Y-104971663D01*
X153617294Y-105063693D01*
X153455578Y-105115191D01*
X153219287Y-105245705D01*
X153012998Y-105419810D01*
X152844639Y-105630814D01*
X152720680Y-105870609D01*
X152653285Y-106092791D01*
X152756892Y-106307000D01*
X153927000Y-106307000D01*
X153927000Y-106287000D01*
X154073000Y-106287000D01*
X154073000Y-106307000D01*
X154093000Y-106307000D01*
X154093000Y-106453000D01*
X154073000Y-106453000D01*
X154073000Y-106473000D01*
X153927000Y-106473000D01*
X153927000Y-106453000D01*
X152756892Y-106453000D01*
X152653285Y-106667209D01*
X152720680Y-106889391D01*
X152844639Y-107129186D01*
X153012998Y-107340190D01*
X153219287Y-107514295D01*
X153455578Y-107644809D01*
X153617294Y-107696307D01*
X153395114Y-107788337D01*
X153185960Y-107928089D01*
X153008089Y-108105960D01*
X152868337Y-108315114D01*
X152772074Y-108547513D01*
X152723000Y-108794226D01*
X152723000Y-109045774D01*
X152772074Y-109292487D01*
X152868337Y-109524886D01*
X153008089Y-109734040D01*
X153185960Y-109911911D01*
X153395114Y-110051663D01*
X153627513Y-110147926D01*
X153839034Y-110190000D01*
X153627513Y-110232074D01*
X153395114Y-110328337D01*
X153185960Y-110468089D01*
X153008089Y-110645960D01*
X152868337Y-110855114D01*
X152772074Y-111087513D01*
X152723000Y-111334226D01*
X152723000Y-111585774D01*
X152772074Y-111832487D01*
X152868337Y-112064886D01*
X153008089Y-112274040D01*
X153185960Y-112451911D01*
X153395114Y-112591663D01*
X153627513Y-112687926D01*
X153793456Y-112720934D01*
X153150000Y-112720934D01*
X153066293Y-112729178D01*
X152985804Y-112753595D01*
X152911624Y-112793245D01*
X152846605Y-112846605D01*
X152793245Y-112911624D01*
X152753595Y-112985804D01*
X152729178Y-113066293D01*
X152720934Y-113150000D01*
X152720934Y-114850000D01*
X152729178Y-114933707D01*
X152753595Y-115014196D01*
X152771664Y-115048000D01*
X133022106Y-115048000D01*
X132991098Y-115044960D01*
X132982535Y-115042374D01*
X132974638Y-115038176D01*
X132967703Y-115032519D01*
X132962004Y-115025630D01*
X132957748Y-115017760D01*
X132955103Y-115009216D01*
X132952000Y-114979689D01*
X132952000Y-112428397D01*
X140773000Y-112428397D01*
X140773000Y-112571603D01*
X140800938Y-112712058D01*
X140855741Y-112844364D01*
X140935302Y-112963436D01*
X141036564Y-113064698D01*
X141155636Y-113144259D01*
X141287942Y-113199062D01*
X141428397Y-113227000D01*
X141571603Y-113227000D01*
X141712058Y-113199062D01*
X141844364Y-113144259D01*
X141963436Y-113064698D01*
X142064698Y-112963436D01*
X142088110Y-112928397D01*
X147773000Y-112928397D01*
X147773000Y-113071603D01*
X147800938Y-113212058D01*
X147855741Y-113344364D01*
X147935302Y-113463436D01*
X148036564Y-113564698D01*
X148155636Y-113644259D01*
X148287942Y-113699062D01*
X148428397Y-113727000D01*
X148571603Y-113727000D01*
X148712058Y-113699062D01*
X148844364Y-113644259D01*
X148963436Y-113564698D01*
X149000000Y-113528134D01*
X149036564Y-113564698D01*
X149155636Y-113644259D01*
X149287942Y-113699062D01*
X149428397Y-113727000D01*
X149571603Y-113727000D01*
X149712058Y-113699062D01*
X149844364Y-113644259D01*
X149963436Y-113564698D01*
X150064698Y-113463436D01*
X150144259Y-113344364D01*
X150199062Y-113212058D01*
X150227000Y-113071603D01*
X150227000Y-112928397D01*
X150199062Y-112787942D01*
X150144259Y-112655636D01*
X150064698Y-112536564D01*
X149963436Y-112435302D01*
X149844364Y-112355741D01*
X149712058Y-112300938D01*
X149571603Y-112273000D01*
X149428397Y-112273000D01*
X149287942Y-112300938D01*
X149155636Y-112355741D01*
X149036564Y-112435302D01*
X149000000Y-112471866D01*
X148963436Y-112435302D01*
X148844364Y-112355741D01*
X148712058Y-112300938D01*
X148571603Y-112273000D01*
X148428397Y-112273000D01*
X148287942Y-112300938D01*
X148155636Y-112355741D01*
X148036564Y-112435302D01*
X147935302Y-112536564D01*
X147855741Y-112655636D01*
X147800938Y-112787942D01*
X147773000Y-112928397D01*
X142088110Y-112928397D01*
X142144259Y-112844364D01*
X142199062Y-112712058D01*
X142227000Y-112571603D01*
X142227000Y-112428397D01*
X142199062Y-112287942D01*
X142144259Y-112155636D01*
X142064698Y-112036564D01*
X141963436Y-111935302D01*
X141844364Y-111855741D01*
X141712058Y-111800938D01*
X141571603Y-111773000D01*
X141428397Y-111773000D01*
X141287942Y-111800938D01*
X141155636Y-111855741D01*
X141036564Y-111935302D01*
X140935302Y-112036564D01*
X140855741Y-112155636D01*
X140800938Y-112287942D01*
X140773000Y-112428397D01*
X132952000Y-112428397D01*
X132952000Y-107977795D01*
X132950107Y-107958573D01*
X132950128Y-107955544D01*
X132949512Y-107949263D01*
X132939312Y-107852215D01*
X132931077Y-107812097D01*
X132923398Y-107771843D01*
X132921574Y-107765801D01*
X132892718Y-107672582D01*
X132876831Y-107634789D01*
X132861495Y-107596830D01*
X132858532Y-107591257D01*
X132812119Y-107505420D01*
X132789212Y-107471458D01*
X132766779Y-107437178D01*
X132762798Y-107432298D01*
X132762790Y-107432286D01*
X132762781Y-107432277D01*
X132700588Y-107357099D01*
X132671526Y-107328238D01*
X132642860Y-107298965D01*
X132637997Y-107294942D01*
X132637994Y-107294939D01*
X132637990Y-107294937D01*
X132562376Y-107233266D01*
X132528240Y-107210586D01*
X132494446Y-107187447D01*
X132488895Y-107184445D01*
X132402734Y-107138634D01*
X132364896Y-107123038D01*
X132327208Y-107106885D01*
X132321179Y-107105019D01*
X132227761Y-107076814D01*
X132187566Y-107068855D01*
X132147500Y-107060339D01*
X132141229Y-107059680D01*
X132141226Y-107059679D01*
X132141223Y-107059679D01*
X132044106Y-107050157D01*
X132044105Y-107050157D01*
X132022205Y-107048000D01*
X130127000Y-107048000D01*
X130127000Y-103428397D01*
X136773000Y-103428397D01*
X136773000Y-103571603D01*
X136800938Y-103712058D01*
X136855741Y-103844364D01*
X136935302Y-103963436D01*
X137036564Y-104064698D01*
X137155636Y-104144259D01*
X137287942Y-104199062D01*
X137428397Y-104227000D01*
X137571603Y-104227000D01*
X137712058Y-104199062D01*
X137844364Y-104144259D01*
X137963436Y-104064698D01*
X138064698Y-103963436D01*
X138144259Y-103844364D01*
X138199062Y-103712058D01*
X138227000Y-103571603D01*
X138227000Y-103428397D01*
X138199062Y-103287942D01*
X138144259Y-103155636D01*
X138064698Y-103036564D01*
X137963436Y-102935302D01*
X137844364Y-102855741D01*
X137712058Y-102800938D01*
X137571603Y-102773000D01*
X137428397Y-102773000D01*
X137287942Y-102800938D01*
X137155636Y-102855741D01*
X137036564Y-102935302D01*
X136935302Y-103036564D01*
X136855741Y-103155636D01*
X136800938Y-103287942D01*
X136773000Y-103428397D01*
X130127000Y-103428397D01*
X130127000Y-92952000D01*
X132022205Y-92952000D01*
X132041427Y-92950107D01*
X132044456Y-92950128D01*
X132050737Y-92949512D01*
X132147786Y-92939312D01*
X132187917Y-92931074D01*
X132228157Y-92923398D01*
X132234199Y-92921574D01*
X132327418Y-92892718D01*
X132365211Y-92876831D01*
X132403170Y-92861495D01*
X132408732Y-92858538D01*
X132408740Y-92858534D01*
X132408747Y-92858529D01*
X132494580Y-92812119D01*
X132528526Y-92789222D01*
X132562822Y-92766779D01*
X132567707Y-92762794D01*
X132567713Y-92762790D01*
X132567718Y-92762785D01*
X132642901Y-92700589D01*
X132671781Y-92671507D01*
X132701035Y-92642860D01*
X132705058Y-92637997D01*
X132705061Y-92637994D01*
X132705063Y-92637990D01*
X132766734Y-92562376D01*
X132789412Y-92528243D01*
X132812553Y-92494447D01*
X132815545Y-92488911D01*
X132815552Y-92488901D01*
X132815556Y-92488891D01*
X132861366Y-92402734D01*
X132876962Y-92364896D01*
X132893115Y-92327208D01*
X132894981Y-92321179D01*
X132923186Y-92227761D01*
X132931148Y-92187552D01*
X132939661Y-92147499D01*
X132940321Y-92141223D01*
X132949843Y-92044105D01*
X132952000Y-92022205D01*
X132952000Y-88928397D01*
X137273000Y-88928397D01*
X137273000Y-89071603D01*
X137300938Y-89212058D01*
X137355741Y-89344364D01*
X137435302Y-89463436D01*
X137471866Y-89500000D01*
X137435302Y-89536564D01*
X137355741Y-89655636D01*
X137300938Y-89787942D01*
X137273000Y-89928397D01*
X137273000Y-90071603D01*
X137300938Y-90212058D01*
X137355741Y-90344364D01*
X137435302Y-90463436D01*
X137536564Y-90564698D01*
X137655636Y-90644259D01*
X137787942Y-90699062D01*
X137928397Y-90727000D01*
X138071603Y-90727000D01*
X138212058Y-90699062D01*
X138344364Y-90644259D01*
X138463436Y-90564698D01*
X138564698Y-90463436D01*
X138644259Y-90344364D01*
X138699062Y-90212058D01*
X138727000Y-90071603D01*
X138727000Y-89928397D01*
X138699062Y-89787942D01*
X138644259Y-89655636D01*
X138621350Y-89621350D01*
X138655636Y-89644259D01*
X138787942Y-89699062D01*
X138928397Y-89727000D01*
X139071603Y-89727000D01*
X139212058Y-89699062D01*
X139344364Y-89644259D01*
X139463436Y-89564698D01*
X139500000Y-89528134D01*
X139536564Y-89564698D01*
X139655636Y-89644259D01*
X139787942Y-89699062D01*
X139928397Y-89727000D01*
X140071603Y-89727000D01*
X140212058Y-89699062D01*
X140344364Y-89644259D01*
X140463436Y-89564698D01*
X140564698Y-89463436D01*
X140644259Y-89344364D01*
X140699062Y-89212058D01*
X140727000Y-89071603D01*
X140727000Y-88928397D01*
X141773000Y-88928397D01*
X141773000Y-89071603D01*
X141800938Y-89212058D01*
X141855741Y-89344364D01*
X141873000Y-89370194D01*
X141873001Y-97755198D01*
X141869967Y-97786002D01*
X141882073Y-97908914D01*
X141893311Y-97945960D01*
X141917926Y-98027105D01*
X141976148Y-98136030D01*
X142054500Y-98231503D01*
X142078423Y-98251136D01*
X150248864Y-106421578D01*
X150268497Y-106445501D01*
X150363970Y-106523853D01*
X150472895Y-106582075D01*
X150591085Y-106617927D01*
X150683204Y-106627000D01*
X150683205Y-106627000D01*
X150713997Y-106630033D01*
X150744789Y-106627000D01*
X151129806Y-106627000D01*
X151155636Y-106644259D01*
X151287942Y-106699062D01*
X151428397Y-106727000D01*
X151571603Y-106727000D01*
X151712058Y-106699062D01*
X151844364Y-106644259D01*
X151963436Y-106564698D01*
X152064698Y-106463436D01*
X152144259Y-106344364D01*
X152199062Y-106212058D01*
X152227000Y-106071603D01*
X152227000Y-105928397D01*
X152199062Y-105787942D01*
X152144259Y-105655636D01*
X152064698Y-105536564D01*
X151963436Y-105435302D01*
X151844364Y-105355741D01*
X151712058Y-105300938D01*
X151571603Y-105273000D01*
X151428397Y-105273000D01*
X151287942Y-105300938D01*
X151155636Y-105355741D01*
X151129806Y-105373000D01*
X150973710Y-105373000D01*
X147934645Y-102333935D01*
X147963436Y-102314698D01*
X148064698Y-102213436D01*
X148144259Y-102094364D01*
X148199062Y-101962058D01*
X148227000Y-101821603D01*
X148227000Y-101678397D01*
X148199062Y-101537942D01*
X148144259Y-101405636D01*
X148064698Y-101286564D01*
X147963436Y-101185302D01*
X147844364Y-101105741D01*
X147712058Y-101050938D01*
X147571603Y-101023000D01*
X147428397Y-101023000D01*
X147287942Y-101050938D01*
X147155636Y-101105741D01*
X147036564Y-101185302D01*
X146935302Y-101286564D01*
X146916065Y-101315355D01*
X144529107Y-98928397D01*
X146273000Y-98928397D01*
X146273000Y-99071603D01*
X146300938Y-99212058D01*
X146355741Y-99344364D01*
X146435302Y-99463436D01*
X146478571Y-99506705D01*
X146480626Y-99527573D01*
X146510761Y-99626913D01*
X146510762Y-99626914D01*
X146559697Y-99718466D01*
X146625553Y-99798712D01*
X146645662Y-99815215D01*
X147684785Y-100854339D01*
X147701288Y-100874448D01*
X147781534Y-100940304D01*
X147873086Y-100989239D01*
X147972426Y-101019374D01*
X147993295Y-101021429D01*
X148036564Y-101064698D01*
X148155636Y-101144259D01*
X148287942Y-101199062D01*
X148428397Y-101227000D01*
X148571603Y-101227000D01*
X148712058Y-101199062D01*
X148844364Y-101144259D01*
X148963436Y-101064698D01*
X149064698Y-100963436D01*
X149144259Y-100844364D01*
X149199062Y-100712058D01*
X149227000Y-100571603D01*
X149227000Y-100428397D01*
X149199062Y-100287942D01*
X149144259Y-100155636D01*
X149064698Y-100036564D01*
X148963436Y-99935302D01*
X148844364Y-99855741D01*
X148712058Y-99800938D01*
X148571603Y-99773000D01*
X148428397Y-99773000D01*
X148287942Y-99800938D01*
X148170578Y-99849552D01*
X147650448Y-99329423D01*
X147699062Y-99212058D01*
X147727000Y-99071603D01*
X147727000Y-98928397D01*
X147699062Y-98787942D01*
X147644259Y-98655636D01*
X147564698Y-98536564D01*
X147463436Y-98435302D01*
X147344364Y-98355741D01*
X147212058Y-98300938D01*
X147071603Y-98273000D01*
X146928397Y-98273000D01*
X146787942Y-98300938D01*
X146655636Y-98355741D01*
X146536564Y-98435302D01*
X146435302Y-98536564D01*
X146355741Y-98655636D01*
X146300938Y-98787942D01*
X146273000Y-98928397D01*
X144529107Y-98928397D01*
X143127000Y-97526291D01*
X143127000Y-94928397D01*
X144273000Y-94928397D01*
X144273000Y-95071603D01*
X144300938Y-95212058D01*
X144355741Y-95344364D01*
X144435302Y-95463436D01*
X144471866Y-95500000D01*
X144435302Y-95536564D01*
X144355741Y-95655636D01*
X144300938Y-95787942D01*
X144273000Y-95928397D01*
X144273000Y-96071603D01*
X144300938Y-96212058D01*
X144355741Y-96344364D01*
X144435302Y-96463436D01*
X144536564Y-96564698D01*
X144655636Y-96644259D01*
X144787942Y-96699062D01*
X144928397Y-96727000D01*
X145071603Y-96727000D01*
X145212058Y-96699062D01*
X145344364Y-96644259D01*
X145463436Y-96564698D01*
X145564698Y-96463436D01*
X145644259Y-96344364D01*
X145699062Y-96212058D01*
X145727000Y-96071603D01*
X145727000Y-95928397D01*
X145699062Y-95787942D01*
X145644259Y-95655636D01*
X145564698Y-95536564D01*
X145528134Y-95500000D01*
X145564698Y-95463436D01*
X145644259Y-95344364D01*
X145699062Y-95212058D01*
X145727000Y-95071603D01*
X145727000Y-94928397D01*
X145699062Y-94787942D01*
X145644259Y-94655636D01*
X145564698Y-94536564D01*
X145463436Y-94435302D01*
X145344364Y-94355741D01*
X145212058Y-94300938D01*
X145071603Y-94273000D01*
X144928397Y-94273000D01*
X144787942Y-94300938D01*
X144655636Y-94355741D01*
X144536564Y-94435302D01*
X144435302Y-94536564D01*
X144355741Y-94655636D01*
X144300938Y-94787942D01*
X144273000Y-94928397D01*
X143127000Y-94928397D01*
X143127000Y-93928397D01*
X147773000Y-93928397D01*
X147773000Y-94071603D01*
X147800938Y-94212058D01*
X147855741Y-94344364D01*
X147935302Y-94463436D01*
X148036564Y-94564698D01*
X148155636Y-94644259D01*
X148287942Y-94699062D01*
X148428397Y-94727000D01*
X148571603Y-94727000D01*
X148712058Y-94699062D01*
X148844364Y-94644259D01*
X148963436Y-94564698D01*
X149064698Y-94463436D01*
X149144259Y-94344364D01*
X149199062Y-94212058D01*
X149227000Y-94071603D01*
X149227000Y-93928397D01*
X152773000Y-93928397D01*
X152773000Y-94071603D01*
X152800938Y-94212058D01*
X152855741Y-94344364D01*
X152935302Y-94463436D01*
X153036564Y-94564698D01*
X153155636Y-94644259D01*
X153287942Y-94699062D01*
X153428397Y-94727000D01*
X153571603Y-94727000D01*
X153712058Y-94699062D01*
X153844364Y-94644259D01*
X153963436Y-94564698D01*
X154064698Y-94463436D01*
X154144259Y-94344364D01*
X154199062Y-94212058D01*
X154227000Y-94071603D01*
X154227000Y-93928397D01*
X154199062Y-93787942D01*
X154144259Y-93655636D01*
X154064698Y-93536564D01*
X153963436Y-93435302D01*
X153844364Y-93355741D01*
X153712058Y-93300938D01*
X153571603Y-93273000D01*
X153428397Y-93273000D01*
X153287942Y-93300938D01*
X153155636Y-93355741D01*
X153036564Y-93435302D01*
X152935302Y-93536564D01*
X152855741Y-93655636D01*
X152800938Y-93787942D01*
X152773000Y-93928397D01*
X149227000Y-93928397D01*
X149199062Y-93787942D01*
X149144259Y-93655636D01*
X149064698Y-93536564D01*
X148963436Y-93435302D01*
X148844364Y-93355741D01*
X148712058Y-93300938D01*
X148571603Y-93273000D01*
X148428397Y-93273000D01*
X148287942Y-93300938D01*
X148155636Y-93355741D01*
X148036564Y-93435302D01*
X147935302Y-93536564D01*
X147855741Y-93655636D01*
X147800938Y-93787942D01*
X147773000Y-93928397D01*
X143127000Y-93928397D01*
X143127000Y-89625125D01*
X143155636Y-89644259D01*
X143287942Y-89699062D01*
X143428397Y-89727000D01*
X143571603Y-89727000D01*
X143712058Y-89699062D01*
X143844364Y-89644259D01*
X143963436Y-89564698D01*
X144000000Y-89528134D01*
X144036564Y-89564698D01*
X144155636Y-89644259D01*
X144287942Y-89699062D01*
X144428397Y-89727000D01*
X144571603Y-89727000D01*
X144712058Y-89699062D01*
X144844364Y-89644259D01*
X144963436Y-89564698D01*
X145064698Y-89463436D01*
X145144259Y-89344364D01*
X145199062Y-89212058D01*
X145227000Y-89071603D01*
X145227000Y-88928397D01*
X147273000Y-88928397D01*
X147273000Y-89071603D01*
X147300938Y-89212058D01*
X147355741Y-89344364D01*
X147435302Y-89463436D01*
X147536564Y-89564698D01*
X147655636Y-89644259D01*
X147787942Y-89699062D01*
X147928397Y-89727000D01*
X148071603Y-89727000D01*
X148212058Y-89699062D01*
X148344364Y-89644259D01*
X148463436Y-89564698D01*
X148500000Y-89528134D01*
X148536564Y-89564698D01*
X148655636Y-89644259D01*
X148787942Y-89699062D01*
X148928397Y-89727000D01*
X149071603Y-89727000D01*
X149212058Y-89699062D01*
X149344364Y-89644259D01*
X149463436Y-89564698D01*
X149564698Y-89463436D01*
X149644259Y-89344364D01*
X149699062Y-89212058D01*
X149727000Y-89071603D01*
X149727000Y-88928397D01*
X152273000Y-88928397D01*
X152273000Y-89071603D01*
X152300938Y-89212058D01*
X152355741Y-89344364D01*
X152435302Y-89463436D01*
X152536564Y-89564698D01*
X152655636Y-89644259D01*
X152787942Y-89699062D01*
X152928397Y-89727000D01*
X153071603Y-89727000D01*
X153212058Y-89699062D01*
X153344364Y-89644259D01*
X153463436Y-89564698D01*
X153500000Y-89528134D01*
X153536564Y-89564698D01*
X153655636Y-89644259D01*
X153787942Y-89699062D01*
X153928397Y-89727000D01*
X154071603Y-89727000D01*
X154212058Y-89699062D01*
X154344364Y-89644259D01*
X154463436Y-89564698D01*
X154564698Y-89463436D01*
X154644259Y-89344364D01*
X154699062Y-89212058D01*
X154727000Y-89071603D01*
X154727000Y-88928397D01*
X154699062Y-88787942D01*
X154644259Y-88655636D01*
X154564698Y-88536564D01*
X154463436Y-88435302D01*
X154344364Y-88355741D01*
X154212058Y-88300938D01*
X154071603Y-88273000D01*
X153928397Y-88273000D01*
X153787942Y-88300938D01*
X153655636Y-88355741D01*
X153536564Y-88435302D01*
X153500000Y-88471866D01*
X153463436Y-88435302D01*
X153344364Y-88355741D01*
X153212058Y-88300938D01*
X153071603Y-88273000D01*
X152928397Y-88273000D01*
X152787942Y-88300938D01*
X152655636Y-88355741D01*
X152536564Y-88435302D01*
X152435302Y-88536564D01*
X152355741Y-88655636D01*
X152300938Y-88787942D01*
X152273000Y-88928397D01*
X149727000Y-88928397D01*
X149699062Y-88787942D01*
X149644259Y-88655636D01*
X149564698Y-88536564D01*
X149463436Y-88435302D01*
X149344364Y-88355741D01*
X149212058Y-88300938D01*
X149071603Y-88273000D01*
X148928397Y-88273000D01*
X148787942Y-88300938D01*
X148655636Y-88355741D01*
X148536564Y-88435302D01*
X148500000Y-88471866D01*
X148463436Y-88435302D01*
X148344364Y-88355741D01*
X148212058Y-88300938D01*
X148071603Y-88273000D01*
X147928397Y-88273000D01*
X147787942Y-88300938D01*
X147655636Y-88355741D01*
X147536564Y-88435302D01*
X147435302Y-88536564D01*
X147355741Y-88655636D01*
X147300938Y-88787942D01*
X147273000Y-88928397D01*
X145227000Y-88928397D01*
X145199062Y-88787942D01*
X145144259Y-88655636D01*
X145064698Y-88536564D01*
X144963436Y-88435302D01*
X144844364Y-88355741D01*
X144712058Y-88300938D01*
X144571603Y-88273000D01*
X144428397Y-88273000D01*
X144287942Y-88300938D01*
X144155636Y-88355741D01*
X144036564Y-88435302D01*
X144000000Y-88471866D01*
X143963436Y-88435302D01*
X143844364Y-88355741D01*
X143712058Y-88300938D01*
X143571603Y-88273000D01*
X143428397Y-88273000D01*
X143287942Y-88300938D01*
X143155636Y-88355741D01*
X143036564Y-88435302D01*
X143000000Y-88471866D01*
X142963436Y-88435302D01*
X142844364Y-88355741D01*
X142712058Y-88300938D01*
X142571603Y-88273000D01*
X142428397Y-88273000D01*
X142287942Y-88300938D01*
X142155636Y-88355741D01*
X142036564Y-88435302D01*
X141935302Y-88536564D01*
X141855741Y-88655636D01*
X141800938Y-88787942D01*
X141773000Y-88928397D01*
X140727000Y-88928397D01*
X140699062Y-88787942D01*
X140644259Y-88655636D01*
X140564698Y-88536564D01*
X140463436Y-88435302D01*
X140344364Y-88355741D01*
X140212058Y-88300938D01*
X140071603Y-88273000D01*
X139928397Y-88273000D01*
X139787942Y-88300938D01*
X139655636Y-88355741D01*
X139536564Y-88435302D01*
X139500000Y-88471866D01*
X139463436Y-88435302D01*
X139344364Y-88355741D01*
X139212058Y-88300938D01*
X139071603Y-88273000D01*
X138928397Y-88273000D01*
X138787942Y-88300938D01*
X138655636Y-88355741D01*
X138536564Y-88435302D01*
X138500000Y-88471866D01*
X138463436Y-88435302D01*
X138344364Y-88355741D01*
X138212058Y-88300938D01*
X138071603Y-88273000D01*
X137928397Y-88273000D01*
X137787942Y-88300938D01*
X137655636Y-88355741D01*
X137536564Y-88435302D01*
X137435302Y-88536564D01*
X137355741Y-88655636D01*
X137300938Y-88787942D01*
X137273000Y-88928397D01*
X132952000Y-88928397D01*
X132952000Y-85022106D01*
X132955040Y-84991098D01*
X132957626Y-84982532D01*
X132961823Y-84974640D01*
X132967480Y-84967704D01*
X132974373Y-84962002D01*
X132982239Y-84957749D01*
X132990784Y-84955103D01*
X133020312Y-84952000D01*
X134991664Y-84952000D01*
X134973595Y-84985804D01*
G37*
X134973595Y-84985804D02*
X134949178Y-85066293D01*
X134940934Y-85150000D01*
X134940934Y-86850000D01*
X134949178Y-86933707D01*
X134973595Y-87014196D01*
X135013245Y-87088376D01*
X135066605Y-87153395D01*
X135131624Y-87206755D01*
X135205804Y-87246405D01*
X135286293Y-87270822D01*
X135370000Y-87279066D01*
X137070000Y-87279066D01*
X137153707Y-87270822D01*
X137234196Y-87246405D01*
X137308376Y-87206755D01*
X137373395Y-87153395D01*
X137426755Y-87088376D01*
X137466405Y-87014196D01*
X137490822Y-86933707D01*
X137499066Y-86850000D01*
X137499066Y-86551438D01*
X137625705Y-86780713D01*
X137799810Y-86987002D01*
X138010814Y-87155361D01*
X138250609Y-87279320D01*
X138472791Y-87346715D01*
X138687000Y-87243108D01*
X138687000Y-86073000D01*
X138667000Y-86073000D01*
X138667000Y-85927000D01*
X138687000Y-85927000D01*
X138687000Y-85907000D01*
X138833000Y-85907000D01*
X138833000Y-85927000D01*
X138853000Y-85927000D01*
X138853000Y-86073000D01*
X138833000Y-86073000D01*
X138833000Y-87243108D01*
X139047209Y-87346715D01*
X139269391Y-87279320D01*
X139509186Y-87155361D01*
X139720190Y-86987002D01*
X139894295Y-86780713D01*
X140024809Y-86544422D01*
X140076307Y-86382706D01*
X140168337Y-86604886D01*
X140308089Y-86814040D01*
X140485960Y-86991911D01*
X140695114Y-87131663D01*
X140927513Y-87227926D01*
X141174226Y-87277000D01*
X141425774Y-87277000D01*
X141672487Y-87227926D01*
X141904886Y-87131663D01*
X142114040Y-86991911D01*
X142291911Y-86814040D01*
X142431663Y-86604886D01*
X142523693Y-86382706D01*
X142575191Y-86544422D01*
X142705705Y-86780713D01*
X142879810Y-86987002D01*
X143090814Y-87155361D01*
X143330609Y-87279320D01*
X143552791Y-87346715D01*
X143767000Y-87243108D01*
X143767000Y-86073000D01*
X143747000Y-86073000D01*
X143747000Y-85927000D01*
X143767000Y-85927000D01*
X143767000Y-85907000D01*
X143913000Y-85907000D01*
X143913000Y-85927000D01*
X143933000Y-85927000D01*
X143933000Y-86073000D01*
X143913000Y-86073000D01*
X143913000Y-87243108D01*
X144127209Y-87346715D01*
X144349391Y-87279320D01*
X144589186Y-87155361D01*
X144800190Y-86987002D01*
X144974295Y-86780713D01*
X145104809Y-86544422D01*
X145156307Y-86382706D01*
X145248337Y-86604886D01*
X145388089Y-86814040D01*
X145565960Y-86991911D01*
X145775114Y-87131663D01*
X146007513Y-87227926D01*
X146254226Y-87277000D01*
X146505774Y-87277000D01*
X146752487Y-87227926D01*
X146984886Y-87131663D01*
X147194040Y-86991911D01*
X147371911Y-86814040D01*
X147511663Y-86604886D01*
X147607926Y-86372487D01*
X147650000Y-86160966D01*
X147692074Y-86372487D01*
X147788337Y-86604886D01*
X147928089Y-86814040D01*
X148105960Y-86991911D01*
X148315114Y-87131663D01*
X148547513Y-87227926D01*
X148794226Y-87277000D01*
X149045774Y-87277000D01*
X149292487Y-87227926D01*
X149524886Y-87131663D01*
X149734040Y-86991911D01*
X149911911Y-86814040D01*
X150051663Y-86604886D01*
X150147926Y-86372487D01*
X150190000Y-86160966D01*
X150232074Y-86372487D01*
X150328337Y-86604886D01*
X150468089Y-86814040D01*
X150645960Y-86991911D01*
X150855114Y-87131663D01*
X151087513Y-87227926D01*
X151334226Y-87277000D01*
X151585774Y-87277000D01*
X151832487Y-87227926D01*
X152064886Y-87131663D01*
X152274040Y-86991911D01*
X152451911Y-86814040D01*
X152591663Y-86604886D01*
X152687926Y-86372487D01*
X152730000Y-86160966D01*
X152772074Y-86372487D01*
X152868337Y-86604886D01*
X153008089Y-86814040D01*
X153185960Y-86991911D01*
X153395114Y-87131663D01*
X153627513Y-87227926D01*
X153874226Y-87277000D01*
X154125774Y-87277000D01*
X154372487Y-87227926D01*
X154604886Y-87131663D01*
X154814040Y-86991911D01*
X154991911Y-86814040D01*
X155048001Y-86730095D01*
X155048001Y-98029904D01*
X154991911Y-97945960D01*
X154814040Y-97768089D01*
X154604886Y-97628337D01*
X154372487Y-97532074D01*
X154125774Y-97483000D01*
X153874226Y-97483000D01*
X153627513Y-97532074D01*
X153395114Y-97628337D01*
X153185960Y-97768089D01*
X153008089Y-97945960D01*
X152868337Y-98155114D01*
X152772074Y-98387513D01*
X152723000Y-98634226D01*
X152723000Y-98885774D01*
X152772074Y-99132487D01*
X152868337Y-99364886D01*
X153008089Y-99574040D01*
X153185960Y-99751911D01*
X153395114Y-99891663D01*
X153627513Y-99987926D01*
X153839034Y-100030000D01*
X153627513Y-100072074D01*
X153395114Y-100168337D01*
X153185960Y-100308089D01*
X153008089Y-100485960D01*
X152868337Y-100695114D01*
X152772074Y-100927513D01*
X152723000Y-101174226D01*
X152723000Y-101425774D01*
X152772074Y-101672487D01*
X152868337Y-101904886D01*
X153008089Y-102114040D01*
X153185960Y-102291911D01*
X153395114Y-102431663D01*
X153627513Y-102527926D01*
X153839034Y-102570000D01*
X153627513Y-102612074D01*
X153395114Y-102708337D01*
X153185960Y-102848089D01*
X153008089Y-103025960D01*
X152868337Y-103235114D01*
X152772074Y-103467513D01*
X152723000Y-103714226D01*
X152723000Y-103965774D01*
X152772074Y-104212487D01*
X152868337Y-104444886D01*
X153008089Y-104654040D01*
X153185960Y-104831911D01*
X153395114Y-104971663D01*
X153617294Y-105063693D01*
X153455578Y-105115191D01*
X153219287Y-105245705D01*
X153012998Y-105419810D01*
X152844639Y-105630814D01*
X152720680Y-105870609D01*
X152653285Y-106092791D01*
X152756892Y-106307000D01*
X153927000Y-106307000D01*
X153927000Y-106287000D01*
X154073000Y-106287000D01*
X154073000Y-106307000D01*
X154093000Y-106307000D01*
X154093000Y-106453000D01*
X154073000Y-106453000D01*
X154073000Y-106473000D01*
X153927000Y-106473000D01*
X153927000Y-106453000D01*
X152756892Y-106453000D01*
X152653285Y-106667209D01*
X152720680Y-106889391D01*
X152844639Y-107129186D01*
X153012998Y-107340190D01*
X153219287Y-107514295D01*
X153455578Y-107644809D01*
X153617294Y-107696307D01*
X153395114Y-107788337D01*
X153185960Y-107928089D01*
X153008089Y-108105960D01*
X152868337Y-108315114D01*
X152772074Y-108547513D01*
X152723000Y-108794226D01*
X152723000Y-109045774D01*
X152772074Y-109292487D01*
X152868337Y-109524886D01*
X153008089Y-109734040D01*
X153185960Y-109911911D01*
X153395114Y-110051663D01*
X153627513Y-110147926D01*
X153839034Y-110190000D01*
X153627513Y-110232074D01*
X153395114Y-110328337D01*
X153185960Y-110468089D01*
X153008089Y-110645960D01*
X152868337Y-110855114D01*
X152772074Y-111087513D01*
X152723000Y-111334226D01*
X152723000Y-111585774D01*
X152772074Y-111832487D01*
X152868337Y-112064886D01*
X153008089Y-112274040D01*
X153185960Y-112451911D01*
X153395114Y-112591663D01*
X153627513Y-112687926D01*
X153793456Y-112720934D01*
X153150000Y-112720934D01*
X153066293Y-112729178D01*
X152985804Y-112753595D01*
X152911624Y-112793245D01*
X152846605Y-112846605D01*
X152793245Y-112911624D01*
X152753595Y-112985804D01*
X152729178Y-113066293D01*
X152720934Y-113150000D01*
X152720934Y-114850000D01*
X152729178Y-114933707D01*
X152753595Y-115014196D01*
X152771664Y-115048000D01*
X133022106Y-115048000D01*
X132991098Y-115044960D01*
X132982535Y-115042374D01*
X132974638Y-115038176D01*
X132967703Y-115032519D01*
X132962004Y-115025630D01*
X132957748Y-115017760D01*
X132955103Y-115009216D01*
X132952000Y-114979689D01*
X132952000Y-112428397D01*
X140773000Y-112428397D01*
X140773000Y-112571603D01*
X140800938Y-112712058D01*
X140855741Y-112844364D01*
X140935302Y-112963436D01*
X141036564Y-113064698D01*
X141155636Y-113144259D01*
X141287942Y-113199062D01*
X141428397Y-113227000D01*
X141571603Y-113227000D01*
X141712058Y-113199062D01*
X141844364Y-113144259D01*
X141963436Y-113064698D01*
X142064698Y-112963436D01*
X142088110Y-112928397D01*
X147773000Y-112928397D01*
X147773000Y-113071603D01*
X147800938Y-113212058D01*
X147855741Y-113344364D01*
X147935302Y-113463436D01*
X148036564Y-113564698D01*
X148155636Y-113644259D01*
X148287942Y-113699062D01*
X148428397Y-113727000D01*
X148571603Y-113727000D01*
X148712058Y-113699062D01*
X148844364Y-113644259D01*
X148963436Y-113564698D01*
X149000000Y-113528134D01*
X149036564Y-113564698D01*
X149155636Y-113644259D01*
X149287942Y-113699062D01*
X149428397Y-113727000D01*
X149571603Y-113727000D01*
X149712058Y-113699062D01*
X149844364Y-113644259D01*
X149963436Y-113564698D01*
X150064698Y-113463436D01*
X150144259Y-113344364D01*
X150199062Y-113212058D01*
X150227000Y-113071603D01*
X150227000Y-112928397D01*
X150199062Y-112787942D01*
X150144259Y-112655636D01*
X150064698Y-112536564D01*
X149963436Y-112435302D01*
X149844364Y-112355741D01*
X149712058Y-112300938D01*
X149571603Y-112273000D01*
X149428397Y-112273000D01*
X149287942Y-112300938D01*
X149155636Y-112355741D01*
X149036564Y-112435302D01*
X149000000Y-112471866D01*
X148963436Y-112435302D01*
X148844364Y-112355741D01*
X148712058Y-112300938D01*
X148571603Y-112273000D01*
X148428397Y-112273000D01*
X148287942Y-112300938D01*
X148155636Y-112355741D01*
X148036564Y-112435302D01*
X147935302Y-112536564D01*
X147855741Y-112655636D01*
X147800938Y-112787942D01*
X147773000Y-112928397D01*
X142088110Y-112928397D01*
X142144259Y-112844364D01*
X142199062Y-112712058D01*
X142227000Y-112571603D01*
X142227000Y-112428397D01*
X142199062Y-112287942D01*
X142144259Y-112155636D01*
X142064698Y-112036564D01*
X141963436Y-111935302D01*
X141844364Y-111855741D01*
X141712058Y-111800938D01*
X141571603Y-111773000D01*
X141428397Y-111773000D01*
X141287942Y-111800938D01*
X141155636Y-111855741D01*
X141036564Y-111935302D01*
X140935302Y-112036564D01*
X140855741Y-112155636D01*
X140800938Y-112287942D01*
X140773000Y-112428397D01*
X132952000Y-112428397D01*
X132952000Y-107977795D01*
X132950107Y-107958573D01*
X132950128Y-107955544D01*
X132949512Y-107949263D01*
X132939312Y-107852215D01*
X132931077Y-107812097D01*
X132923398Y-107771843D01*
X132921574Y-107765801D01*
X132892718Y-107672582D01*
X132876831Y-107634789D01*
X132861495Y-107596830D01*
X132858532Y-107591257D01*
X132812119Y-107505420D01*
X132789212Y-107471458D01*
X132766779Y-107437178D01*
X132762798Y-107432298D01*
X132762790Y-107432286D01*
X132762781Y-107432277D01*
X132700588Y-107357099D01*
X132671526Y-107328238D01*
X132642860Y-107298965D01*
X132637997Y-107294942D01*
X132637994Y-107294939D01*
X132637990Y-107294937D01*
X132562376Y-107233266D01*
X132528240Y-107210586D01*
X132494446Y-107187447D01*
X132488895Y-107184445D01*
X132402734Y-107138634D01*
X132364896Y-107123038D01*
X132327208Y-107106885D01*
X132321179Y-107105019D01*
X132227761Y-107076814D01*
X132187566Y-107068855D01*
X132147500Y-107060339D01*
X132141229Y-107059680D01*
X132141226Y-107059679D01*
X132141223Y-107059679D01*
X132044106Y-107050157D01*
X132044105Y-107050157D01*
X132022205Y-107048000D01*
X130127000Y-107048000D01*
X130127000Y-103428397D01*
X136773000Y-103428397D01*
X136773000Y-103571603D01*
X136800938Y-103712058D01*
X136855741Y-103844364D01*
X136935302Y-103963436D01*
X137036564Y-104064698D01*
X137155636Y-104144259D01*
X137287942Y-104199062D01*
X137428397Y-104227000D01*
X137571603Y-104227000D01*
X137712058Y-104199062D01*
X137844364Y-104144259D01*
X137963436Y-104064698D01*
X138064698Y-103963436D01*
X138144259Y-103844364D01*
X138199062Y-103712058D01*
X138227000Y-103571603D01*
X138227000Y-103428397D01*
X138199062Y-103287942D01*
X138144259Y-103155636D01*
X138064698Y-103036564D01*
X137963436Y-102935302D01*
X137844364Y-102855741D01*
X137712058Y-102800938D01*
X137571603Y-102773000D01*
X137428397Y-102773000D01*
X137287942Y-102800938D01*
X137155636Y-102855741D01*
X137036564Y-102935302D01*
X136935302Y-103036564D01*
X136855741Y-103155636D01*
X136800938Y-103287942D01*
X136773000Y-103428397D01*
X130127000Y-103428397D01*
X130127000Y-92952000D01*
X132022205Y-92952000D01*
X132041427Y-92950107D01*
X132044456Y-92950128D01*
X132050737Y-92949512D01*
X132147786Y-92939312D01*
X132187917Y-92931074D01*
X132228157Y-92923398D01*
X132234199Y-92921574D01*
X132327418Y-92892718D01*
X132365211Y-92876831D01*
X132403170Y-92861495D01*
X132408732Y-92858538D01*
X132408740Y-92858534D01*
X132408747Y-92858529D01*
X132494580Y-92812119D01*
X132528526Y-92789222D01*
X132562822Y-92766779D01*
X132567707Y-92762794D01*
X132567713Y-92762790D01*
X132567718Y-92762785D01*
X132642901Y-92700589D01*
X132671781Y-92671507D01*
X132701035Y-92642860D01*
X132705058Y-92637997D01*
X132705061Y-92637994D01*
X132705063Y-92637990D01*
X132766734Y-92562376D01*
X132789412Y-92528243D01*
X132812553Y-92494447D01*
X132815545Y-92488911D01*
X132815552Y-92488901D01*
X132815556Y-92488891D01*
X132861366Y-92402734D01*
X132876962Y-92364896D01*
X132893115Y-92327208D01*
X132894981Y-92321179D01*
X132923186Y-92227761D01*
X132931148Y-92187552D01*
X132939661Y-92147499D01*
X132940321Y-92141223D01*
X132949843Y-92044105D01*
X132952000Y-92022205D01*
X132952000Y-88928397D01*
X137273000Y-88928397D01*
X137273000Y-89071603D01*
X137300938Y-89212058D01*
X137355741Y-89344364D01*
X137435302Y-89463436D01*
X137471866Y-89500000D01*
X137435302Y-89536564D01*
X137355741Y-89655636D01*
X137300938Y-89787942D01*
X137273000Y-89928397D01*
X137273000Y-90071603D01*
X137300938Y-90212058D01*
X137355741Y-90344364D01*
X137435302Y-90463436D01*
X137536564Y-90564698D01*
X137655636Y-90644259D01*
X137787942Y-90699062D01*
X137928397Y-90727000D01*
X138071603Y-90727000D01*
X138212058Y-90699062D01*
X138344364Y-90644259D01*
X138463436Y-90564698D01*
X138564698Y-90463436D01*
X138644259Y-90344364D01*
X138699062Y-90212058D01*
X138727000Y-90071603D01*
X138727000Y-89928397D01*
X138699062Y-89787942D01*
X138644259Y-89655636D01*
X138621350Y-89621350D01*
X138655636Y-89644259D01*
X138787942Y-89699062D01*
X138928397Y-89727000D01*
X139071603Y-89727000D01*
X139212058Y-89699062D01*
X139344364Y-89644259D01*
X139463436Y-89564698D01*
X139500000Y-89528134D01*
X139536564Y-89564698D01*
X139655636Y-89644259D01*
X139787942Y-89699062D01*
X139928397Y-89727000D01*
X140071603Y-89727000D01*
X140212058Y-89699062D01*
X140344364Y-89644259D01*
X140463436Y-89564698D01*
X140564698Y-89463436D01*
X140644259Y-89344364D01*
X140699062Y-89212058D01*
X140727000Y-89071603D01*
X140727000Y-88928397D01*
X141773000Y-88928397D01*
X141773000Y-89071603D01*
X141800938Y-89212058D01*
X141855741Y-89344364D01*
X141873000Y-89370194D01*
X141873001Y-97755198D01*
X141869967Y-97786002D01*
X141882073Y-97908914D01*
X141893311Y-97945960D01*
X141917926Y-98027105D01*
X141976148Y-98136030D01*
X142054500Y-98231503D01*
X142078423Y-98251136D01*
X150248864Y-106421578D01*
X150268497Y-106445501D01*
X150363970Y-106523853D01*
X150472895Y-106582075D01*
X150591085Y-106617927D01*
X150683204Y-106627000D01*
X150683205Y-106627000D01*
X150713997Y-106630033D01*
X150744789Y-106627000D01*
X151129806Y-106627000D01*
X151155636Y-106644259D01*
X151287942Y-106699062D01*
X151428397Y-106727000D01*
X151571603Y-106727000D01*
X151712058Y-106699062D01*
X151844364Y-106644259D01*
X151963436Y-106564698D01*
X152064698Y-106463436D01*
X152144259Y-106344364D01*
X152199062Y-106212058D01*
X152227000Y-106071603D01*
X152227000Y-105928397D01*
X152199062Y-105787942D01*
X152144259Y-105655636D01*
X152064698Y-105536564D01*
X151963436Y-105435302D01*
X151844364Y-105355741D01*
X151712058Y-105300938D01*
X151571603Y-105273000D01*
X151428397Y-105273000D01*
X151287942Y-105300938D01*
X151155636Y-105355741D01*
X151129806Y-105373000D01*
X150973710Y-105373000D01*
X147934645Y-102333935D01*
X147963436Y-102314698D01*
X148064698Y-102213436D01*
X148144259Y-102094364D01*
X148199062Y-101962058D01*
X148227000Y-101821603D01*
X148227000Y-101678397D01*
X148199062Y-101537942D01*
X148144259Y-101405636D01*
X148064698Y-101286564D01*
X147963436Y-101185302D01*
X147844364Y-101105741D01*
X147712058Y-101050938D01*
X147571603Y-101023000D01*
X147428397Y-101023000D01*
X147287942Y-101050938D01*
X147155636Y-101105741D01*
X147036564Y-101185302D01*
X146935302Y-101286564D01*
X146916065Y-101315355D01*
X144529107Y-98928397D01*
X146273000Y-98928397D01*
X146273000Y-99071603D01*
X146300938Y-99212058D01*
X146355741Y-99344364D01*
X146435302Y-99463436D01*
X146478571Y-99506705D01*
X146480626Y-99527573D01*
X146510761Y-99626913D01*
X146510762Y-99626914D01*
X146559697Y-99718466D01*
X146625553Y-99798712D01*
X146645662Y-99815215D01*
X147684785Y-100854339D01*
X147701288Y-100874448D01*
X147781534Y-100940304D01*
X147873086Y-100989239D01*
X147972426Y-101019374D01*
X147993295Y-101021429D01*
X148036564Y-101064698D01*
X148155636Y-101144259D01*
X148287942Y-101199062D01*
X148428397Y-101227000D01*
X148571603Y-101227000D01*
X148712058Y-101199062D01*
X148844364Y-101144259D01*
X148963436Y-101064698D01*
X149064698Y-100963436D01*
X149144259Y-100844364D01*
X149199062Y-100712058D01*
X149227000Y-100571603D01*
X149227000Y-100428397D01*
X149199062Y-100287942D01*
X149144259Y-100155636D01*
X149064698Y-100036564D01*
X148963436Y-99935302D01*
X148844364Y-99855741D01*
X148712058Y-99800938D01*
X148571603Y-99773000D01*
X148428397Y-99773000D01*
X148287942Y-99800938D01*
X148170578Y-99849552D01*
X147650448Y-99329423D01*
X147699062Y-99212058D01*
X147727000Y-99071603D01*
X147727000Y-98928397D01*
X147699062Y-98787942D01*
X147644259Y-98655636D01*
X147564698Y-98536564D01*
X147463436Y-98435302D01*
X147344364Y-98355741D01*
X147212058Y-98300938D01*
X147071603Y-98273000D01*
X146928397Y-98273000D01*
X146787942Y-98300938D01*
X146655636Y-98355741D01*
X146536564Y-98435302D01*
X146435302Y-98536564D01*
X146355741Y-98655636D01*
X146300938Y-98787942D01*
X146273000Y-98928397D01*
X144529107Y-98928397D01*
X143127000Y-97526291D01*
X143127000Y-94928397D01*
X144273000Y-94928397D01*
X144273000Y-95071603D01*
X144300938Y-95212058D01*
X144355741Y-95344364D01*
X144435302Y-95463436D01*
X144471866Y-95500000D01*
X144435302Y-95536564D01*
X144355741Y-95655636D01*
X144300938Y-95787942D01*
X144273000Y-95928397D01*
X144273000Y-96071603D01*
X144300938Y-96212058D01*
X144355741Y-96344364D01*
X144435302Y-96463436D01*
X144536564Y-96564698D01*
X144655636Y-96644259D01*
X144787942Y-96699062D01*
X144928397Y-96727000D01*
X145071603Y-96727000D01*
X145212058Y-96699062D01*
X145344364Y-96644259D01*
X145463436Y-96564698D01*
X145564698Y-96463436D01*
X145644259Y-96344364D01*
X145699062Y-96212058D01*
X145727000Y-96071603D01*
X145727000Y-95928397D01*
X145699062Y-95787942D01*
X145644259Y-95655636D01*
X145564698Y-95536564D01*
X145528134Y-95500000D01*
X145564698Y-95463436D01*
X145644259Y-95344364D01*
X145699062Y-95212058D01*
X145727000Y-95071603D01*
X145727000Y-94928397D01*
X145699062Y-94787942D01*
X145644259Y-94655636D01*
X145564698Y-94536564D01*
X145463436Y-94435302D01*
X145344364Y-94355741D01*
X145212058Y-94300938D01*
X145071603Y-94273000D01*
X144928397Y-94273000D01*
X144787942Y-94300938D01*
X144655636Y-94355741D01*
X144536564Y-94435302D01*
X144435302Y-94536564D01*
X144355741Y-94655636D01*
X144300938Y-94787942D01*
X144273000Y-94928397D01*
X143127000Y-94928397D01*
X143127000Y-93928397D01*
X147773000Y-93928397D01*
X147773000Y-94071603D01*
X147800938Y-94212058D01*
X147855741Y-94344364D01*
X147935302Y-94463436D01*
X148036564Y-94564698D01*
X148155636Y-94644259D01*
X148287942Y-94699062D01*
X148428397Y-94727000D01*
X148571603Y-94727000D01*
X148712058Y-94699062D01*
X148844364Y-94644259D01*
X148963436Y-94564698D01*
X149064698Y-94463436D01*
X149144259Y-94344364D01*
X149199062Y-94212058D01*
X149227000Y-94071603D01*
X149227000Y-93928397D01*
X152773000Y-93928397D01*
X152773000Y-94071603D01*
X152800938Y-94212058D01*
X152855741Y-94344364D01*
X152935302Y-94463436D01*
X153036564Y-94564698D01*
X153155636Y-94644259D01*
X153287942Y-94699062D01*
X153428397Y-94727000D01*
X153571603Y-94727000D01*
X153712058Y-94699062D01*
X153844364Y-94644259D01*
X153963436Y-94564698D01*
X154064698Y-94463436D01*
X154144259Y-94344364D01*
X154199062Y-94212058D01*
X154227000Y-94071603D01*
X154227000Y-93928397D01*
X154199062Y-93787942D01*
X154144259Y-93655636D01*
X154064698Y-93536564D01*
X153963436Y-93435302D01*
X153844364Y-93355741D01*
X153712058Y-93300938D01*
X153571603Y-93273000D01*
X153428397Y-93273000D01*
X153287942Y-93300938D01*
X153155636Y-93355741D01*
X153036564Y-93435302D01*
X152935302Y-93536564D01*
X152855741Y-93655636D01*
X152800938Y-93787942D01*
X152773000Y-93928397D01*
X149227000Y-93928397D01*
X149199062Y-93787942D01*
X149144259Y-93655636D01*
X149064698Y-93536564D01*
X148963436Y-93435302D01*
X148844364Y-93355741D01*
X148712058Y-93300938D01*
X148571603Y-93273000D01*
X148428397Y-93273000D01*
X148287942Y-93300938D01*
X148155636Y-93355741D01*
X148036564Y-93435302D01*
X147935302Y-93536564D01*
X147855741Y-93655636D01*
X147800938Y-93787942D01*
X147773000Y-93928397D01*
X143127000Y-93928397D01*
X143127000Y-89625125D01*
X143155636Y-89644259D01*
X143287942Y-89699062D01*
X143428397Y-89727000D01*
X143571603Y-89727000D01*
X143712058Y-89699062D01*
X143844364Y-89644259D01*
X143963436Y-89564698D01*
X144000000Y-89528134D01*
X144036564Y-89564698D01*
X144155636Y-89644259D01*
X144287942Y-89699062D01*
X144428397Y-89727000D01*
X144571603Y-89727000D01*
X144712058Y-89699062D01*
X144844364Y-89644259D01*
X144963436Y-89564698D01*
X145064698Y-89463436D01*
X145144259Y-89344364D01*
X145199062Y-89212058D01*
X145227000Y-89071603D01*
X145227000Y-88928397D01*
X147273000Y-88928397D01*
X147273000Y-89071603D01*
X147300938Y-89212058D01*
X147355741Y-89344364D01*
X147435302Y-89463436D01*
X147536564Y-89564698D01*
X147655636Y-89644259D01*
X147787942Y-89699062D01*
X147928397Y-89727000D01*
X148071603Y-89727000D01*
X148212058Y-89699062D01*
X148344364Y-89644259D01*
X148463436Y-89564698D01*
X148500000Y-89528134D01*
X148536564Y-89564698D01*
X148655636Y-89644259D01*
X148787942Y-89699062D01*
X148928397Y-89727000D01*
X149071603Y-89727000D01*
X149212058Y-89699062D01*
X149344364Y-89644259D01*
X149463436Y-89564698D01*
X149564698Y-89463436D01*
X149644259Y-89344364D01*
X149699062Y-89212058D01*
X149727000Y-89071603D01*
X149727000Y-88928397D01*
X152273000Y-88928397D01*
X152273000Y-89071603D01*
X152300938Y-89212058D01*
X152355741Y-89344364D01*
X152435302Y-89463436D01*
X152536564Y-89564698D01*
X152655636Y-89644259D01*
X152787942Y-89699062D01*
X152928397Y-89727000D01*
X153071603Y-89727000D01*
X153212058Y-89699062D01*
X153344364Y-89644259D01*
X153463436Y-89564698D01*
X153500000Y-89528134D01*
X153536564Y-89564698D01*
X153655636Y-89644259D01*
X153787942Y-89699062D01*
X153928397Y-89727000D01*
X154071603Y-89727000D01*
X154212058Y-89699062D01*
X154344364Y-89644259D01*
X154463436Y-89564698D01*
X154564698Y-89463436D01*
X154644259Y-89344364D01*
X154699062Y-89212058D01*
X154727000Y-89071603D01*
X154727000Y-88928397D01*
X154699062Y-88787942D01*
X154644259Y-88655636D01*
X154564698Y-88536564D01*
X154463436Y-88435302D01*
X154344364Y-88355741D01*
X154212058Y-88300938D01*
X154071603Y-88273000D01*
X153928397Y-88273000D01*
X153787942Y-88300938D01*
X153655636Y-88355741D01*
X153536564Y-88435302D01*
X153500000Y-88471866D01*
X153463436Y-88435302D01*
X153344364Y-88355741D01*
X153212058Y-88300938D01*
X153071603Y-88273000D01*
X152928397Y-88273000D01*
X152787942Y-88300938D01*
X152655636Y-88355741D01*
X152536564Y-88435302D01*
X152435302Y-88536564D01*
X152355741Y-88655636D01*
X152300938Y-88787942D01*
X152273000Y-88928397D01*
X149727000Y-88928397D01*
X149699062Y-88787942D01*
X149644259Y-88655636D01*
X149564698Y-88536564D01*
X149463436Y-88435302D01*
X149344364Y-88355741D01*
X149212058Y-88300938D01*
X149071603Y-88273000D01*
X148928397Y-88273000D01*
X148787942Y-88300938D01*
X148655636Y-88355741D01*
X148536564Y-88435302D01*
X148500000Y-88471866D01*
X148463436Y-88435302D01*
X148344364Y-88355741D01*
X148212058Y-88300938D01*
X148071603Y-88273000D01*
X147928397Y-88273000D01*
X147787942Y-88300938D01*
X147655636Y-88355741D01*
X147536564Y-88435302D01*
X147435302Y-88536564D01*
X147355741Y-88655636D01*
X147300938Y-88787942D01*
X147273000Y-88928397D01*
X145227000Y-88928397D01*
X145199062Y-88787942D01*
X145144259Y-88655636D01*
X145064698Y-88536564D01*
X144963436Y-88435302D01*
X144844364Y-88355741D01*
X144712058Y-88300938D01*
X144571603Y-88273000D01*
X144428397Y-88273000D01*
X144287942Y-88300938D01*
X144155636Y-88355741D01*
X144036564Y-88435302D01*
X144000000Y-88471866D01*
X143963436Y-88435302D01*
X143844364Y-88355741D01*
X143712058Y-88300938D01*
X143571603Y-88273000D01*
X143428397Y-88273000D01*
X143287942Y-88300938D01*
X143155636Y-88355741D01*
X143036564Y-88435302D01*
X143000000Y-88471866D01*
X142963436Y-88435302D01*
X142844364Y-88355741D01*
X142712058Y-88300938D01*
X142571603Y-88273000D01*
X142428397Y-88273000D01*
X142287942Y-88300938D01*
X142155636Y-88355741D01*
X142036564Y-88435302D01*
X141935302Y-88536564D01*
X141855741Y-88655636D01*
X141800938Y-88787942D01*
X141773000Y-88928397D01*
X140727000Y-88928397D01*
X140699062Y-88787942D01*
X140644259Y-88655636D01*
X140564698Y-88536564D01*
X140463436Y-88435302D01*
X140344364Y-88355741D01*
X140212058Y-88300938D01*
X140071603Y-88273000D01*
X139928397Y-88273000D01*
X139787942Y-88300938D01*
X139655636Y-88355741D01*
X139536564Y-88435302D01*
X139500000Y-88471866D01*
X139463436Y-88435302D01*
X139344364Y-88355741D01*
X139212058Y-88300938D01*
X139071603Y-88273000D01*
X138928397Y-88273000D01*
X138787942Y-88300938D01*
X138655636Y-88355741D01*
X138536564Y-88435302D01*
X138500000Y-88471866D01*
X138463436Y-88435302D01*
X138344364Y-88355741D01*
X138212058Y-88300938D01*
X138071603Y-88273000D01*
X137928397Y-88273000D01*
X137787942Y-88300938D01*
X137655636Y-88355741D01*
X137536564Y-88435302D01*
X137435302Y-88536564D01*
X137355741Y-88655636D01*
X137300938Y-88787942D01*
X137273000Y-88928397D01*
X132952000Y-88928397D01*
X132952000Y-85022106D01*
X132955040Y-84991098D01*
X132957626Y-84982532D01*
X132961823Y-84974640D01*
X132967480Y-84967704D01*
X132974373Y-84962002D01*
X132982239Y-84957749D01*
X132990784Y-84955103D01*
X133020312Y-84952000D01*
X134991664Y-84952000D01*
X134973595Y-84985804D01*
M02*
