G04 #@! TF.GenerationSoftware,KiCad,Pcbnew,(5.1.5)-3*
G04 #@! TF.CreationDate,2020-11-27T19:53:37+01:00*
G04 #@! TF.ProjectId,nRF52832-toyboard,6e524635-3238-4333-922d-746f79626f61,rev?*
G04 #@! TF.SameCoordinates,Original*
G04 #@! TF.FileFunction,Legend,Top*
G04 #@! TF.FilePolarity,Positive*
%FSLAX46Y46*%
G04 Gerber Fmt 4.6, Leading zero omitted, Abs format (unit mm)*
G04 Created by KiCad (PCBNEW (5.1.5)-3) date 2020-11-27 19:53:37*
%MOMM*%
%LPD*%
G04 APERTURE LIST*
%ADD10C,0.125000*%
%ADD11C,0.200000*%
%ADD12C,0.120000*%
G04 APERTURE END LIST*
D10*
X126267857Y-104309523D02*
X126601190Y-104309523D01*
X126315476Y-104309523D02*
X126291666Y-104285714D01*
X126267857Y-104238095D01*
X126267857Y-104166666D01*
X126291666Y-104119047D01*
X126339285Y-104095238D01*
X126601190Y-104095238D01*
X126601190Y-103571428D02*
X126363095Y-103738095D01*
X126601190Y-103857142D02*
X126101190Y-103857142D01*
X126101190Y-103666666D01*
X126125000Y-103619047D01*
X126148809Y-103595238D01*
X126196428Y-103571428D01*
X126267857Y-103571428D01*
X126315476Y-103595238D01*
X126339285Y-103619047D01*
X126363095Y-103666666D01*
X126363095Y-103857142D01*
X126339285Y-103190476D02*
X126339285Y-103357142D01*
X126601190Y-103357142D02*
X126101190Y-103357142D01*
X126101190Y-103119047D01*
X126101190Y-102690476D02*
X126101190Y-102928571D01*
X126339285Y-102952380D01*
X126315476Y-102928571D01*
X126291666Y-102880952D01*
X126291666Y-102761904D01*
X126315476Y-102714285D01*
X126339285Y-102690476D01*
X126386904Y-102666666D01*
X126505952Y-102666666D01*
X126553571Y-102690476D01*
X126577380Y-102714285D01*
X126601190Y-102761904D01*
X126601190Y-102880952D01*
X126577380Y-102928571D01*
X126553571Y-102952380D01*
X126148809Y-102476190D02*
X126125000Y-102452380D01*
X126101190Y-102404761D01*
X126101190Y-102285714D01*
X126125000Y-102238095D01*
X126148809Y-102214285D01*
X126196428Y-102190476D01*
X126244047Y-102190476D01*
X126315476Y-102214285D01*
X126601190Y-102500000D01*
X126601190Y-102190476D01*
X126315476Y-101904761D02*
X126291666Y-101952380D01*
X126267857Y-101976190D01*
X126220238Y-102000000D01*
X126196428Y-102000000D01*
X126148809Y-101976190D01*
X126125000Y-101952380D01*
X126101190Y-101904761D01*
X126101190Y-101809523D01*
X126125000Y-101761904D01*
X126148809Y-101738095D01*
X126196428Y-101714285D01*
X126220238Y-101714285D01*
X126267857Y-101738095D01*
X126291666Y-101761904D01*
X126315476Y-101809523D01*
X126315476Y-101904761D01*
X126339285Y-101952380D01*
X126363095Y-101976190D01*
X126410714Y-102000000D01*
X126505952Y-102000000D01*
X126553571Y-101976190D01*
X126577380Y-101952380D01*
X126601190Y-101904761D01*
X126601190Y-101809523D01*
X126577380Y-101761904D01*
X126553571Y-101738095D01*
X126505952Y-101714285D01*
X126410714Y-101714285D01*
X126363095Y-101738095D01*
X126339285Y-101761904D01*
X126315476Y-101809523D01*
X126101190Y-101547619D02*
X126101190Y-101238095D01*
X126291666Y-101404761D01*
X126291666Y-101333333D01*
X126315476Y-101285714D01*
X126339285Y-101261904D01*
X126386904Y-101238095D01*
X126505952Y-101238095D01*
X126553571Y-101261904D01*
X126577380Y-101285714D01*
X126601190Y-101333333D01*
X126601190Y-101476190D01*
X126577380Y-101523809D01*
X126553571Y-101547619D01*
X126148809Y-101047619D02*
X126125000Y-101023809D01*
X126101190Y-100976190D01*
X126101190Y-100857142D01*
X126125000Y-100809523D01*
X126148809Y-100785714D01*
X126196428Y-100761904D01*
X126244047Y-100761904D01*
X126315476Y-100785714D01*
X126601190Y-101071428D01*
X126601190Y-100761904D01*
X126410714Y-100547619D02*
X126410714Y-100166666D01*
X126267857Y-100000000D02*
X126267857Y-99809523D01*
X126101190Y-99928571D02*
X126529761Y-99928571D01*
X126577380Y-99904761D01*
X126601190Y-99857142D01*
X126601190Y-99809523D01*
X126601190Y-99571428D02*
X126577380Y-99619047D01*
X126553571Y-99642857D01*
X126505952Y-99666666D01*
X126363095Y-99666666D01*
X126315476Y-99642857D01*
X126291666Y-99619047D01*
X126267857Y-99571428D01*
X126267857Y-99500000D01*
X126291666Y-99452380D01*
X126315476Y-99428571D01*
X126363095Y-99404761D01*
X126505952Y-99404761D01*
X126553571Y-99428571D01*
X126577380Y-99452380D01*
X126601190Y-99500000D01*
X126601190Y-99571428D01*
X126267857Y-99238095D02*
X126601190Y-99119047D01*
X126267857Y-99000000D02*
X126601190Y-99119047D01*
X126720238Y-99166666D01*
X126744047Y-99190476D01*
X126767857Y-99238095D01*
X126601190Y-98809523D02*
X126101190Y-98809523D01*
X126291666Y-98809523D02*
X126267857Y-98761904D01*
X126267857Y-98666666D01*
X126291666Y-98619047D01*
X126315476Y-98595238D01*
X126363095Y-98571428D01*
X126505952Y-98571428D01*
X126553571Y-98595238D01*
X126577380Y-98619047D01*
X126601190Y-98666666D01*
X126601190Y-98761904D01*
X126577380Y-98809523D01*
X126601190Y-98285714D02*
X126577380Y-98333333D01*
X126553571Y-98357142D01*
X126505952Y-98380952D01*
X126363095Y-98380952D01*
X126315476Y-98357142D01*
X126291666Y-98333333D01*
X126267857Y-98285714D01*
X126267857Y-98214285D01*
X126291666Y-98166666D01*
X126315476Y-98142857D01*
X126363095Y-98119047D01*
X126505952Y-98119047D01*
X126553571Y-98142857D01*
X126577380Y-98166666D01*
X126601190Y-98214285D01*
X126601190Y-98285714D01*
X126601190Y-97690476D02*
X126339285Y-97690476D01*
X126291666Y-97714285D01*
X126267857Y-97761904D01*
X126267857Y-97857142D01*
X126291666Y-97904761D01*
X126577380Y-97690476D02*
X126601190Y-97738095D01*
X126601190Y-97857142D01*
X126577380Y-97904761D01*
X126529761Y-97928571D01*
X126482142Y-97928571D01*
X126434523Y-97904761D01*
X126410714Y-97857142D01*
X126410714Y-97738095D01*
X126386904Y-97690476D01*
X126601190Y-97452380D02*
X126267857Y-97452380D01*
X126363095Y-97452380D02*
X126315476Y-97428571D01*
X126291666Y-97404761D01*
X126267857Y-97357142D01*
X126267857Y-97309523D01*
X126601190Y-96928571D02*
X126101190Y-96928571D01*
X126577380Y-96928571D02*
X126601190Y-96976190D01*
X126601190Y-97071428D01*
X126577380Y-97119047D01*
X126553571Y-97142857D01*
X126505952Y-97166666D01*
X126363095Y-97166666D01*
X126315476Y-97142857D01*
X126291666Y-97119047D01*
X126267857Y-97071428D01*
X126267857Y-96976190D01*
X126291666Y-96928571D01*
X126267857Y-96357142D02*
X126601190Y-96238095D01*
X126267857Y-96119047D01*
X126601190Y-95666666D02*
X126601190Y-95952380D01*
X126601190Y-95809523D02*
X126101190Y-95809523D01*
X126172619Y-95857142D01*
X126220238Y-95904761D01*
X126244047Y-95952380D01*
X126976190Y-101940476D02*
X126976190Y-101630952D01*
X127166666Y-101797619D01*
X127166666Y-101726190D01*
X127190476Y-101678571D01*
X127214285Y-101654761D01*
X127261904Y-101630952D01*
X127380952Y-101630952D01*
X127428571Y-101654761D01*
X127452380Y-101678571D01*
X127476190Y-101726190D01*
X127476190Y-101869047D01*
X127452380Y-101916666D01*
X127428571Y-101940476D01*
X127476190Y-101154761D02*
X127476190Y-101440476D01*
X127476190Y-101297619D02*
X126976190Y-101297619D01*
X127047619Y-101345238D01*
X127095238Y-101392857D01*
X127119047Y-101440476D01*
X127476190Y-100988095D02*
X127142857Y-100726190D01*
X127142857Y-100988095D02*
X127476190Y-100726190D01*
X126976190Y-100583333D02*
X126976190Y-100273809D01*
X127166666Y-100440476D01*
X127166666Y-100369047D01*
X127190476Y-100321428D01*
X127214285Y-100297619D01*
X127261904Y-100273809D01*
X127380952Y-100273809D01*
X127428571Y-100297619D01*
X127452380Y-100321428D01*
X127476190Y-100369047D01*
X127476190Y-100511904D01*
X127452380Y-100559523D01*
X127428571Y-100583333D01*
X127476190Y-99797619D02*
X127476190Y-100083333D01*
X127476190Y-99940476D02*
X126976190Y-99940476D01*
X127047619Y-99988095D01*
X127095238Y-100035714D01*
X127119047Y-100083333D01*
X127476190Y-99202380D02*
X127142857Y-99202380D01*
X127190476Y-99202380D02*
X127166666Y-99178571D01*
X127142857Y-99130952D01*
X127142857Y-99059523D01*
X127166666Y-99011904D01*
X127214285Y-98988095D01*
X127476190Y-98988095D01*
X127214285Y-98988095D02*
X127166666Y-98964285D01*
X127142857Y-98916666D01*
X127142857Y-98845238D01*
X127166666Y-98797619D01*
X127214285Y-98773809D01*
X127476190Y-98773809D01*
X127476190Y-98535714D02*
X127142857Y-98535714D01*
X127190476Y-98535714D02*
X127166666Y-98511904D01*
X127142857Y-98464285D01*
X127142857Y-98392857D01*
X127166666Y-98345238D01*
X127214285Y-98321428D01*
X127476190Y-98321428D01*
X127214285Y-98321428D02*
X127166666Y-98297619D01*
X127142857Y-98250000D01*
X127142857Y-98178571D01*
X127166666Y-98130952D01*
X127214285Y-98107142D01*
X127476190Y-98107142D01*
X127851190Y-101761904D02*
X127851190Y-101476190D01*
X128351190Y-101619047D02*
X127851190Y-101619047D01*
X128089285Y-101142857D02*
X128113095Y-101071428D01*
X128136904Y-101047619D01*
X128184523Y-101023809D01*
X128255952Y-101023809D01*
X128303571Y-101047619D01*
X128327380Y-101071428D01*
X128351190Y-101119047D01*
X128351190Y-101309523D01*
X127851190Y-101309523D01*
X127851190Y-101142857D01*
X127875000Y-101095238D01*
X127898809Y-101071428D01*
X127946428Y-101047619D01*
X127994047Y-101047619D01*
X128041666Y-101071428D01*
X128065476Y-101095238D01*
X128089285Y-101142857D01*
X128089285Y-101309523D01*
X128351190Y-100595238D02*
X128089285Y-100595238D01*
X128041666Y-100619047D01*
X128017857Y-100666666D01*
X128017857Y-100761904D01*
X128041666Y-100809523D01*
X128327380Y-100595238D02*
X128351190Y-100642857D01*
X128351190Y-100761904D01*
X128327380Y-100809523D01*
X128279761Y-100833333D01*
X128232142Y-100833333D01*
X128184523Y-100809523D01*
X128160714Y-100761904D01*
X128160714Y-100642857D01*
X128136904Y-100595238D01*
X127898809Y-100000000D02*
X127875000Y-99976190D01*
X127851190Y-99928571D01*
X127851190Y-99809523D01*
X127875000Y-99761904D01*
X127898809Y-99738095D01*
X127946428Y-99714285D01*
X127994047Y-99714285D01*
X128065476Y-99738095D01*
X128351190Y-100023809D01*
X128351190Y-99714285D01*
X127851190Y-99404761D02*
X127851190Y-99357142D01*
X127875000Y-99309523D01*
X127898809Y-99285714D01*
X127946428Y-99261904D01*
X128041666Y-99238095D01*
X128160714Y-99238095D01*
X128255952Y-99261904D01*
X128303571Y-99285714D01*
X128327380Y-99309523D01*
X128351190Y-99357142D01*
X128351190Y-99404761D01*
X128327380Y-99452380D01*
X128303571Y-99476190D01*
X128255952Y-99500000D01*
X128160714Y-99523809D01*
X128041666Y-99523809D01*
X127946428Y-99500000D01*
X127898809Y-99476190D01*
X127875000Y-99452380D01*
X127851190Y-99404761D01*
X127898809Y-99047619D02*
X127875000Y-99023809D01*
X127851190Y-98976190D01*
X127851190Y-98857142D01*
X127875000Y-98809523D01*
X127898809Y-98785714D01*
X127946428Y-98761904D01*
X127994047Y-98761904D01*
X128065476Y-98785714D01*
X128351190Y-99071428D01*
X128351190Y-98761904D01*
X127851190Y-98452380D02*
X127851190Y-98404761D01*
X127875000Y-98357142D01*
X127898809Y-98333333D01*
X127946428Y-98309523D01*
X128041666Y-98285714D01*
X128160714Y-98285714D01*
X128255952Y-98309523D01*
X128303571Y-98333333D01*
X128327380Y-98357142D01*
X128351190Y-98404761D01*
X128351190Y-98452380D01*
X128327380Y-98500000D01*
X128303571Y-98523809D01*
X128255952Y-98547619D01*
X128160714Y-98571428D01*
X128041666Y-98571428D01*
X127946428Y-98547619D01*
X127898809Y-98523809D01*
X127875000Y-98500000D01*
X127851190Y-98452380D01*
X146054761Y-94811904D02*
X146054761Y-95383333D01*
X146016666Y-95497619D01*
X145940476Y-95573809D01*
X145826190Y-95611904D01*
X145750000Y-95611904D01*
X146816666Y-95611904D02*
X146435714Y-95611904D01*
X146435714Y-94811904D01*
X147540476Y-95535714D02*
X147502380Y-95573809D01*
X147388095Y-95611904D01*
X147311904Y-95611904D01*
X147197619Y-95573809D01*
X147121428Y-95497619D01*
X147083333Y-95421428D01*
X147045238Y-95269047D01*
X147045238Y-95154761D01*
X147083333Y-95002380D01*
X147121428Y-94926190D01*
X147197619Y-94850000D01*
X147311904Y-94811904D01*
X147388095Y-94811904D01*
X147502380Y-94850000D01*
X147540476Y-94888095D01*
X148111904Y-94811904D02*
X148111904Y-95383333D01*
X148073809Y-95497619D01*
X147997619Y-95573809D01*
X147883333Y-95611904D01*
X147807142Y-95611904D01*
X148873809Y-95611904D02*
X148492857Y-95611904D01*
X148492857Y-94811904D01*
X149597619Y-95535714D02*
X149559523Y-95573809D01*
X149445238Y-95611904D01*
X149369047Y-95611904D01*
X149254761Y-95573809D01*
X149178571Y-95497619D01*
X149140476Y-95421428D01*
X149102380Y-95269047D01*
X149102380Y-95154761D01*
X149140476Y-95002380D01*
X149178571Y-94926190D01*
X149254761Y-94850000D01*
X149369047Y-94811904D01*
X149445238Y-94811904D01*
X149559523Y-94850000D01*
X149597619Y-94888095D01*
X150169047Y-94811904D02*
X150169047Y-95383333D01*
X150130952Y-95497619D01*
X150054761Y-95573809D01*
X149940476Y-95611904D01*
X149864285Y-95611904D01*
X150930952Y-95611904D02*
X150550000Y-95611904D01*
X150550000Y-94811904D01*
X151654761Y-95535714D02*
X151616666Y-95573809D01*
X151502380Y-95611904D01*
X151426190Y-95611904D01*
X151311904Y-95573809D01*
X151235714Y-95497619D01*
X151197619Y-95421428D01*
X151159523Y-95269047D01*
X151159523Y-95154761D01*
X151197619Y-95002380D01*
X151235714Y-94926190D01*
X151311904Y-94850000D01*
X151426190Y-94811904D01*
X151502380Y-94811904D01*
X151616666Y-94850000D01*
X151654761Y-94888095D01*
X152226190Y-94811904D02*
X152226190Y-95383333D01*
X152188095Y-95497619D01*
X152111904Y-95573809D01*
X151997619Y-95611904D01*
X151921428Y-95611904D01*
X152988095Y-95611904D02*
X152607142Y-95611904D01*
X152607142Y-94811904D01*
X153711904Y-95535714D02*
X153673809Y-95573809D01*
X153559523Y-95611904D01*
X153483333Y-95611904D01*
X153369047Y-95573809D01*
X153292857Y-95497619D01*
X153254761Y-95421428D01*
X153216666Y-95269047D01*
X153216666Y-95154761D01*
X153254761Y-95002380D01*
X153292857Y-94926190D01*
X153369047Y-94850000D01*
X153483333Y-94811904D01*
X153559523Y-94811904D01*
X153673809Y-94850000D01*
X153711904Y-94888095D01*
D11*
X136600000Y-95000000D02*
G75*
G03X136600000Y-95000000I-100000J0D01*
G01*
X132100000Y-96500000D02*
G75*
G03X132100000Y-96500000I-100000J0D01*
G01*
X137600000Y-95000000D02*
G75*
G03X137600000Y-95000000I-100000J0D01*
G01*
X152600000Y-89500000D02*
G75*
G03X152600000Y-89500000I-100000J0D01*
G01*
X147600000Y-89500000D02*
G75*
G03X147600000Y-89500000I-100000J0D01*
G01*
X135600000Y-115000000D02*
G75*
G03X135600000Y-115000000I-100000J0D01*
G01*
X147600000Y-110500000D02*
G75*
G03X147600000Y-110500000I-100000J0D01*
G01*
D10*
X135952380Y-88726190D02*
X136047619Y-88726190D01*
X136095238Y-88702380D01*
X136119047Y-88678571D01*
X136166666Y-88607142D01*
X136190476Y-88511904D01*
X136190476Y-88321428D01*
X136166666Y-88273809D01*
X136142857Y-88250000D01*
X136095238Y-88226190D01*
X136000000Y-88226190D01*
X135952380Y-88250000D01*
X135928571Y-88273809D01*
X135904761Y-88321428D01*
X135904761Y-88440476D01*
X135928571Y-88488095D01*
X135952380Y-88511904D01*
X136000000Y-88535714D01*
X136095238Y-88535714D01*
X136142857Y-88511904D01*
X136166666Y-88488095D01*
X136190476Y-88440476D01*
X136333333Y-88226190D02*
X136500000Y-88726190D01*
X136666666Y-88226190D01*
X139000000Y-88250000D02*
X138952380Y-88226190D01*
X138880952Y-88226190D01*
X138809523Y-88250000D01*
X138761904Y-88297619D01*
X138738095Y-88345238D01*
X138714285Y-88440476D01*
X138714285Y-88511904D01*
X138738095Y-88607142D01*
X138761904Y-88654761D01*
X138809523Y-88702380D01*
X138880952Y-88726190D01*
X138928571Y-88726190D01*
X139000000Y-88702380D01*
X139023809Y-88678571D01*
X139023809Y-88511904D01*
X138928571Y-88511904D01*
X141095238Y-88226190D02*
X141404761Y-88226190D01*
X141238095Y-88416666D01*
X141309523Y-88416666D01*
X141357142Y-88440476D01*
X141380952Y-88464285D01*
X141404761Y-88511904D01*
X141404761Y-88630952D01*
X141380952Y-88678571D01*
X141357142Y-88702380D01*
X141309523Y-88726190D01*
X141166666Y-88726190D01*
X141119047Y-88702380D01*
X141095238Y-88678571D01*
X141547619Y-88226190D02*
X141714285Y-88726190D01*
X141880952Y-88226190D01*
X143833333Y-88250000D02*
X143785714Y-88226190D01*
X143714285Y-88226190D01*
X143642857Y-88250000D01*
X143595238Y-88297619D01*
X143571428Y-88345238D01*
X143547619Y-88440476D01*
X143547619Y-88511904D01*
X143571428Y-88607142D01*
X143595238Y-88654761D01*
X143642857Y-88702380D01*
X143714285Y-88726190D01*
X143761904Y-88726190D01*
X143833333Y-88702380D01*
X143857142Y-88678571D01*
X143857142Y-88511904D01*
X143761904Y-88511904D01*
X146142857Y-88464285D02*
X146214285Y-88488095D01*
X146238095Y-88511904D01*
X146261904Y-88559523D01*
X146261904Y-88630952D01*
X146238095Y-88678571D01*
X146214285Y-88702380D01*
X146166666Y-88726190D01*
X145976190Y-88726190D01*
X145976190Y-88226190D01*
X146142857Y-88226190D01*
X146190476Y-88250000D01*
X146214285Y-88273809D01*
X146238095Y-88321428D01*
X146238095Y-88369047D01*
X146214285Y-88416666D01*
X146190476Y-88440476D01*
X146142857Y-88464285D01*
X145976190Y-88464285D01*
X146452380Y-88273809D02*
X146476190Y-88250000D01*
X146523809Y-88226190D01*
X146642857Y-88226190D01*
X146690476Y-88250000D01*
X146714285Y-88273809D01*
X146738095Y-88321428D01*
X146738095Y-88369047D01*
X146714285Y-88440476D01*
X146428571Y-88726190D01*
X146738095Y-88726190D01*
X148642857Y-88464285D02*
X148714285Y-88488095D01*
X148738095Y-88511904D01*
X148761904Y-88559523D01*
X148761904Y-88630952D01*
X148738095Y-88678571D01*
X148714285Y-88702380D01*
X148666666Y-88726190D01*
X148476190Y-88726190D01*
X148476190Y-88226190D01*
X148642857Y-88226190D01*
X148690476Y-88250000D01*
X148714285Y-88273809D01*
X148738095Y-88321428D01*
X148738095Y-88369047D01*
X148714285Y-88416666D01*
X148690476Y-88440476D01*
X148642857Y-88464285D01*
X148476190Y-88464285D01*
X149238095Y-88726190D02*
X148952380Y-88726190D01*
X149095238Y-88726190D02*
X149095238Y-88226190D01*
X149047619Y-88297619D01*
X149000000Y-88345238D01*
X148952380Y-88369047D01*
X150952380Y-88583333D02*
X151190476Y-88583333D01*
X150904761Y-88726190D02*
X151071428Y-88226190D01*
X151238095Y-88726190D01*
X151380952Y-88273809D02*
X151404761Y-88250000D01*
X151452380Y-88226190D01*
X151571428Y-88226190D01*
X151619047Y-88250000D01*
X151642857Y-88273809D01*
X151666666Y-88321428D01*
X151666666Y-88369047D01*
X151642857Y-88440476D01*
X151357142Y-88726190D01*
X151666666Y-88726190D01*
X153380952Y-88583333D02*
X153619047Y-88583333D01*
X153333333Y-88726190D02*
X153500000Y-88226190D01*
X153666666Y-88726190D01*
X154095238Y-88726190D02*
X153809523Y-88726190D01*
X153952380Y-88726190D02*
X153952380Y-88226190D01*
X153904761Y-88297619D01*
X153857142Y-88345238D01*
X153809523Y-88369047D01*
D12*
X142990000Y-97337221D02*
X142990000Y-97662779D01*
X144010000Y-97337221D02*
X144010000Y-97662779D01*
X141490000Y-97337221D02*
X141490000Y-97662779D01*
X142510000Y-97337221D02*
X142510000Y-97662779D01*
X142735000Y-101985000D02*
X142735000Y-99700000D01*
X141265000Y-101985000D02*
X142735000Y-101985000D01*
X141265000Y-99700000D02*
X141265000Y-101985000D01*
X144235000Y-101985000D02*
X144235000Y-99700000D01*
X142765000Y-101985000D02*
X144235000Y-101985000D01*
X142765000Y-99700000D02*
X142765000Y-101985000D01*
X151510000Y-98662779D02*
X151510000Y-98337221D01*
X150490000Y-98662779D02*
X150490000Y-98337221D01*
X151510000Y-102162779D02*
X151510000Y-101837221D01*
X150490000Y-102162779D02*
X150490000Y-101837221D01*
X155330000Y-115330000D02*
X154000000Y-115330000D01*
X155330000Y-114000000D02*
X155330000Y-115330000D01*
X155330000Y-112730000D02*
X152670000Y-112730000D01*
X152670000Y-112730000D02*
X152670000Y-97430000D01*
X155330000Y-112730000D02*
X155330000Y-97430000D01*
X155330000Y-97430000D02*
X152670000Y-97430000D01*
X134662779Y-89490000D02*
X134337221Y-89490000D01*
X134662779Y-90510000D02*
X134337221Y-90510000D01*
X134240000Y-91420000D02*
X135700000Y-91420000D01*
X134240000Y-94580000D02*
X136400000Y-94580000D01*
X134240000Y-94580000D02*
X134240000Y-93650000D01*
X134240000Y-91420000D02*
X134240000Y-92350000D01*
X134890000Y-87330000D02*
X134890000Y-86000000D01*
X136220000Y-87330000D02*
X134890000Y-87330000D01*
X137490000Y-87330000D02*
X137490000Y-84670000D01*
X137490000Y-84670000D02*
X155330000Y-84670000D01*
X137490000Y-87330000D02*
X155330000Y-87330000D01*
X155330000Y-87330000D02*
X155330000Y-84670000D01*
X144010000Y-94662779D02*
X144010000Y-94337221D01*
X142990000Y-94662779D02*
X142990000Y-94337221D01*
X142790000Y-90741422D02*
X142790000Y-91258578D01*
X144210000Y-90741422D02*
X144210000Y-91258578D01*
X137100000Y-90720000D02*
X138300000Y-90720000D01*
X137100000Y-94720000D02*
X137100000Y-90720000D01*
X141900000Y-90720000D02*
X141900000Y-93420000D01*
X140700000Y-90720000D02*
X141900000Y-90720000D01*
X147620000Y-90000000D02*
X147620000Y-92000000D01*
X145380000Y-92000000D02*
X145380000Y-91000000D01*
X152620000Y-90000000D02*
X152620000Y-92000000D01*
X150380000Y-92000000D02*
X150380000Y-91000000D01*
X135500000Y-114650000D02*
X139500000Y-114650000D01*
X135500000Y-111350000D02*
X135500000Y-114650000D01*
X149337221Y-111490000D02*
X149662779Y-111490000D01*
X149337221Y-112510000D02*
X149662779Y-112510000D01*
X143490000Y-112662779D02*
X143490000Y-112337221D01*
X144510000Y-112662779D02*
X144510000Y-112337221D01*
X134235000Y-95765000D02*
X137765000Y-95765000D01*
X134235000Y-102235000D02*
X137765000Y-102235000D01*
X132910000Y-95830000D02*
X134235000Y-95830000D01*
X134235000Y-95765000D02*
X134235000Y-95830000D01*
X137765000Y-95765000D02*
X137765000Y-95830000D01*
X134235000Y-102170000D02*
X134235000Y-102235000D01*
X137765000Y-102170000D02*
X137765000Y-102235000D01*
X146490000Y-112337221D02*
X146490000Y-112662779D01*
X147510000Y-112337221D02*
X147510000Y-112662779D01*
X141440000Y-110110000D02*
X140890000Y-110110000D01*
X140890000Y-110110000D02*
X140890000Y-109560000D01*
X146560000Y-103890000D02*
X147110000Y-103890000D01*
X147110000Y-103890000D02*
X147110000Y-104440000D01*
X141440000Y-103890000D02*
X140890000Y-103890000D01*
X140890000Y-103890000D02*
X140890000Y-104440000D01*
X146560000Y-110110000D02*
X147110000Y-110110000D01*
D10*
X144976190Y-97583333D02*
X144738095Y-97750000D01*
X144976190Y-97869047D02*
X144476190Y-97869047D01*
X144476190Y-97678571D01*
X144500000Y-97630952D01*
X144523809Y-97607142D01*
X144571428Y-97583333D01*
X144642857Y-97583333D01*
X144690476Y-97607142D01*
X144714285Y-97630952D01*
X144738095Y-97678571D01*
X144738095Y-97869047D01*
X144476190Y-97154761D02*
X144476190Y-97250000D01*
X144500000Y-97297619D01*
X144523809Y-97321428D01*
X144595238Y-97369047D01*
X144690476Y-97392857D01*
X144880952Y-97392857D01*
X144928571Y-97369047D01*
X144952380Y-97345238D01*
X144976190Y-97297619D01*
X144976190Y-97202380D01*
X144952380Y-97154761D01*
X144928571Y-97130952D01*
X144880952Y-97107142D01*
X144761904Y-97107142D01*
X144714285Y-97130952D01*
X144690476Y-97154761D01*
X144666666Y-97202380D01*
X144666666Y-97297619D01*
X144690476Y-97345238D01*
X144714285Y-97369047D01*
X144761904Y-97392857D01*
X141166666Y-114678571D02*
X141142857Y-114702380D01*
X141071428Y-114726190D01*
X141023809Y-114726190D01*
X140952380Y-114702380D01*
X140904761Y-114654761D01*
X140880952Y-114607142D01*
X140857142Y-114511904D01*
X140857142Y-114440476D01*
X140880952Y-114345238D01*
X140904761Y-114297619D01*
X140952380Y-114250000D01*
X141023809Y-114226190D01*
X141071428Y-114226190D01*
X141142857Y-114250000D01*
X141166666Y-114273809D01*
X141357142Y-114273809D02*
X141380952Y-114250000D01*
X141428571Y-114226190D01*
X141547619Y-114226190D01*
X141595238Y-114250000D01*
X141619047Y-114273809D01*
X141642857Y-114321428D01*
X141642857Y-114369047D01*
X141619047Y-114440476D01*
X141333333Y-114726190D01*
X141642857Y-114726190D01*
X140976190Y-97583333D02*
X140738095Y-97750000D01*
X140976190Y-97869047D02*
X140476190Y-97869047D01*
X140476190Y-97678571D01*
X140500000Y-97630952D01*
X140523809Y-97607142D01*
X140571428Y-97583333D01*
X140642857Y-97583333D01*
X140690476Y-97607142D01*
X140714285Y-97630952D01*
X140738095Y-97678571D01*
X140738095Y-97869047D01*
X140476190Y-97416666D02*
X140476190Y-97083333D01*
X140976190Y-97297619D01*
X140976190Y-100869047D02*
X140476190Y-100869047D01*
X140476190Y-100750000D01*
X140500000Y-100678571D01*
X140547619Y-100630952D01*
X140595238Y-100607142D01*
X140690476Y-100583333D01*
X140761904Y-100583333D01*
X140857142Y-100607142D01*
X140904761Y-100630952D01*
X140952380Y-100678571D01*
X140976190Y-100750000D01*
X140976190Y-100869047D01*
X140523809Y-100392857D02*
X140500000Y-100369047D01*
X140476190Y-100321428D01*
X140476190Y-100202380D01*
X140500000Y-100154761D01*
X140523809Y-100130952D01*
X140571428Y-100107142D01*
X140619047Y-100107142D01*
X140690476Y-100130952D01*
X140976190Y-100416666D01*
X140976190Y-100107142D01*
X144976190Y-100869047D02*
X144476190Y-100869047D01*
X144476190Y-100750000D01*
X144500000Y-100678571D01*
X144547619Y-100630952D01*
X144595238Y-100607142D01*
X144690476Y-100583333D01*
X144761904Y-100583333D01*
X144857142Y-100607142D01*
X144904761Y-100630952D01*
X144952380Y-100678571D01*
X144976190Y-100750000D01*
X144976190Y-100869047D01*
X144976190Y-100107142D02*
X144976190Y-100392857D01*
X144976190Y-100250000D02*
X144476190Y-100250000D01*
X144547619Y-100297619D01*
X144595238Y-100345238D01*
X144619047Y-100392857D01*
X149928571Y-98821428D02*
X149952380Y-98845238D01*
X149976190Y-98916666D01*
X149976190Y-98964285D01*
X149952380Y-99035714D01*
X149904761Y-99083333D01*
X149857142Y-99107142D01*
X149761904Y-99130952D01*
X149690476Y-99130952D01*
X149595238Y-99107142D01*
X149547619Y-99083333D01*
X149500000Y-99035714D01*
X149476190Y-98964285D01*
X149476190Y-98916666D01*
X149500000Y-98845238D01*
X149523809Y-98821428D01*
X149523809Y-98630952D02*
X149500000Y-98607142D01*
X149476190Y-98559523D01*
X149476190Y-98440476D01*
X149500000Y-98392857D01*
X149523809Y-98369047D01*
X149571428Y-98345238D01*
X149619047Y-98345238D01*
X149690476Y-98369047D01*
X149976190Y-98654761D01*
X149976190Y-98345238D01*
X149476190Y-98035714D02*
X149476190Y-97988095D01*
X149500000Y-97940476D01*
X149523809Y-97916666D01*
X149571428Y-97892857D01*
X149666666Y-97869047D01*
X149785714Y-97869047D01*
X149880952Y-97892857D01*
X149928571Y-97916666D01*
X149952380Y-97940476D01*
X149976190Y-97988095D01*
X149976190Y-98035714D01*
X149952380Y-98083333D01*
X149928571Y-98107142D01*
X149880952Y-98130952D01*
X149785714Y-98154761D01*
X149666666Y-98154761D01*
X149571428Y-98130952D01*
X149523809Y-98107142D01*
X149500000Y-98083333D01*
X149476190Y-98035714D01*
X149928571Y-102321428D02*
X149952380Y-102345238D01*
X149976190Y-102416666D01*
X149976190Y-102464285D01*
X149952380Y-102535714D01*
X149904761Y-102583333D01*
X149857142Y-102607142D01*
X149761904Y-102630952D01*
X149690476Y-102630952D01*
X149595238Y-102607142D01*
X149547619Y-102583333D01*
X149500000Y-102535714D01*
X149476190Y-102464285D01*
X149476190Y-102416666D01*
X149500000Y-102345238D01*
X149523809Y-102321428D01*
X149976190Y-101845238D02*
X149976190Y-102130952D01*
X149976190Y-101988095D02*
X149476190Y-101988095D01*
X149547619Y-102035714D01*
X149595238Y-102083333D01*
X149619047Y-102130952D01*
X149976190Y-101607142D02*
X149976190Y-101511904D01*
X149952380Y-101464285D01*
X149928571Y-101440476D01*
X149857142Y-101392857D01*
X149761904Y-101369047D01*
X149571428Y-101369047D01*
X149523809Y-101392857D01*
X149500000Y-101416666D01*
X149476190Y-101464285D01*
X149476190Y-101559523D01*
X149500000Y-101607142D01*
X149523809Y-101630952D01*
X149571428Y-101654761D01*
X149690476Y-101654761D01*
X149738095Y-101630952D01*
X149761904Y-101607142D01*
X149785714Y-101559523D01*
X149785714Y-101464285D01*
X149761904Y-101416666D01*
X149738095Y-101392857D01*
X149690476Y-101369047D01*
X149166666Y-108226190D02*
X149000000Y-107988095D01*
X148880952Y-108226190D02*
X148880952Y-107726190D01*
X149071428Y-107726190D01*
X149119047Y-107750000D01*
X149142857Y-107773809D01*
X149166666Y-107821428D01*
X149166666Y-107892857D01*
X149142857Y-107940476D01*
X149119047Y-107964285D01*
X149071428Y-107988095D01*
X148880952Y-107988095D01*
X149619047Y-107726190D02*
X149380952Y-107726190D01*
X149357142Y-107964285D01*
X149380952Y-107940476D01*
X149428571Y-107916666D01*
X149547619Y-107916666D01*
X149595238Y-107940476D01*
X149619047Y-107964285D01*
X149642857Y-108011904D01*
X149642857Y-108130952D01*
X149619047Y-108178571D01*
X149595238Y-108202380D01*
X149547619Y-108226190D01*
X149428571Y-108226190D01*
X149380952Y-108202380D01*
X149357142Y-108178571D01*
X150666666Y-108226190D02*
X150500000Y-107988095D01*
X150380952Y-108226190D02*
X150380952Y-107726190D01*
X150571428Y-107726190D01*
X150619047Y-107750000D01*
X150642857Y-107773809D01*
X150666666Y-107821428D01*
X150666666Y-107892857D01*
X150642857Y-107940476D01*
X150619047Y-107964285D01*
X150571428Y-107988095D01*
X150380952Y-107988095D01*
X151095238Y-107892857D02*
X151095238Y-108226190D01*
X150976190Y-107702380D02*
X150857142Y-108059523D01*
X151166666Y-108059523D01*
X151833333Y-113726190D02*
X151833333Y-114083333D01*
X151809523Y-114154761D01*
X151761904Y-114202380D01*
X151690476Y-114226190D01*
X151642857Y-114226190D01*
X152023809Y-113726190D02*
X152333333Y-113726190D01*
X152166666Y-113916666D01*
X152238095Y-113916666D01*
X152285714Y-113940476D01*
X152309523Y-113964285D01*
X152333333Y-114011904D01*
X152333333Y-114130952D01*
X152309523Y-114178571D01*
X152285714Y-114202380D01*
X152238095Y-114226190D01*
X152095238Y-114226190D01*
X152047619Y-114202380D01*
X152023809Y-114178571D01*
X134416666Y-89226190D02*
X134250000Y-88988095D01*
X134130952Y-89226190D02*
X134130952Y-88726190D01*
X134321428Y-88726190D01*
X134369047Y-88750000D01*
X134392857Y-88773809D01*
X134416666Y-88821428D01*
X134416666Y-88892857D01*
X134392857Y-88940476D01*
X134369047Y-88964285D01*
X134321428Y-88988095D01*
X134130952Y-88988095D01*
X134583333Y-88726190D02*
X134892857Y-88726190D01*
X134726190Y-88916666D01*
X134797619Y-88916666D01*
X134845238Y-88940476D01*
X134869047Y-88964285D01*
X134892857Y-89011904D01*
X134892857Y-89130952D01*
X134869047Y-89178571D01*
X134845238Y-89202380D01*
X134797619Y-89226190D01*
X134654761Y-89226190D01*
X134607142Y-89202380D01*
X134583333Y-89178571D01*
X133452380Y-94773809D02*
X133404761Y-94750000D01*
X133357142Y-94702380D01*
X133285714Y-94630952D01*
X133238095Y-94607142D01*
X133190476Y-94607142D01*
X133214285Y-94726190D02*
X133166666Y-94702380D01*
X133119047Y-94654761D01*
X133095238Y-94559523D01*
X133095238Y-94392857D01*
X133119047Y-94297619D01*
X133166666Y-94250000D01*
X133214285Y-94226190D01*
X133309523Y-94226190D01*
X133357142Y-94250000D01*
X133404761Y-94297619D01*
X133428571Y-94392857D01*
X133428571Y-94559523D01*
X133404761Y-94654761D01*
X133357142Y-94702380D01*
X133309523Y-94726190D01*
X133214285Y-94726190D01*
X133904761Y-94726190D02*
X133619047Y-94726190D01*
X133761904Y-94726190D02*
X133761904Y-94226190D01*
X133714285Y-94297619D01*
X133666666Y-94345238D01*
X133619047Y-94369047D01*
X133616190Y-86166666D02*
X133973333Y-86166666D01*
X134044761Y-86190476D01*
X134092380Y-86238095D01*
X134116190Y-86309523D01*
X134116190Y-86357142D01*
X133663809Y-85952380D02*
X133640000Y-85928571D01*
X133616190Y-85880952D01*
X133616190Y-85761904D01*
X133640000Y-85714285D01*
X133663809Y-85690476D01*
X133711428Y-85666666D01*
X133759047Y-85666666D01*
X133830476Y-85690476D01*
X134116190Y-85976190D01*
X134116190Y-85666666D01*
X141678571Y-95678571D02*
X141654761Y-95702380D01*
X141583333Y-95726190D01*
X141535714Y-95726190D01*
X141464285Y-95702380D01*
X141416666Y-95654761D01*
X141392857Y-95607142D01*
X141369047Y-95511904D01*
X141369047Y-95440476D01*
X141392857Y-95345238D01*
X141416666Y-95297619D01*
X141464285Y-95250000D01*
X141535714Y-95226190D01*
X141583333Y-95226190D01*
X141654761Y-95250000D01*
X141678571Y-95273809D01*
X142154761Y-95726190D02*
X141869047Y-95726190D01*
X142011904Y-95726190D02*
X142011904Y-95226190D01*
X141964285Y-95297619D01*
X141916666Y-95345238D01*
X141869047Y-95369047D01*
X142440476Y-95440476D02*
X142392857Y-95416666D01*
X142369047Y-95392857D01*
X142345238Y-95345238D01*
X142345238Y-95321428D01*
X142369047Y-95273809D01*
X142392857Y-95250000D01*
X142440476Y-95226190D01*
X142535714Y-95226190D01*
X142583333Y-95250000D01*
X142607142Y-95273809D01*
X142630952Y-95321428D01*
X142630952Y-95345238D01*
X142607142Y-95392857D01*
X142583333Y-95416666D01*
X142535714Y-95440476D01*
X142440476Y-95440476D01*
X142392857Y-95464285D01*
X142369047Y-95488095D01*
X142345238Y-95535714D01*
X142345238Y-95630952D01*
X142369047Y-95678571D01*
X142392857Y-95702380D01*
X142440476Y-95726190D01*
X142535714Y-95726190D01*
X142583333Y-95702380D01*
X142607142Y-95678571D01*
X142630952Y-95630952D01*
X142630952Y-95535714D01*
X142607142Y-95488095D01*
X142583333Y-95464285D01*
X142535714Y-95440476D01*
X141678571Y-89678571D02*
X141654761Y-89702380D01*
X141583333Y-89726190D01*
X141535714Y-89726190D01*
X141464285Y-89702380D01*
X141416666Y-89654761D01*
X141392857Y-89607142D01*
X141369047Y-89511904D01*
X141369047Y-89440476D01*
X141392857Y-89345238D01*
X141416666Y-89297619D01*
X141464285Y-89250000D01*
X141535714Y-89226190D01*
X141583333Y-89226190D01*
X141654761Y-89250000D01*
X141678571Y-89273809D01*
X142154761Y-89726190D02*
X141869047Y-89726190D01*
X142011904Y-89726190D02*
X142011904Y-89226190D01*
X141964285Y-89297619D01*
X141916666Y-89345238D01*
X141869047Y-89369047D01*
X142321428Y-89226190D02*
X142654761Y-89226190D01*
X142440476Y-89726190D01*
X137119047Y-89726190D02*
X137119047Y-90130952D01*
X137142857Y-90178571D01*
X137166666Y-90202380D01*
X137214285Y-90226190D01*
X137309523Y-90226190D01*
X137357142Y-90202380D01*
X137380952Y-90178571D01*
X137404761Y-90130952D01*
X137404761Y-89726190D01*
X137857142Y-89892857D02*
X137857142Y-90226190D01*
X137738095Y-89702380D02*
X137619047Y-90059523D01*
X137928571Y-90059523D01*
X146119047Y-93226190D02*
X146119047Y-93630952D01*
X146142857Y-93678571D01*
X146166666Y-93702380D01*
X146214285Y-93726190D01*
X146309523Y-93726190D01*
X146357142Y-93702380D01*
X146380952Y-93678571D01*
X146404761Y-93630952D01*
X146404761Y-93226190D01*
X146595238Y-93226190D02*
X146904761Y-93226190D01*
X146738095Y-93416666D01*
X146809523Y-93416666D01*
X146857142Y-93440476D01*
X146880952Y-93464285D01*
X146904761Y-93511904D01*
X146904761Y-93630952D01*
X146880952Y-93678571D01*
X146857142Y-93702380D01*
X146809523Y-93726190D01*
X146666666Y-93726190D01*
X146619047Y-93702380D01*
X146595238Y-93678571D01*
X149678571Y-90321428D02*
X149702380Y-90345238D01*
X149726190Y-90416666D01*
X149726190Y-90464285D01*
X149702380Y-90535714D01*
X149654761Y-90583333D01*
X149607142Y-90607142D01*
X149511904Y-90630952D01*
X149440476Y-90630952D01*
X149345238Y-90607142D01*
X149297619Y-90583333D01*
X149250000Y-90535714D01*
X149226190Y-90464285D01*
X149226190Y-90416666D01*
X149250000Y-90345238D01*
X149273809Y-90321428D01*
X149726190Y-89845238D02*
X149726190Y-90130952D01*
X149726190Y-89988095D02*
X149226190Y-89988095D01*
X149297619Y-90035714D01*
X149345238Y-90083333D01*
X149369047Y-90130952D01*
X149226190Y-89416666D02*
X149226190Y-89511904D01*
X149250000Y-89559523D01*
X149273809Y-89583333D01*
X149345238Y-89630952D01*
X149440476Y-89654761D01*
X149630952Y-89654761D01*
X149678571Y-89630952D01*
X149702380Y-89607142D01*
X149726190Y-89559523D01*
X149726190Y-89464285D01*
X149702380Y-89416666D01*
X149678571Y-89392857D01*
X149630952Y-89369047D01*
X149511904Y-89369047D01*
X149464285Y-89392857D01*
X149440476Y-89416666D01*
X149416666Y-89464285D01*
X149416666Y-89559523D01*
X149440476Y-89607142D01*
X149464285Y-89630952D01*
X149511904Y-89654761D01*
X149678571Y-93321428D02*
X149702380Y-93345238D01*
X149726190Y-93416666D01*
X149726190Y-93464285D01*
X149702380Y-93535714D01*
X149654761Y-93583333D01*
X149607142Y-93607142D01*
X149511904Y-93630952D01*
X149440476Y-93630952D01*
X149345238Y-93607142D01*
X149297619Y-93583333D01*
X149250000Y-93535714D01*
X149226190Y-93464285D01*
X149226190Y-93416666D01*
X149250000Y-93345238D01*
X149273809Y-93321428D01*
X149726190Y-92845238D02*
X149726190Y-93130952D01*
X149726190Y-92988095D02*
X149226190Y-92988095D01*
X149297619Y-93035714D01*
X149345238Y-93083333D01*
X149369047Y-93130952D01*
X149226190Y-92392857D02*
X149226190Y-92630952D01*
X149464285Y-92654761D01*
X149440476Y-92630952D01*
X149416666Y-92583333D01*
X149416666Y-92464285D01*
X149440476Y-92416666D01*
X149464285Y-92392857D01*
X149511904Y-92369047D01*
X149630952Y-92369047D01*
X149678571Y-92392857D01*
X149702380Y-92416666D01*
X149726190Y-92464285D01*
X149726190Y-92583333D01*
X149702380Y-92630952D01*
X149678571Y-92654761D01*
X151119047Y-93226190D02*
X151119047Y-93630952D01*
X151142857Y-93678571D01*
X151166666Y-93702380D01*
X151214285Y-93726190D01*
X151309523Y-93726190D01*
X151357142Y-93702380D01*
X151380952Y-93678571D01*
X151404761Y-93630952D01*
X151404761Y-93226190D01*
X151619047Y-93273809D02*
X151642857Y-93250000D01*
X151690476Y-93226190D01*
X151809523Y-93226190D01*
X151857142Y-93250000D01*
X151880952Y-93273809D01*
X151904761Y-93321428D01*
X151904761Y-93369047D01*
X151880952Y-93440476D01*
X151595238Y-93726190D01*
X151904761Y-93726190D01*
X154678571Y-90321428D02*
X154702380Y-90345238D01*
X154726190Y-90416666D01*
X154726190Y-90464285D01*
X154702380Y-90535714D01*
X154654761Y-90583333D01*
X154607142Y-90607142D01*
X154511904Y-90630952D01*
X154440476Y-90630952D01*
X154345238Y-90607142D01*
X154297619Y-90583333D01*
X154250000Y-90535714D01*
X154226190Y-90464285D01*
X154226190Y-90416666D01*
X154250000Y-90345238D01*
X154273809Y-90321428D01*
X154726190Y-89845238D02*
X154726190Y-90130952D01*
X154726190Y-89988095D02*
X154226190Y-89988095D01*
X154297619Y-90035714D01*
X154345238Y-90083333D01*
X154369047Y-90130952D01*
X154392857Y-89416666D02*
X154726190Y-89416666D01*
X154202380Y-89535714D02*
X154559523Y-89654761D01*
X154559523Y-89345238D01*
X154678571Y-93321428D02*
X154702380Y-93345238D01*
X154726190Y-93416666D01*
X154726190Y-93464285D01*
X154702380Y-93535714D01*
X154654761Y-93583333D01*
X154607142Y-93607142D01*
X154511904Y-93630952D01*
X154440476Y-93630952D01*
X154345238Y-93607142D01*
X154297619Y-93583333D01*
X154250000Y-93535714D01*
X154226190Y-93464285D01*
X154226190Y-93416666D01*
X154250000Y-93345238D01*
X154273809Y-93321428D01*
X154726190Y-92845238D02*
X154726190Y-93130952D01*
X154726190Y-92988095D02*
X154226190Y-92988095D01*
X154297619Y-93035714D01*
X154345238Y-93083333D01*
X154369047Y-93130952D01*
X154226190Y-92678571D02*
X154226190Y-92369047D01*
X154416666Y-92535714D01*
X154416666Y-92464285D01*
X154440476Y-92416666D01*
X154464285Y-92392857D01*
X154511904Y-92369047D01*
X154630952Y-92369047D01*
X154678571Y-92392857D01*
X154702380Y-92416666D01*
X154726190Y-92464285D01*
X154726190Y-92607142D01*
X154702380Y-92654761D01*
X154678571Y-92678571D01*
X137261904Y-110988095D02*
X137261904Y-111226190D01*
X137095238Y-110726190D02*
X137261904Y-110988095D01*
X137428571Y-110726190D01*
X137857142Y-111226190D02*
X137571428Y-111226190D01*
X137714285Y-111226190D02*
X137714285Y-110726190D01*
X137666666Y-110797619D01*
X137619047Y-110845238D01*
X137571428Y-110869047D01*
X132416666Y-105726190D02*
X132250000Y-105488095D01*
X132130952Y-105726190D02*
X132130952Y-105226190D01*
X132321428Y-105226190D01*
X132369047Y-105250000D01*
X132392857Y-105273809D01*
X132416666Y-105321428D01*
X132416666Y-105392857D01*
X132392857Y-105440476D01*
X132369047Y-105464285D01*
X132321428Y-105488095D01*
X132130952Y-105488095D01*
X132607142Y-105273809D02*
X132630952Y-105250000D01*
X132678571Y-105226190D01*
X132797619Y-105226190D01*
X132845238Y-105250000D01*
X132869047Y-105273809D01*
X132892857Y-105321428D01*
X132892857Y-105369047D01*
X132869047Y-105440476D01*
X132583333Y-105726190D01*
X132892857Y-105726190D01*
X131178571Y-103678571D02*
X131154761Y-103702380D01*
X131083333Y-103726190D01*
X131035714Y-103726190D01*
X130964285Y-103702380D01*
X130916666Y-103654761D01*
X130892857Y-103607142D01*
X130869047Y-103511904D01*
X130869047Y-103440476D01*
X130892857Y-103345238D01*
X130916666Y-103297619D01*
X130964285Y-103250000D01*
X131035714Y-103226190D01*
X131083333Y-103226190D01*
X131154761Y-103250000D01*
X131178571Y-103273809D01*
X131654761Y-103726190D02*
X131369047Y-103726190D01*
X131511904Y-103726190D02*
X131511904Y-103226190D01*
X131464285Y-103297619D01*
X131416666Y-103345238D01*
X131369047Y-103369047D01*
X131845238Y-103273809D02*
X131869047Y-103250000D01*
X131916666Y-103226190D01*
X132035714Y-103226190D01*
X132083333Y-103250000D01*
X132107142Y-103273809D01*
X132130952Y-103321428D01*
X132130952Y-103369047D01*
X132107142Y-103440476D01*
X131821428Y-103726190D01*
X132130952Y-103726190D01*
X138916666Y-102726190D02*
X138750000Y-102488095D01*
X138630952Y-102726190D02*
X138630952Y-102226190D01*
X138821428Y-102226190D01*
X138869047Y-102250000D01*
X138892857Y-102273809D01*
X138916666Y-102321428D01*
X138916666Y-102392857D01*
X138892857Y-102440476D01*
X138869047Y-102464285D01*
X138821428Y-102488095D01*
X138630952Y-102488095D01*
X139392857Y-102726190D02*
X139107142Y-102726190D01*
X139250000Y-102726190D02*
X139250000Y-102226190D01*
X139202380Y-102297619D01*
X139154761Y-102345238D01*
X139107142Y-102369047D01*
X150928571Y-110678571D02*
X150904761Y-110702380D01*
X150833333Y-110726190D01*
X150785714Y-110726190D01*
X150714285Y-110702380D01*
X150666666Y-110654761D01*
X150642857Y-110607142D01*
X150619047Y-110511904D01*
X150619047Y-110440476D01*
X150642857Y-110345238D01*
X150666666Y-110297619D01*
X150714285Y-110250000D01*
X150785714Y-110226190D01*
X150833333Y-110226190D01*
X150904761Y-110250000D01*
X150928571Y-110273809D01*
X151404761Y-110726190D02*
X151119047Y-110726190D01*
X151261904Y-110726190D02*
X151261904Y-110226190D01*
X151214285Y-110297619D01*
X151166666Y-110345238D01*
X151119047Y-110369047D01*
X151880952Y-110726190D02*
X151595238Y-110726190D01*
X151738095Y-110726190D02*
X151738095Y-110226190D01*
X151690476Y-110297619D01*
X151642857Y-110345238D01*
X151595238Y-110369047D01*
X149916666Y-113178571D02*
X149892857Y-113202380D01*
X149821428Y-113226190D01*
X149773809Y-113226190D01*
X149702380Y-113202380D01*
X149654761Y-113154761D01*
X149630952Y-113107142D01*
X149607142Y-113011904D01*
X149607142Y-112940476D01*
X149630952Y-112845238D01*
X149654761Y-112797619D01*
X149702380Y-112750000D01*
X149773809Y-112726190D01*
X149821428Y-112726190D01*
X149892857Y-112750000D01*
X149916666Y-112773809D01*
X150154761Y-113226190D02*
X150250000Y-113226190D01*
X150297619Y-113202380D01*
X150321428Y-113178571D01*
X150369047Y-113107142D01*
X150392857Y-113011904D01*
X150392857Y-112821428D01*
X150369047Y-112773809D01*
X150345238Y-112750000D01*
X150297619Y-112726190D01*
X150202380Y-112726190D01*
X150154761Y-112750000D01*
X150130952Y-112773809D01*
X150107142Y-112821428D01*
X150107142Y-112940476D01*
X150130952Y-112988095D01*
X150154761Y-113011904D01*
X150202380Y-113035714D01*
X150297619Y-113035714D01*
X150345238Y-113011904D01*
X150369047Y-112988095D01*
X150392857Y-112940476D01*
X147916666Y-103678571D02*
X147892857Y-103702380D01*
X147821428Y-103726190D01*
X147773809Y-103726190D01*
X147702380Y-103702380D01*
X147654761Y-103654761D01*
X147630952Y-103607142D01*
X147607142Y-103511904D01*
X147607142Y-103440476D01*
X147630952Y-103345238D01*
X147654761Y-103297619D01*
X147702380Y-103250000D01*
X147773809Y-103226190D01*
X147821428Y-103226190D01*
X147892857Y-103250000D01*
X147916666Y-103273809D01*
X148369047Y-103226190D02*
X148130952Y-103226190D01*
X148107142Y-103464285D01*
X148130952Y-103440476D01*
X148178571Y-103416666D01*
X148297619Y-103416666D01*
X148345238Y-103440476D01*
X148369047Y-103464285D01*
X148392857Y-103511904D01*
X148392857Y-103630952D01*
X148369047Y-103678571D01*
X148345238Y-103702380D01*
X148297619Y-103726190D01*
X148178571Y-103726190D01*
X148130952Y-103702380D01*
X148107142Y-103678571D01*
X134666666Y-114678571D02*
X134642857Y-114702380D01*
X134571428Y-114726190D01*
X134523809Y-114726190D01*
X134452380Y-114702380D01*
X134404761Y-114654761D01*
X134380952Y-114607142D01*
X134357142Y-114511904D01*
X134357142Y-114440476D01*
X134380952Y-114345238D01*
X134404761Y-114297619D01*
X134452380Y-114250000D01*
X134523809Y-114226190D01*
X134571428Y-114226190D01*
X134642857Y-114250000D01*
X134666666Y-114273809D01*
X135142857Y-114726190D02*
X134857142Y-114726190D01*
X135000000Y-114726190D02*
X135000000Y-114226190D01*
X134952380Y-114297619D01*
X134904761Y-114345238D01*
X134857142Y-114369047D01*
X141916666Y-112678571D02*
X141892857Y-112702380D01*
X141821428Y-112726190D01*
X141773809Y-112726190D01*
X141702380Y-112702380D01*
X141654761Y-112654761D01*
X141630952Y-112607142D01*
X141607142Y-112511904D01*
X141607142Y-112440476D01*
X141630952Y-112345238D01*
X141654761Y-112297619D01*
X141702380Y-112250000D01*
X141773809Y-112226190D01*
X141821428Y-112226190D01*
X141892857Y-112250000D01*
X141916666Y-112273809D01*
X142202380Y-112440476D02*
X142154761Y-112416666D01*
X142130952Y-112392857D01*
X142107142Y-112345238D01*
X142107142Y-112321428D01*
X142130952Y-112273809D01*
X142154761Y-112250000D01*
X142202380Y-112226190D01*
X142297619Y-112226190D01*
X142345238Y-112250000D01*
X142369047Y-112273809D01*
X142392857Y-112321428D01*
X142392857Y-112345238D01*
X142369047Y-112392857D01*
X142345238Y-112416666D01*
X142297619Y-112440476D01*
X142202380Y-112440476D01*
X142154761Y-112464285D01*
X142130952Y-112488095D01*
X142107142Y-112535714D01*
X142107142Y-112630952D01*
X142130952Y-112678571D01*
X142154761Y-112702380D01*
X142202380Y-112726190D01*
X142297619Y-112726190D01*
X142345238Y-112702380D01*
X142369047Y-112678571D01*
X142392857Y-112630952D01*
X142392857Y-112535714D01*
X142369047Y-112488095D01*
X142345238Y-112464285D01*
X142297619Y-112440476D01*
X139166666Y-105443571D02*
X139142857Y-105467380D01*
X139071428Y-105491190D01*
X139023809Y-105491190D01*
X138952380Y-105467380D01*
X138904761Y-105419761D01*
X138880952Y-105372142D01*
X138857142Y-105276904D01*
X138857142Y-105205476D01*
X138880952Y-105110238D01*
X138904761Y-105062619D01*
X138952380Y-105015000D01*
X139023809Y-104991190D01*
X139071428Y-104991190D01*
X139142857Y-105015000D01*
X139166666Y-105038809D01*
X139333333Y-104991190D02*
X139642857Y-104991190D01*
X139476190Y-105181666D01*
X139547619Y-105181666D01*
X139595238Y-105205476D01*
X139619047Y-105229285D01*
X139642857Y-105276904D01*
X139642857Y-105395952D01*
X139619047Y-105443571D01*
X139595238Y-105467380D01*
X139547619Y-105491190D01*
X139404761Y-105491190D01*
X139357142Y-105467380D01*
X139333333Y-105443571D01*
X150916666Y-109678571D02*
X150892857Y-109702380D01*
X150821428Y-109726190D01*
X150773809Y-109726190D01*
X150702380Y-109702380D01*
X150654761Y-109654761D01*
X150630952Y-109607142D01*
X150607142Y-109511904D01*
X150607142Y-109440476D01*
X150630952Y-109345238D01*
X150654761Y-109297619D01*
X150702380Y-109250000D01*
X150773809Y-109226190D01*
X150821428Y-109226190D01*
X150892857Y-109250000D01*
X150916666Y-109273809D01*
X151345238Y-109392857D02*
X151345238Y-109726190D01*
X151226190Y-109202380D02*
X151107142Y-109559523D01*
X151416666Y-109559523D01*
X135916666Y-108678571D02*
X135892857Y-108702380D01*
X135821428Y-108726190D01*
X135773809Y-108726190D01*
X135702380Y-108702380D01*
X135654761Y-108654761D01*
X135630952Y-108607142D01*
X135607142Y-108511904D01*
X135607142Y-108440476D01*
X135630952Y-108345238D01*
X135654761Y-108297619D01*
X135702380Y-108250000D01*
X135773809Y-108226190D01*
X135821428Y-108226190D01*
X135892857Y-108250000D01*
X135916666Y-108273809D01*
X136345238Y-108226190D02*
X136250000Y-108226190D01*
X136202380Y-108250000D01*
X136178571Y-108273809D01*
X136130952Y-108345238D01*
X136107142Y-108440476D01*
X136107142Y-108630952D01*
X136130952Y-108678571D01*
X136154761Y-108702380D01*
X136202380Y-108726190D01*
X136297619Y-108726190D01*
X136345238Y-108702380D01*
X136369047Y-108678571D01*
X136392857Y-108630952D01*
X136392857Y-108511904D01*
X136369047Y-108464285D01*
X136345238Y-108440476D01*
X136297619Y-108416666D01*
X136202380Y-108416666D01*
X136154761Y-108440476D01*
X136130952Y-108464285D01*
X136107142Y-108511904D01*
X135916666Y-109678571D02*
X135892857Y-109702380D01*
X135821428Y-109726190D01*
X135773809Y-109726190D01*
X135702380Y-109702380D01*
X135654761Y-109654761D01*
X135630952Y-109607142D01*
X135607142Y-109511904D01*
X135607142Y-109440476D01*
X135630952Y-109345238D01*
X135654761Y-109297619D01*
X135702380Y-109250000D01*
X135773809Y-109226190D01*
X135821428Y-109226190D01*
X135892857Y-109250000D01*
X135916666Y-109273809D01*
X136083333Y-109226190D02*
X136416666Y-109226190D01*
X136202380Y-109726190D01*
X143678571Y-114678571D02*
X143654761Y-114702380D01*
X143583333Y-114726190D01*
X143535714Y-114726190D01*
X143464285Y-114702380D01*
X143416666Y-114654761D01*
X143392857Y-114607142D01*
X143369047Y-114511904D01*
X143369047Y-114440476D01*
X143392857Y-114345238D01*
X143416666Y-114297619D01*
X143464285Y-114250000D01*
X143535714Y-114226190D01*
X143583333Y-114226190D01*
X143654761Y-114250000D01*
X143678571Y-114273809D01*
X144154761Y-114726190D02*
X143869047Y-114726190D01*
X144011904Y-114726190D02*
X144011904Y-114226190D01*
X143964285Y-114297619D01*
X143916666Y-114345238D01*
X143869047Y-114369047D01*
X144464285Y-114226190D02*
X144511904Y-114226190D01*
X144559523Y-114250000D01*
X144583333Y-114273809D01*
X144607142Y-114321428D01*
X144630952Y-114416666D01*
X144630952Y-114535714D01*
X144607142Y-114630952D01*
X144583333Y-114678571D01*
X144559523Y-114702380D01*
X144511904Y-114726190D01*
X144464285Y-114726190D01*
X144416666Y-114702380D01*
X144392857Y-114678571D01*
X144369047Y-114630952D01*
X144345238Y-114535714D01*
X144345238Y-114416666D01*
X144369047Y-114321428D01*
X144392857Y-114273809D01*
X144416666Y-114250000D01*
X144464285Y-114226190D01*
X131833333Y-95226190D02*
X131833333Y-95583333D01*
X131809523Y-95654761D01*
X131761904Y-95702380D01*
X131690476Y-95726190D01*
X131642857Y-95726190D01*
X132333333Y-95726190D02*
X132047619Y-95726190D01*
X132190476Y-95726190D02*
X132190476Y-95226190D01*
X132142857Y-95297619D01*
X132095238Y-95345238D01*
X132047619Y-95369047D01*
X137666666Y-105306190D02*
X137428571Y-105306190D01*
X137428571Y-104806190D01*
X138095238Y-105306190D02*
X137809523Y-105306190D01*
X137952380Y-105306190D02*
X137952380Y-104806190D01*
X137904761Y-104877619D01*
X137857142Y-104925238D01*
X137809523Y-104949047D01*
X146916666Y-114726190D02*
X146678571Y-114726190D01*
X146678571Y-114226190D01*
X147059523Y-114273809D02*
X147083333Y-114250000D01*
X147130952Y-114226190D01*
X147250000Y-114226190D01*
X147297619Y-114250000D01*
X147321428Y-114273809D01*
X147345238Y-114321428D01*
X147345238Y-114369047D01*
X147321428Y-114440476D01*
X147035714Y-114726190D01*
X147345238Y-114726190D01*
X145416666Y-111726190D02*
X145178571Y-111726190D01*
X145178571Y-111226190D01*
X145535714Y-111226190D02*
X145845238Y-111226190D01*
X145678571Y-111416666D01*
X145750000Y-111416666D01*
X145797619Y-111440476D01*
X145821428Y-111464285D01*
X145845238Y-111511904D01*
X145845238Y-111630952D01*
X145821428Y-111678571D01*
X145797619Y-111702380D01*
X145750000Y-111726190D01*
X145607142Y-111726190D01*
X145559523Y-111702380D01*
X145535714Y-111678571D01*
X140619047Y-102726190D02*
X140619047Y-103130952D01*
X140642857Y-103178571D01*
X140666666Y-103202380D01*
X140714285Y-103226190D01*
X140809523Y-103226190D01*
X140857142Y-103202380D01*
X140880952Y-103178571D01*
X140904761Y-103130952D01*
X140904761Y-102726190D01*
X141404761Y-103226190D02*
X141119047Y-103226190D01*
X141261904Y-103226190D02*
X141261904Y-102726190D01*
X141214285Y-102797619D01*
X141166666Y-102845238D01*
X141119047Y-102869047D01*
M02*
