G04 #@! TF.GenerationSoftware,KiCad,Pcbnew,(5.1.5)-3*
G04 #@! TF.CreationDate,2020-11-27T19:53:37+01:00*
G04 #@! TF.ProjectId,nRF52832-toyboard,6e524635-3238-4333-922d-746f79626f61,rev?*
G04 #@! TF.SameCoordinates,Original*
G04 #@! TF.FileFunction,Soldermask,Bot*
G04 #@! TF.FilePolarity,Negative*
%FSLAX46Y46*%
G04 Gerber Fmt 4.6, Leading zero omitted, Abs format (unit mm)*
G04 Created by KiCad (PCBNEW (5.1.5)-3) date 2020-11-27 19:53:37*
%MOMM*%
%LPD*%
G04 APERTURE LIST*
%ADD10C,0.100000*%
G04 APERTURE END LIST*
D10*
G36*
X154901000Y-114901000D02*
G01*
X153099000Y-114901000D01*
X153099000Y-113099000D01*
X154901000Y-113099000D01*
X154901000Y-114901000D01*
G37*
G36*
X154113512Y-110563927D02*
G01*
X154262812Y-110593624D01*
X154426784Y-110661544D01*
X154574354Y-110760147D01*
X154699853Y-110885646D01*
X154798456Y-111033216D01*
X154866376Y-111197188D01*
X154901000Y-111371259D01*
X154901000Y-111548741D01*
X154866376Y-111722812D01*
X154798456Y-111886784D01*
X154699853Y-112034354D01*
X154574354Y-112159853D01*
X154426784Y-112258456D01*
X154262812Y-112326376D01*
X154113512Y-112356073D01*
X154088742Y-112361000D01*
X153911258Y-112361000D01*
X153886488Y-112356073D01*
X153737188Y-112326376D01*
X153573216Y-112258456D01*
X153425646Y-112159853D01*
X153300147Y-112034354D01*
X153201544Y-111886784D01*
X153133624Y-111722812D01*
X153099000Y-111548741D01*
X153099000Y-111371259D01*
X153133624Y-111197188D01*
X153201544Y-111033216D01*
X153300147Y-110885646D01*
X153425646Y-110760147D01*
X153573216Y-110661544D01*
X153737188Y-110593624D01*
X153886488Y-110563927D01*
X153911258Y-110559000D01*
X154088742Y-110559000D01*
X154113512Y-110563927D01*
G37*
G36*
X154113512Y-108023927D02*
G01*
X154262812Y-108053624D01*
X154426784Y-108121544D01*
X154574354Y-108220147D01*
X154699853Y-108345646D01*
X154798456Y-108493216D01*
X154866376Y-108657188D01*
X154901000Y-108831259D01*
X154901000Y-109008741D01*
X154866376Y-109182812D01*
X154798456Y-109346784D01*
X154699853Y-109494354D01*
X154574354Y-109619853D01*
X154426784Y-109718456D01*
X154262812Y-109786376D01*
X154113512Y-109816073D01*
X154088742Y-109821000D01*
X153911258Y-109821000D01*
X153886488Y-109816073D01*
X153737188Y-109786376D01*
X153573216Y-109718456D01*
X153425646Y-109619853D01*
X153300147Y-109494354D01*
X153201544Y-109346784D01*
X153133624Y-109182812D01*
X153099000Y-109008741D01*
X153099000Y-108831259D01*
X153133624Y-108657188D01*
X153201544Y-108493216D01*
X153300147Y-108345646D01*
X153425646Y-108220147D01*
X153573216Y-108121544D01*
X153737188Y-108053624D01*
X153886488Y-108023927D01*
X153911258Y-108019000D01*
X154088742Y-108019000D01*
X154113512Y-108023927D01*
G37*
G36*
X154113512Y-105483927D02*
G01*
X154262812Y-105513624D01*
X154426784Y-105581544D01*
X154574354Y-105680147D01*
X154699853Y-105805646D01*
X154798456Y-105953216D01*
X154866376Y-106117188D01*
X154901000Y-106291259D01*
X154901000Y-106468741D01*
X154866376Y-106642812D01*
X154798456Y-106806784D01*
X154699853Y-106954354D01*
X154574354Y-107079853D01*
X154426784Y-107178456D01*
X154262812Y-107246376D01*
X154113512Y-107276073D01*
X154088742Y-107281000D01*
X153911258Y-107281000D01*
X153886488Y-107276073D01*
X153737188Y-107246376D01*
X153573216Y-107178456D01*
X153425646Y-107079853D01*
X153300147Y-106954354D01*
X153201544Y-106806784D01*
X153133624Y-106642812D01*
X153099000Y-106468741D01*
X153099000Y-106291259D01*
X153133624Y-106117188D01*
X153201544Y-105953216D01*
X153300147Y-105805646D01*
X153425646Y-105680147D01*
X153573216Y-105581544D01*
X153737188Y-105513624D01*
X153886488Y-105483927D01*
X153911258Y-105479000D01*
X154088742Y-105479000D01*
X154113512Y-105483927D01*
G37*
G36*
X154113512Y-102943927D02*
G01*
X154262812Y-102973624D01*
X154426784Y-103041544D01*
X154574354Y-103140147D01*
X154699853Y-103265646D01*
X154798456Y-103413216D01*
X154866376Y-103577188D01*
X154901000Y-103751259D01*
X154901000Y-103928741D01*
X154866376Y-104102812D01*
X154798456Y-104266784D01*
X154699853Y-104414354D01*
X154574354Y-104539853D01*
X154426784Y-104638456D01*
X154262812Y-104706376D01*
X154113512Y-104736073D01*
X154088742Y-104741000D01*
X153911258Y-104741000D01*
X153886488Y-104736073D01*
X153737188Y-104706376D01*
X153573216Y-104638456D01*
X153425646Y-104539853D01*
X153300147Y-104414354D01*
X153201544Y-104266784D01*
X153133624Y-104102812D01*
X153099000Y-103928741D01*
X153099000Y-103751259D01*
X153133624Y-103577188D01*
X153201544Y-103413216D01*
X153300147Y-103265646D01*
X153425646Y-103140147D01*
X153573216Y-103041544D01*
X153737188Y-102973624D01*
X153886488Y-102943927D01*
X153911258Y-102939000D01*
X154088742Y-102939000D01*
X154113512Y-102943927D01*
G37*
G36*
X154113512Y-100403927D02*
G01*
X154262812Y-100433624D01*
X154426784Y-100501544D01*
X154574354Y-100600147D01*
X154699853Y-100725646D01*
X154798456Y-100873216D01*
X154866376Y-101037188D01*
X154901000Y-101211259D01*
X154901000Y-101388741D01*
X154866376Y-101562812D01*
X154798456Y-101726784D01*
X154699853Y-101874354D01*
X154574354Y-101999853D01*
X154426784Y-102098456D01*
X154262812Y-102166376D01*
X154113512Y-102196073D01*
X154088742Y-102201000D01*
X153911258Y-102201000D01*
X153886488Y-102196073D01*
X153737188Y-102166376D01*
X153573216Y-102098456D01*
X153425646Y-101999853D01*
X153300147Y-101874354D01*
X153201544Y-101726784D01*
X153133624Y-101562812D01*
X153099000Y-101388741D01*
X153099000Y-101211259D01*
X153133624Y-101037188D01*
X153201544Y-100873216D01*
X153300147Y-100725646D01*
X153425646Y-100600147D01*
X153573216Y-100501544D01*
X153737188Y-100433624D01*
X153886488Y-100403927D01*
X153911258Y-100399000D01*
X154088742Y-100399000D01*
X154113512Y-100403927D01*
G37*
G36*
X154113512Y-97863927D02*
G01*
X154262812Y-97893624D01*
X154426784Y-97961544D01*
X154574354Y-98060147D01*
X154699853Y-98185646D01*
X154798456Y-98333216D01*
X154866376Y-98497188D01*
X154901000Y-98671259D01*
X154901000Y-98848741D01*
X154866376Y-99022812D01*
X154798456Y-99186784D01*
X154699853Y-99334354D01*
X154574354Y-99459853D01*
X154426784Y-99558456D01*
X154262812Y-99626376D01*
X154113512Y-99656073D01*
X154088742Y-99661000D01*
X153911258Y-99661000D01*
X153886488Y-99656073D01*
X153737188Y-99626376D01*
X153573216Y-99558456D01*
X153425646Y-99459853D01*
X153300147Y-99334354D01*
X153201544Y-99186784D01*
X153133624Y-99022812D01*
X153099000Y-98848741D01*
X153099000Y-98671259D01*
X153133624Y-98497188D01*
X153201544Y-98333216D01*
X153300147Y-98185646D01*
X153425646Y-98060147D01*
X153573216Y-97961544D01*
X153737188Y-97893624D01*
X153886488Y-97863927D01*
X153911258Y-97859000D01*
X154088742Y-97859000D01*
X154113512Y-97863927D01*
G37*
G36*
X137121000Y-86901000D02*
G01*
X135319000Y-86901000D01*
X135319000Y-85099000D01*
X137121000Y-85099000D01*
X137121000Y-86901000D01*
G37*
G36*
X138873512Y-85103927D02*
G01*
X139022812Y-85133624D01*
X139186784Y-85201544D01*
X139334354Y-85300147D01*
X139459853Y-85425646D01*
X139558456Y-85573216D01*
X139626376Y-85737188D01*
X139661000Y-85911259D01*
X139661000Y-86088741D01*
X139626376Y-86262812D01*
X139558456Y-86426784D01*
X139459853Y-86574354D01*
X139334354Y-86699853D01*
X139186784Y-86798456D01*
X139022812Y-86866376D01*
X138873512Y-86896073D01*
X138848742Y-86901000D01*
X138671258Y-86901000D01*
X138646488Y-86896073D01*
X138497188Y-86866376D01*
X138333216Y-86798456D01*
X138185646Y-86699853D01*
X138060147Y-86574354D01*
X137961544Y-86426784D01*
X137893624Y-86262812D01*
X137859000Y-86088741D01*
X137859000Y-85911259D01*
X137893624Y-85737188D01*
X137961544Y-85573216D01*
X138060147Y-85425646D01*
X138185646Y-85300147D01*
X138333216Y-85201544D01*
X138497188Y-85133624D01*
X138646488Y-85103927D01*
X138671258Y-85099000D01*
X138848742Y-85099000D01*
X138873512Y-85103927D01*
G37*
G36*
X141413512Y-85103927D02*
G01*
X141562812Y-85133624D01*
X141726784Y-85201544D01*
X141874354Y-85300147D01*
X141999853Y-85425646D01*
X142098456Y-85573216D01*
X142166376Y-85737188D01*
X142201000Y-85911259D01*
X142201000Y-86088741D01*
X142166376Y-86262812D01*
X142098456Y-86426784D01*
X141999853Y-86574354D01*
X141874354Y-86699853D01*
X141726784Y-86798456D01*
X141562812Y-86866376D01*
X141413512Y-86896073D01*
X141388742Y-86901000D01*
X141211258Y-86901000D01*
X141186488Y-86896073D01*
X141037188Y-86866376D01*
X140873216Y-86798456D01*
X140725646Y-86699853D01*
X140600147Y-86574354D01*
X140501544Y-86426784D01*
X140433624Y-86262812D01*
X140399000Y-86088741D01*
X140399000Y-85911259D01*
X140433624Y-85737188D01*
X140501544Y-85573216D01*
X140600147Y-85425646D01*
X140725646Y-85300147D01*
X140873216Y-85201544D01*
X141037188Y-85133624D01*
X141186488Y-85103927D01*
X141211258Y-85099000D01*
X141388742Y-85099000D01*
X141413512Y-85103927D01*
G37*
G36*
X143953512Y-85103927D02*
G01*
X144102812Y-85133624D01*
X144266784Y-85201544D01*
X144414354Y-85300147D01*
X144539853Y-85425646D01*
X144638456Y-85573216D01*
X144706376Y-85737188D01*
X144741000Y-85911259D01*
X144741000Y-86088741D01*
X144706376Y-86262812D01*
X144638456Y-86426784D01*
X144539853Y-86574354D01*
X144414354Y-86699853D01*
X144266784Y-86798456D01*
X144102812Y-86866376D01*
X143953512Y-86896073D01*
X143928742Y-86901000D01*
X143751258Y-86901000D01*
X143726488Y-86896073D01*
X143577188Y-86866376D01*
X143413216Y-86798456D01*
X143265646Y-86699853D01*
X143140147Y-86574354D01*
X143041544Y-86426784D01*
X142973624Y-86262812D01*
X142939000Y-86088741D01*
X142939000Y-85911259D01*
X142973624Y-85737188D01*
X143041544Y-85573216D01*
X143140147Y-85425646D01*
X143265646Y-85300147D01*
X143413216Y-85201544D01*
X143577188Y-85133624D01*
X143726488Y-85103927D01*
X143751258Y-85099000D01*
X143928742Y-85099000D01*
X143953512Y-85103927D01*
G37*
G36*
X146493512Y-85103927D02*
G01*
X146642812Y-85133624D01*
X146806784Y-85201544D01*
X146954354Y-85300147D01*
X147079853Y-85425646D01*
X147178456Y-85573216D01*
X147246376Y-85737188D01*
X147281000Y-85911259D01*
X147281000Y-86088741D01*
X147246376Y-86262812D01*
X147178456Y-86426784D01*
X147079853Y-86574354D01*
X146954354Y-86699853D01*
X146806784Y-86798456D01*
X146642812Y-86866376D01*
X146493512Y-86896073D01*
X146468742Y-86901000D01*
X146291258Y-86901000D01*
X146266488Y-86896073D01*
X146117188Y-86866376D01*
X145953216Y-86798456D01*
X145805646Y-86699853D01*
X145680147Y-86574354D01*
X145581544Y-86426784D01*
X145513624Y-86262812D01*
X145479000Y-86088741D01*
X145479000Y-85911259D01*
X145513624Y-85737188D01*
X145581544Y-85573216D01*
X145680147Y-85425646D01*
X145805646Y-85300147D01*
X145953216Y-85201544D01*
X146117188Y-85133624D01*
X146266488Y-85103927D01*
X146291258Y-85099000D01*
X146468742Y-85099000D01*
X146493512Y-85103927D01*
G37*
G36*
X149033512Y-85103927D02*
G01*
X149182812Y-85133624D01*
X149346784Y-85201544D01*
X149494354Y-85300147D01*
X149619853Y-85425646D01*
X149718456Y-85573216D01*
X149786376Y-85737188D01*
X149821000Y-85911259D01*
X149821000Y-86088741D01*
X149786376Y-86262812D01*
X149718456Y-86426784D01*
X149619853Y-86574354D01*
X149494354Y-86699853D01*
X149346784Y-86798456D01*
X149182812Y-86866376D01*
X149033512Y-86896073D01*
X149008742Y-86901000D01*
X148831258Y-86901000D01*
X148806488Y-86896073D01*
X148657188Y-86866376D01*
X148493216Y-86798456D01*
X148345646Y-86699853D01*
X148220147Y-86574354D01*
X148121544Y-86426784D01*
X148053624Y-86262812D01*
X148019000Y-86088741D01*
X148019000Y-85911259D01*
X148053624Y-85737188D01*
X148121544Y-85573216D01*
X148220147Y-85425646D01*
X148345646Y-85300147D01*
X148493216Y-85201544D01*
X148657188Y-85133624D01*
X148806488Y-85103927D01*
X148831258Y-85099000D01*
X149008742Y-85099000D01*
X149033512Y-85103927D01*
G37*
G36*
X151573512Y-85103927D02*
G01*
X151722812Y-85133624D01*
X151886784Y-85201544D01*
X152034354Y-85300147D01*
X152159853Y-85425646D01*
X152258456Y-85573216D01*
X152326376Y-85737188D01*
X152361000Y-85911259D01*
X152361000Y-86088741D01*
X152326376Y-86262812D01*
X152258456Y-86426784D01*
X152159853Y-86574354D01*
X152034354Y-86699853D01*
X151886784Y-86798456D01*
X151722812Y-86866376D01*
X151573512Y-86896073D01*
X151548742Y-86901000D01*
X151371258Y-86901000D01*
X151346488Y-86896073D01*
X151197188Y-86866376D01*
X151033216Y-86798456D01*
X150885646Y-86699853D01*
X150760147Y-86574354D01*
X150661544Y-86426784D01*
X150593624Y-86262812D01*
X150559000Y-86088741D01*
X150559000Y-85911259D01*
X150593624Y-85737188D01*
X150661544Y-85573216D01*
X150760147Y-85425646D01*
X150885646Y-85300147D01*
X151033216Y-85201544D01*
X151197188Y-85133624D01*
X151346488Y-85103927D01*
X151371258Y-85099000D01*
X151548742Y-85099000D01*
X151573512Y-85103927D01*
G37*
G36*
X154113512Y-85103927D02*
G01*
X154262812Y-85133624D01*
X154426784Y-85201544D01*
X154574354Y-85300147D01*
X154699853Y-85425646D01*
X154798456Y-85573216D01*
X154866376Y-85737188D01*
X154901000Y-85911259D01*
X154901000Y-86088741D01*
X154866376Y-86262812D01*
X154798456Y-86426784D01*
X154699853Y-86574354D01*
X154574354Y-86699853D01*
X154426784Y-86798456D01*
X154262812Y-86866376D01*
X154113512Y-86896073D01*
X154088742Y-86901000D01*
X153911258Y-86901000D01*
X153886488Y-86896073D01*
X153737188Y-86866376D01*
X153573216Y-86798456D01*
X153425646Y-86699853D01*
X153300147Y-86574354D01*
X153201544Y-86426784D01*
X153133624Y-86262812D01*
X153099000Y-86088741D01*
X153099000Y-85911259D01*
X153133624Y-85737188D01*
X153201544Y-85573216D01*
X153300147Y-85425646D01*
X153425646Y-85300147D01*
X153573216Y-85201544D01*
X153737188Y-85133624D01*
X153886488Y-85103927D01*
X153911258Y-85099000D01*
X154088742Y-85099000D01*
X154113512Y-85103927D01*
G37*
M02*
