G04 #@! TF.GenerationSoftware,KiCad,Pcbnew,(5.1.5)-3*
G04 #@! TF.CreationDate,2020-11-27T19:53:37+01:00*
G04 #@! TF.ProjectId,nRF52832-toyboard,6e524635-3238-4333-922d-746f79626f61,rev?*
G04 #@! TF.SameCoordinates,Original*
G04 #@! TF.FileFunction,Copper,L3,Inr*
G04 #@! TF.FilePolarity,Positive*
%FSLAX46Y46*%
G04 Gerber Fmt 4.6, Leading zero omitted, Abs format (unit mm)*
G04 Created by KiCad (PCBNEW (5.1.5)-3) date 2020-11-27 19:53:37*
%MOMM*%
%LPD*%
G04 APERTURE LIST*
%ADD10O,1.700000X1.700000*%
%ADD11R,1.700000X1.700000*%
%ADD12R,0.500000X0.900000*%
%ADD13C,0.600000*%
%ADD14C,0.254000*%
G04 APERTURE END LIST*
D10*
X154000000Y-98760000D03*
X154000000Y-101300000D03*
X154000000Y-103840000D03*
X154000000Y-106380000D03*
X154000000Y-108920000D03*
X154000000Y-111460000D03*
D11*
X154000000Y-114000000D03*
D10*
X154000000Y-86000000D03*
X151460000Y-86000000D03*
X148920000Y-86000000D03*
X146380000Y-86000000D03*
X143840000Y-86000000D03*
X141300000Y-86000000D03*
X138760000Y-86000000D03*
D11*
X136220000Y-86000000D03*
D12*
X130000000Y-106750000D03*
D13*
X133500000Y-114500000D03*
X133500000Y-109500000D03*
X133500000Y-85500000D03*
X133500000Y-88000000D03*
X130500000Y-93500000D03*
X130500000Y-97000000D03*
X130500000Y-99000000D03*
X130500000Y-101000000D03*
X130500000Y-103000000D03*
X154500000Y-91000000D03*
X154500000Y-92000000D03*
X149500000Y-91000000D03*
X149500000Y-92000000D03*
X130500000Y-95000000D03*
X150500000Y-110500000D03*
X151500000Y-111500000D03*
X151500000Y-112500000D03*
X150500000Y-109500000D03*
X136500000Y-108500000D03*
X136500000Y-109500000D03*
X143000000Y-111500000D03*
X143000000Y-112500000D03*
X151000000Y-104000000D03*
X151000000Y-96500000D03*
X148500000Y-106000000D03*
X145000000Y-91000000D03*
X145000000Y-92000000D03*
X145000000Y-93000000D03*
X145000000Y-94000000D03*
X148500000Y-101750000D03*
X134750000Y-111750000D03*
X140250000Y-114500000D03*
X146000000Y-105000000D03*
X133500000Y-105750000D03*
X134500000Y-106500000D03*
X135000000Y-104000000D03*
X136000000Y-105000000D03*
X134000000Y-103000000D03*
X132500000Y-103000000D03*
X131000000Y-106750000D03*
X133500000Y-112000000D03*
X136500000Y-107500000D03*
X132500000Y-106750000D03*
X139500000Y-88000000D03*
X138500000Y-88000000D03*
X135500000Y-95000000D03*
X134500000Y-95000000D03*
X146000000Y-106250000D03*
X146000000Y-107750000D03*
X142000000Y-105000000D03*
X142000000Y-106250000D03*
X143250000Y-106250000D03*
X144750000Y-106250000D03*
X144750000Y-105000000D03*
X143250000Y-105000000D03*
X146000000Y-109000000D03*
X142000000Y-109000000D03*
X142000000Y-107750000D03*
X143250000Y-107750000D03*
X144750000Y-107750000D03*
X144750000Y-109000000D03*
X143250000Y-109000000D03*
X142000000Y-114500000D03*
X149000000Y-114500000D03*
X151500000Y-114500000D03*
X154500000Y-96000000D03*
X154500000Y-94500000D03*
X135500000Y-107500000D03*
X144000000Y-88000000D03*
X143000000Y-88000000D03*
X137500000Y-103500000D03*
X145000000Y-95000000D03*
X145000000Y-96000000D03*
X148500000Y-94000000D03*
X153500000Y-94000000D03*
X141500000Y-112500000D03*
X148500000Y-113000000D03*
X149500000Y-113000000D03*
X147500000Y-101750000D03*
X140000000Y-89000000D03*
X139000000Y-89000000D03*
X138000000Y-89000000D03*
X138000000Y-90000000D03*
X143500000Y-89000000D03*
X144500000Y-89000000D03*
X142500000Y-89000000D03*
X154000000Y-89000000D03*
X153000000Y-89000000D03*
X148000000Y-89000000D03*
X149000000Y-89000000D03*
X151500000Y-106000000D03*
X148500000Y-100500000D03*
X147000000Y-99000000D03*
D14*
G36*
X144100932Y-92727271D02*
G01*
X144065000Y-92907911D01*
X144065000Y-93092089D01*
X144100932Y-93272729D01*
X144171414Y-93442889D01*
X144209574Y-93500000D01*
X144171414Y-93557111D01*
X144100932Y-93727271D01*
X144065000Y-93907911D01*
X144065000Y-94092089D01*
X144100932Y-94272729D01*
X144171414Y-94442889D01*
X144273738Y-94596028D01*
X144403972Y-94726262D01*
X144557111Y-94828586D01*
X144727271Y-94899068D01*
X144907911Y-94935000D01*
X145092089Y-94935000D01*
X145272729Y-94899068D01*
X145442889Y-94828586D01*
X145596028Y-94726262D01*
X145726262Y-94596028D01*
X145828586Y-94442889D01*
X145899068Y-94272729D01*
X145935000Y-94092089D01*
X145935000Y-93907911D01*
X145899068Y-93727271D01*
X145828586Y-93557111D01*
X145790426Y-93500000D01*
X145828586Y-93442889D01*
X145899068Y-93272729D01*
X145935000Y-93092089D01*
X145935000Y-92907911D01*
X145899068Y-92727271D01*
X145857535Y-92627000D01*
X148804710Y-92627000D01*
X148903972Y-92726262D01*
X149057111Y-92828586D01*
X149227271Y-92899068D01*
X149407911Y-92935000D01*
X149592089Y-92935000D01*
X149772729Y-92899068D01*
X149942889Y-92828586D01*
X150096028Y-92726262D01*
X150195290Y-92627000D01*
X153804710Y-92627000D01*
X153903972Y-92726262D01*
X154057111Y-92828586D01*
X154227271Y-92899068D01*
X154407911Y-92935000D01*
X154592089Y-92935000D01*
X154772729Y-92899068D01*
X154840001Y-92871203D01*
X154840001Y-93628797D01*
X154772729Y-93600932D01*
X154592089Y-93565000D01*
X154407911Y-93565000D01*
X154227271Y-93600932D01*
X154057111Y-93671414D01*
X153903972Y-93773738D01*
X153773738Y-93903972D01*
X153671414Y-94057111D01*
X153600932Y-94227271D01*
X153565000Y-94407911D01*
X153565000Y-94592089D01*
X153600932Y-94772729D01*
X153671414Y-94942889D01*
X153773738Y-95096028D01*
X153903972Y-95226262D01*
X153939498Y-95250000D01*
X153903972Y-95273738D01*
X153773738Y-95403972D01*
X153671414Y-95557111D01*
X153600932Y-95727271D01*
X153565000Y-95907911D01*
X153565000Y-96092089D01*
X153600932Y-96272729D01*
X153671414Y-96442889D01*
X153773738Y-96596028D01*
X153903972Y-96726262D01*
X154057111Y-96828586D01*
X154227271Y-96899068D01*
X154407911Y-96935000D01*
X154592089Y-96935000D01*
X154772729Y-96899068D01*
X154840001Y-96871203D01*
X154840001Y-97535276D01*
X154703411Y-97444010D01*
X154433158Y-97332068D01*
X154146260Y-97275000D01*
X153853740Y-97275000D01*
X153566842Y-97332068D01*
X153296589Y-97444010D01*
X153053368Y-97606525D01*
X152846525Y-97813368D01*
X152684010Y-98056589D01*
X152572068Y-98326842D01*
X152515000Y-98613740D01*
X152515000Y-98906260D01*
X152572068Y-99193158D01*
X152684010Y-99463411D01*
X152846525Y-99706632D01*
X153053368Y-99913475D01*
X153227760Y-100030000D01*
X153053368Y-100146525D01*
X152846525Y-100353368D01*
X152684010Y-100596589D01*
X152572068Y-100866842D01*
X152515000Y-101153740D01*
X152515000Y-101446260D01*
X152572068Y-101733158D01*
X152684010Y-102003411D01*
X152846525Y-102246632D01*
X153053368Y-102453475D01*
X153227760Y-102570000D01*
X153053368Y-102686525D01*
X152846525Y-102893368D01*
X152684010Y-103136589D01*
X152572068Y-103406842D01*
X152515000Y-103693740D01*
X152515000Y-103986260D01*
X152572068Y-104273158D01*
X152684010Y-104543411D01*
X152846525Y-104786632D01*
X153053368Y-104993475D01*
X153227760Y-105110000D01*
X153053368Y-105226525D01*
X152846525Y-105433368D01*
X152684010Y-105676589D01*
X152572068Y-105946842D01*
X152515000Y-106233740D01*
X152515000Y-106526260D01*
X152572068Y-106813158D01*
X152684010Y-107083411D01*
X152846525Y-107326632D01*
X153053368Y-107533475D01*
X153227760Y-107650000D01*
X153053368Y-107766525D01*
X152846525Y-107973368D01*
X152684010Y-108216589D01*
X152572068Y-108486842D01*
X152515000Y-108773740D01*
X152515000Y-109066260D01*
X152572068Y-109353158D01*
X152684010Y-109623411D01*
X152846525Y-109866632D01*
X153053368Y-110073475D01*
X153227760Y-110190000D01*
X153053368Y-110306525D01*
X152846525Y-110513368D01*
X152684010Y-110756589D01*
X152572068Y-111026842D01*
X152515000Y-111313740D01*
X152515000Y-111606260D01*
X152572068Y-111893158D01*
X152684010Y-112163411D01*
X152846525Y-112406632D01*
X152978380Y-112538487D01*
X152905820Y-112560498D01*
X152795506Y-112619463D01*
X152698815Y-112698815D01*
X152619463Y-112795506D01*
X152560498Y-112905820D01*
X152524188Y-113025518D01*
X152511928Y-113150000D01*
X152511928Y-114840000D01*
X152371204Y-114840000D01*
X152399068Y-114772729D01*
X152435000Y-114592089D01*
X152435000Y-114407911D01*
X152399068Y-114227271D01*
X152328586Y-114057111D01*
X152226262Y-113903972D01*
X152096028Y-113773738D01*
X151942889Y-113671414D01*
X151772729Y-113600932D01*
X151592089Y-113565000D01*
X151407911Y-113565000D01*
X151227271Y-113600932D01*
X151057111Y-113671414D01*
X150903972Y-113773738D01*
X150773738Y-113903972D01*
X150671414Y-114057111D01*
X150600932Y-114227271D01*
X150565000Y-114407911D01*
X150565000Y-114592089D01*
X150600932Y-114772729D01*
X150628796Y-114840000D01*
X149871204Y-114840000D01*
X149899068Y-114772729D01*
X149935000Y-114592089D01*
X149935000Y-114407911D01*
X149899068Y-114227271D01*
X149828586Y-114057111D01*
X149726262Y-113903972D01*
X149596028Y-113773738D01*
X149442889Y-113671414D01*
X149272729Y-113600932D01*
X149092089Y-113565000D01*
X148907911Y-113565000D01*
X148727271Y-113600932D01*
X148557111Y-113671414D01*
X148403972Y-113773738D01*
X148273738Y-113903972D01*
X148171414Y-114057111D01*
X148100932Y-114227271D01*
X148065000Y-114407911D01*
X148065000Y-114592089D01*
X148100932Y-114772729D01*
X148128796Y-114840000D01*
X142871204Y-114840000D01*
X142899068Y-114772729D01*
X142935000Y-114592089D01*
X142935000Y-114407911D01*
X142899068Y-114227271D01*
X142828586Y-114057111D01*
X142726262Y-113903972D01*
X142596028Y-113773738D01*
X142442889Y-113671414D01*
X142272729Y-113600932D01*
X142092089Y-113565000D01*
X141907911Y-113565000D01*
X141727271Y-113600932D01*
X141557111Y-113671414D01*
X141403972Y-113773738D01*
X141273738Y-113903972D01*
X141171414Y-114057111D01*
X141125000Y-114169165D01*
X141078586Y-114057111D01*
X140976262Y-113903972D01*
X140846028Y-113773738D01*
X140692889Y-113671414D01*
X140522729Y-113600932D01*
X140342089Y-113565000D01*
X140157911Y-113565000D01*
X139977271Y-113600932D01*
X139807111Y-113671414D01*
X139653972Y-113773738D01*
X139523738Y-113903972D01*
X139421414Y-114057111D01*
X139350932Y-114227271D01*
X139315000Y-114407911D01*
X139315000Y-114592089D01*
X139350932Y-114772729D01*
X139378796Y-114840000D01*
X134371204Y-114840000D01*
X134399068Y-114772729D01*
X134435000Y-114592089D01*
X134435000Y-114407911D01*
X134399068Y-114227271D01*
X134328586Y-114057111D01*
X134226262Y-113903972D01*
X134096028Y-113773738D01*
X133942889Y-113671414D01*
X133772729Y-113600932D01*
X133592089Y-113565000D01*
X133407911Y-113565000D01*
X133227271Y-113600932D01*
X133160000Y-113628796D01*
X133160000Y-112871204D01*
X133227271Y-112899068D01*
X133407911Y-112935000D01*
X133592089Y-112935000D01*
X133772729Y-112899068D01*
X133942889Y-112828586D01*
X134096028Y-112726262D01*
X134226262Y-112596028D01*
X134259274Y-112546622D01*
X134307111Y-112578586D01*
X134477271Y-112649068D01*
X134657911Y-112685000D01*
X134842089Y-112685000D01*
X135022729Y-112649068D01*
X135192889Y-112578586D01*
X135346028Y-112476262D01*
X135476262Y-112346028D01*
X135578586Y-112192889D01*
X135649068Y-112022729D01*
X135685000Y-111842089D01*
X135685000Y-111657911D01*
X135649068Y-111477271D01*
X135620339Y-111407911D01*
X142065000Y-111407911D01*
X142065000Y-111592089D01*
X142100932Y-111772729D01*
X142171414Y-111942889D01*
X142209574Y-112000000D01*
X142171414Y-112057111D01*
X142100932Y-112227271D01*
X142065000Y-112407911D01*
X142065000Y-112592089D01*
X142100932Y-112772729D01*
X142171414Y-112942889D01*
X142273738Y-113096028D01*
X142403972Y-113226262D01*
X142557111Y-113328586D01*
X142727271Y-113399068D01*
X142907911Y-113435000D01*
X143092089Y-113435000D01*
X143272729Y-113399068D01*
X143442889Y-113328586D01*
X143596028Y-113226262D01*
X143726262Y-113096028D01*
X143828586Y-112942889D01*
X143899068Y-112772729D01*
X143935000Y-112592089D01*
X143935000Y-112407911D01*
X143899068Y-112227271D01*
X143828586Y-112057111D01*
X143790426Y-112000000D01*
X143828586Y-111942889D01*
X143899068Y-111772729D01*
X143935000Y-111592089D01*
X143935000Y-111407911D01*
X143899068Y-111227271D01*
X143828586Y-111057111D01*
X143726262Y-110903972D01*
X143596028Y-110773738D01*
X143442889Y-110671414D01*
X143272729Y-110600932D01*
X143092089Y-110565000D01*
X142907911Y-110565000D01*
X142727271Y-110600932D01*
X142557111Y-110671414D01*
X142403972Y-110773738D01*
X142273738Y-110903972D01*
X142171414Y-111057111D01*
X142100932Y-111227271D01*
X142065000Y-111407911D01*
X135620339Y-111407911D01*
X135578586Y-111307111D01*
X135476262Y-111153972D01*
X135346028Y-111023738D01*
X135192889Y-110921414D01*
X135022729Y-110850932D01*
X134842089Y-110815000D01*
X134657911Y-110815000D01*
X134477271Y-110850932D01*
X134307111Y-110921414D01*
X134153972Y-111023738D01*
X134023738Y-111153972D01*
X133990726Y-111203378D01*
X133942889Y-111171414D01*
X133772729Y-111100932D01*
X133592089Y-111065000D01*
X133407911Y-111065000D01*
X133227271Y-111100932D01*
X133160000Y-111128796D01*
X133160000Y-110371204D01*
X133227271Y-110399068D01*
X133407911Y-110435000D01*
X133592089Y-110435000D01*
X133772729Y-110399068D01*
X133942889Y-110328586D01*
X134096028Y-110226262D01*
X134226262Y-110096028D01*
X134328586Y-109942889D01*
X134399068Y-109772729D01*
X134435000Y-109592089D01*
X134435000Y-109407911D01*
X134399068Y-109227271D01*
X134328586Y-109057111D01*
X134226262Y-108903972D01*
X134096028Y-108773738D01*
X133942889Y-108671414D01*
X133772729Y-108600932D01*
X133592089Y-108565000D01*
X133407911Y-108565000D01*
X133227271Y-108600932D01*
X133160000Y-108628796D01*
X133160000Y-107967581D01*
X133157251Y-107939671D01*
X133157272Y-107936693D01*
X133156373Y-107927522D01*
X133151311Y-107879360D01*
X133150450Y-107870617D01*
X133150362Y-107870325D01*
X133146173Y-107830473D01*
X133134140Y-107771854D01*
X133122936Y-107713116D01*
X133120272Y-107704294D01*
X133091416Y-107611075D01*
X133068238Y-107555937D01*
X133048798Y-107507820D01*
X133096028Y-107476262D01*
X133226262Y-107346028D01*
X133328586Y-107192889D01*
X133399068Y-107022729D01*
X133435000Y-106842089D01*
X133435000Y-106685000D01*
X133583481Y-106685000D01*
X133600932Y-106772729D01*
X133671414Y-106942889D01*
X133773738Y-107096028D01*
X133903972Y-107226262D01*
X134057111Y-107328586D01*
X134227271Y-107399068D01*
X134407911Y-107435000D01*
X134565000Y-107435000D01*
X134565000Y-107592089D01*
X134600932Y-107772729D01*
X134671414Y-107942889D01*
X134773738Y-108096028D01*
X134903972Y-108226262D01*
X135057111Y-108328586D01*
X135227271Y-108399068D01*
X135407911Y-108435000D01*
X135565000Y-108435000D01*
X135565000Y-108592089D01*
X135600932Y-108772729D01*
X135671414Y-108942889D01*
X135709574Y-109000000D01*
X135671414Y-109057111D01*
X135600932Y-109227271D01*
X135565000Y-109407911D01*
X135565000Y-109592089D01*
X135600932Y-109772729D01*
X135671414Y-109942889D01*
X135773738Y-110096028D01*
X135903972Y-110226262D01*
X136057111Y-110328586D01*
X136227271Y-110399068D01*
X136407911Y-110435000D01*
X136592089Y-110435000D01*
X136772729Y-110399068D01*
X136942889Y-110328586D01*
X137096028Y-110226262D01*
X137226262Y-110096028D01*
X137328586Y-109942889D01*
X137399068Y-109772729D01*
X137435000Y-109592089D01*
X137435000Y-109407911D01*
X137399068Y-109227271D01*
X137328586Y-109057111D01*
X137290426Y-109000000D01*
X137328586Y-108942889D01*
X137399068Y-108772729D01*
X137435000Y-108592089D01*
X137435000Y-108407911D01*
X137399068Y-108227271D01*
X137328586Y-108057111D01*
X137290426Y-108000000D01*
X137328586Y-107942889D01*
X137399068Y-107772729D01*
X137435000Y-107592089D01*
X137435000Y-107407911D01*
X137399068Y-107227271D01*
X137328586Y-107057111D01*
X137226262Y-106903972D01*
X137096028Y-106773738D01*
X136942889Y-106671414D01*
X136772729Y-106600932D01*
X136592089Y-106565000D01*
X136407911Y-106565000D01*
X136227271Y-106600932D01*
X136057111Y-106671414D01*
X136000000Y-106709574D01*
X135942889Y-106671414D01*
X135772729Y-106600932D01*
X135592089Y-106565000D01*
X135435000Y-106565000D01*
X135435000Y-106407911D01*
X135399068Y-106227271D01*
X135328586Y-106057111D01*
X135226262Y-105903972D01*
X135096028Y-105773738D01*
X134942889Y-105671414D01*
X134772729Y-105600932D01*
X134592089Y-105565000D01*
X134416519Y-105565000D01*
X134399068Y-105477271D01*
X134328586Y-105307111D01*
X134226262Y-105153972D01*
X134096028Y-105023738D01*
X133942889Y-104921414D01*
X133772729Y-104850932D01*
X133592089Y-104815000D01*
X133407911Y-104815000D01*
X133227271Y-104850932D01*
X133057111Y-104921414D01*
X132903972Y-105023738D01*
X132773738Y-105153972D01*
X132671414Y-105307111D01*
X132627000Y-105414337D01*
X132627000Y-103928056D01*
X132772729Y-103899068D01*
X132942889Y-103828586D01*
X133096028Y-103726262D01*
X133226262Y-103596028D01*
X133250000Y-103560502D01*
X133273738Y-103596028D01*
X133403972Y-103726262D01*
X133557111Y-103828586D01*
X133727271Y-103899068D01*
X133907911Y-103935000D01*
X134065000Y-103935000D01*
X134065000Y-104092089D01*
X134100932Y-104272729D01*
X134171414Y-104442889D01*
X134273738Y-104596028D01*
X134403972Y-104726262D01*
X134557111Y-104828586D01*
X134727271Y-104899068D01*
X134907911Y-104935000D01*
X135065000Y-104935000D01*
X135065000Y-105092089D01*
X135100932Y-105272729D01*
X135171414Y-105442889D01*
X135273738Y-105596028D01*
X135403972Y-105726262D01*
X135557111Y-105828586D01*
X135727271Y-105899068D01*
X135907911Y-105935000D01*
X136092089Y-105935000D01*
X136272729Y-105899068D01*
X136442889Y-105828586D01*
X136596028Y-105726262D01*
X136726262Y-105596028D01*
X136828586Y-105442889D01*
X136899068Y-105272729D01*
X136935000Y-105092089D01*
X136935000Y-104907911D01*
X141065000Y-104907911D01*
X141065000Y-105092089D01*
X141100932Y-105272729D01*
X141171414Y-105442889D01*
X141273738Y-105596028D01*
X141302710Y-105625000D01*
X141273738Y-105653972D01*
X141171414Y-105807111D01*
X141100932Y-105977271D01*
X141065000Y-106157911D01*
X141065000Y-106342089D01*
X141100932Y-106522729D01*
X141171414Y-106692889D01*
X141273738Y-106846028D01*
X141403972Y-106976262D01*
X141439498Y-107000000D01*
X141403972Y-107023738D01*
X141273738Y-107153972D01*
X141171414Y-107307111D01*
X141100932Y-107477271D01*
X141065000Y-107657911D01*
X141065000Y-107842089D01*
X141100932Y-108022729D01*
X141171414Y-108192889D01*
X141273738Y-108346028D01*
X141302710Y-108375000D01*
X141273738Y-108403972D01*
X141171414Y-108557111D01*
X141100932Y-108727271D01*
X141065000Y-108907911D01*
X141065000Y-109092089D01*
X141100932Y-109272729D01*
X141171414Y-109442889D01*
X141273738Y-109596028D01*
X141403972Y-109726262D01*
X141557111Y-109828586D01*
X141727271Y-109899068D01*
X141907911Y-109935000D01*
X142092089Y-109935000D01*
X142272729Y-109899068D01*
X142442889Y-109828586D01*
X142596028Y-109726262D01*
X142625000Y-109697290D01*
X142653972Y-109726262D01*
X142807111Y-109828586D01*
X142977271Y-109899068D01*
X143157911Y-109935000D01*
X143342089Y-109935000D01*
X143522729Y-109899068D01*
X143692889Y-109828586D01*
X143846028Y-109726262D01*
X143976262Y-109596028D01*
X144000000Y-109560502D01*
X144023738Y-109596028D01*
X144153972Y-109726262D01*
X144307111Y-109828586D01*
X144477271Y-109899068D01*
X144657911Y-109935000D01*
X144842089Y-109935000D01*
X145022729Y-109899068D01*
X145192889Y-109828586D01*
X145346028Y-109726262D01*
X145375000Y-109697290D01*
X145403972Y-109726262D01*
X145557111Y-109828586D01*
X145727271Y-109899068D01*
X145907911Y-109935000D01*
X146092089Y-109935000D01*
X146272729Y-109899068D01*
X146442889Y-109828586D01*
X146596028Y-109726262D01*
X146726262Y-109596028D01*
X146828586Y-109442889D01*
X146843074Y-109407911D01*
X149565000Y-109407911D01*
X149565000Y-109592089D01*
X149600932Y-109772729D01*
X149671414Y-109942889D01*
X149709574Y-110000000D01*
X149671414Y-110057111D01*
X149600932Y-110227271D01*
X149565000Y-110407911D01*
X149565000Y-110592089D01*
X149600932Y-110772729D01*
X149671414Y-110942889D01*
X149773738Y-111096028D01*
X149903972Y-111226262D01*
X150057111Y-111328586D01*
X150227271Y-111399068D01*
X150407911Y-111435000D01*
X150565000Y-111435000D01*
X150565000Y-111592089D01*
X150600932Y-111772729D01*
X150671414Y-111942889D01*
X150709574Y-112000000D01*
X150671414Y-112057111D01*
X150600932Y-112227271D01*
X150565000Y-112407911D01*
X150565000Y-112592089D01*
X150600932Y-112772729D01*
X150671414Y-112942889D01*
X150773738Y-113096028D01*
X150903972Y-113226262D01*
X151057111Y-113328586D01*
X151227271Y-113399068D01*
X151407911Y-113435000D01*
X151592089Y-113435000D01*
X151772729Y-113399068D01*
X151942889Y-113328586D01*
X152096028Y-113226262D01*
X152226262Y-113096028D01*
X152328586Y-112942889D01*
X152399068Y-112772729D01*
X152435000Y-112592089D01*
X152435000Y-112407911D01*
X152399068Y-112227271D01*
X152328586Y-112057111D01*
X152290426Y-112000000D01*
X152328586Y-111942889D01*
X152399068Y-111772729D01*
X152435000Y-111592089D01*
X152435000Y-111407911D01*
X152399068Y-111227271D01*
X152328586Y-111057111D01*
X152226262Y-110903972D01*
X152096028Y-110773738D01*
X151942889Y-110671414D01*
X151772729Y-110600932D01*
X151592089Y-110565000D01*
X151435000Y-110565000D01*
X151435000Y-110407911D01*
X151399068Y-110227271D01*
X151328586Y-110057111D01*
X151290426Y-110000000D01*
X151328586Y-109942889D01*
X151399068Y-109772729D01*
X151435000Y-109592089D01*
X151435000Y-109407911D01*
X151399068Y-109227271D01*
X151328586Y-109057111D01*
X151226262Y-108903972D01*
X151096028Y-108773738D01*
X150942889Y-108671414D01*
X150772729Y-108600932D01*
X150592089Y-108565000D01*
X150407911Y-108565000D01*
X150227271Y-108600932D01*
X150057111Y-108671414D01*
X149903972Y-108773738D01*
X149773738Y-108903972D01*
X149671414Y-109057111D01*
X149600932Y-109227271D01*
X149565000Y-109407911D01*
X146843074Y-109407911D01*
X146899068Y-109272729D01*
X146935000Y-109092089D01*
X146935000Y-108907911D01*
X146899068Y-108727271D01*
X146828586Y-108557111D01*
X146726262Y-108403972D01*
X146697290Y-108375000D01*
X146726262Y-108346028D01*
X146828586Y-108192889D01*
X146899068Y-108022729D01*
X146935000Y-107842089D01*
X146935000Y-107657911D01*
X146899068Y-107477271D01*
X146828586Y-107307111D01*
X146726262Y-107153972D01*
X146596028Y-107023738D01*
X146560502Y-107000000D01*
X146596028Y-106976262D01*
X146726262Y-106846028D01*
X146828586Y-106692889D01*
X146899068Y-106522729D01*
X146935000Y-106342089D01*
X146935000Y-106157911D01*
X146899068Y-105977271D01*
X146870339Y-105907911D01*
X147565000Y-105907911D01*
X147565000Y-106092089D01*
X147600932Y-106272729D01*
X147671414Y-106442889D01*
X147773738Y-106596028D01*
X147903972Y-106726262D01*
X148057111Y-106828586D01*
X148227271Y-106899068D01*
X148407911Y-106935000D01*
X148592089Y-106935000D01*
X148772729Y-106899068D01*
X148942889Y-106828586D01*
X149096028Y-106726262D01*
X149226262Y-106596028D01*
X149328586Y-106442889D01*
X149399068Y-106272729D01*
X149435000Y-106092089D01*
X149435000Y-105907911D01*
X150565000Y-105907911D01*
X150565000Y-106092089D01*
X150600932Y-106272729D01*
X150671414Y-106442889D01*
X150773738Y-106596028D01*
X150903972Y-106726262D01*
X151057111Y-106828586D01*
X151227271Y-106899068D01*
X151407911Y-106935000D01*
X151592089Y-106935000D01*
X151772729Y-106899068D01*
X151942889Y-106828586D01*
X152096028Y-106726262D01*
X152226262Y-106596028D01*
X152328586Y-106442889D01*
X152399068Y-106272729D01*
X152435000Y-106092089D01*
X152435000Y-105907911D01*
X152399068Y-105727271D01*
X152328586Y-105557111D01*
X152226262Y-105403972D01*
X152096028Y-105273738D01*
X151942889Y-105171414D01*
X151772729Y-105100932D01*
X151592089Y-105065000D01*
X151407911Y-105065000D01*
X151227271Y-105100932D01*
X151057111Y-105171414D01*
X150903972Y-105273738D01*
X150773738Y-105403972D01*
X150671414Y-105557111D01*
X150600932Y-105727271D01*
X150565000Y-105907911D01*
X149435000Y-105907911D01*
X149399068Y-105727271D01*
X149328586Y-105557111D01*
X149226262Y-105403972D01*
X149096028Y-105273738D01*
X148942889Y-105171414D01*
X148772729Y-105100932D01*
X148592089Y-105065000D01*
X148407911Y-105065000D01*
X148227271Y-105100932D01*
X148057111Y-105171414D01*
X147903972Y-105273738D01*
X147773738Y-105403972D01*
X147671414Y-105557111D01*
X147600932Y-105727271D01*
X147565000Y-105907911D01*
X146870339Y-105907911D01*
X146828586Y-105807111D01*
X146726262Y-105653972D01*
X146697290Y-105625000D01*
X146726262Y-105596028D01*
X146828586Y-105442889D01*
X146899068Y-105272729D01*
X146935000Y-105092089D01*
X146935000Y-104907911D01*
X146899068Y-104727271D01*
X146828586Y-104557111D01*
X146726262Y-104403972D01*
X146596028Y-104273738D01*
X146442889Y-104171414D01*
X146272729Y-104100932D01*
X146092089Y-104065000D01*
X145907911Y-104065000D01*
X145727271Y-104100932D01*
X145557111Y-104171414D01*
X145403972Y-104273738D01*
X145375000Y-104302710D01*
X145346028Y-104273738D01*
X145192889Y-104171414D01*
X145022729Y-104100932D01*
X144842089Y-104065000D01*
X144657911Y-104065000D01*
X144477271Y-104100932D01*
X144307111Y-104171414D01*
X144153972Y-104273738D01*
X144023738Y-104403972D01*
X144000000Y-104439498D01*
X143976262Y-104403972D01*
X143846028Y-104273738D01*
X143692889Y-104171414D01*
X143522729Y-104100932D01*
X143342089Y-104065000D01*
X143157911Y-104065000D01*
X142977271Y-104100932D01*
X142807111Y-104171414D01*
X142653972Y-104273738D01*
X142625000Y-104302710D01*
X142596028Y-104273738D01*
X142442889Y-104171414D01*
X142272729Y-104100932D01*
X142092089Y-104065000D01*
X141907911Y-104065000D01*
X141727271Y-104100932D01*
X141557111Y-104171414D01*
X141403972Y-104273738D01*
X141273738Y-104403972D01*
X141171414Y-104557111D01*
X141100932Y-104727271D01*
X141065000Y-104907911D01*
X136935000Y-104907911D01*
X136899068Y-104727271D01*
X136828586Y-104557111D01*
X136726262Y-104403972D01*
X136596028Y-104273738D01*
X136442889Y-104171414D01*
X136272729Y-104100932D01*
X136092089Y-104065000D01*
X135935000Y-104065000D01*
X135935000Y-103907911D01*
X150065000Y-103907911D01*
X150065000Y-104092089D01*
X150100932Y-104272729D01*
X150171414Y-104442889D01*
X150273738Y-104596028D01*
X150403972Y-104726262D01*
X150557111Y-104828586D01*
X150727271Y-104899068D01*
X150907911Y-104935000D01*
X151092089Y-104935000D01*
X151272729Y-104899068D01*
X151442889Y-104828586D01*
X151596028Y-104726262D01*
X151726262Y-104596028D01*
X151828586Y-104442889D01*
X151899068Y-104272729D01*
X151935000Y-104092089D01*
X151935000Y-103907911D01*
X151899068Y-103727271D01*
X151828586Y-103557111D01*
X151726262Y-103403972D01*
X151596028Y-103273738D01*
X151442889Y-103171414D01*
X151272729Y-103100932D01*
X151092089Y-103065000D01*
X150907911Y-103065000D01*
X150727271Y-103100932D01*
X150557111Y-103171414D01*
X150403972Y-103273738D01*
X150273738Y-103403972D01*
X150171414Y-103557111D01*
X150100932Y-103727271D01*
X150065000Y-103907911D01*
X135935000Y-103907911D01*
X135899068Y-103727271D01*
X135828586Y-103557111D01*
X135726262Y-103403972D01*
X135596028Y-103273738D01*
X135442889Y-103171414D01*
X135272729Y-103100932D01*
X135092089Y-103065000D01*
X134935000Y-103065000D01*
X134935000Y-102907911D01*
X134899068Y-102727271D01*
X134828586Y-102557111D01*
X134726262Y-102403972D01*
X134596028Y-102273738D01*
X134442889Y-102171414D01*
X134272729Y-102100932D01*
X134092089Y-102065000D01*
X133907911Y-102065000D01*
X133727271Y-102100932D01*
X133557111Y-102171414D01*
X133403972Y-102273738D01*
X133273738Y-102403972D01*
X133250000Y-102439498D01*
X133226262Y-102403972D01*
X133096028Y-102273738D01*
X132942889Y-102171414D01*
X132772729Y-102100932D01*
X132627000Y-102071944D01*
X132627000Y-100407911D01*
X147565000Y-100407911D01*
X147565000Y-100592089D01*
X147600932Y-100772729D01*
X147671414Y-100942889D01*
X147773738Y-101096028D01*
X147802710Y-101125000D01*
X147773738Y-101153972D01*
X147671414Y-101307111D01*
X147600932Y-101477271D01*
X147565000Y-101657911D01*
X147565000Y-101842089D01*
X147600932Y-102022729D01*
X147671414Y-102192889D01*
X147773738Y-102346028D01*
X147903972Y-102476262D01*
X148057111Y-102578586D01*
X148227271Y-102649068D01*
X148407911Y-102685000D01*
X148592089Y-102685000D01*
X148772729Y-102649068D01*
X148942889Y-102578586D01*
X149096028Y-102476262D01*
X149226262Y-102346028D01*
X149328586Y-102192889D01*
X149399068Y-102022729D01*
X149435000Y-101842089D01*
X149435000Y-101657911D01*
X149399068Y-101477271D01*
X149328586Y-101307111D01*
X149226262Y-101153972D01*
X149197290Y-101125000D01*
X149226262Y-101096028D01*
X149328586Y-100942889D01*
X149399068Y-100772729D01*
X149435000Y-100592089D01*
X149435000Y-100407911D01*
X149399068Y-100227271D01*
X149328586Y-100057111D01*
X149226262Y-99903972D01*
X149096028Y-99773738D01*
X148942889Y-99671414D01*
X148772729Y-99600932D01*
X148592089Y-99565000D01*
X148407911Y-99565000D01*
X148227271Y-99600932D01*
X148057111Y-99671414D01*
X147903972Y-99773738D01*
X147773738Y-99903972D01*
X147671414Y-100057111D01*
X147600932Y-100227271D01*
X147565000Y-100407911D01*
X132627000Y-100407911D01*
X132627000Y-98907911D01*
X146065000Y-98907911D01*
X146065000Y-99092089D01*
X146100932Y-99272729D01*
X146171414Y-99442889D01*
X146273738Y-99596028D01*
X146403972Y-99726262D01*
X146557111Y-99828586D01*
X146727271Y-99899068D01*
X146907911Y-99935000D01*
X147092089Y-99935000D01*
X147272729Y-99899068D01*
X147442889Y-99828586D01*
X147596028Y-99726262D01*
X147726262Y-99596028D01*
X147828586Y-99442889D01*
X147899068Y-99272729D01*
X147935000Y-99092089D01*
X147935000Y-98907911D01*
X147899068Y-98727271D01*
X147828586Y-98557111D01*
X147726262Y-98403972D01*
X147596028Y-98273738D01*
X147442889Y-98171414D01*
X147272729Y-98100932D01*
X147092089Y-98065000D01*
X146907911Y-98065000D01*
X146727271Y-98100932D01*
X146557111Y-98171414D01*
X146403972Y-98273738D01*
X146273738Y-98403972D01*
X146171414Y-98557111D01*
X146100932Y-98727271D01*
X146065000Y-98907911D01*
X132627000Y-98907911D01*
X132627000Y-96407911D01*
X150065000Y-96407911D01*
X150065000Y-96592089D01*
X150100932Y-96772729D01*
X150171414Y-96942889D01*
X150273738Y-97096028D01*
X150403972Y-97226262D01*
X150557111Y-97328586D01*
X150727271Y-97399068D01*
X150907911Y-97435000D01*
X151092089Y-97435000D01*
X151272729Y-97399068D01*
X151442889Y-97328586D01*
X151596028Y-97226262D01*
X151726262Y-97096028D01*
X151828586Y-96942889D01*
X151899068Y-96772729D01*
X151935000Y-96592089D01*
X151935000Y-96407911D01*
X151899068Y-96227271D01*
X151828586Y-96057111D01*
X151726262Y-95903972D01*
X151596028Y-95773738D01*
X151442889Y-95671414D01*
X151272729Y-95600932D01*
X151092089Y-95565000D01*
X150907911Y-95565000D01*
X150727271Y-95600932D01*
X150557111Y-95671414D01*
X150403972Y-95773738D01*
X150273738Y-95903972D01*
X150171414Y-96057111D01*
X150100932Y-96227271D01*
X150065000Y-96407911D01*
X132627000Y-96407911D01*
X132627000Y-94907911D01*
X133565000Y-94907911D01*
X133565000Y-95092089D01*
X133600932Y-95272729D01*
X133671414Y-95442889D01*
X133773738Y-95596028D01*
X133903972Y-95726262D01*
X134057111Y-95828586D01*
X134227271Y-95899068D01*
X134407911Y-95935000D01*
X134592089Y-95935000D01*
X134772729Y-95899068D01*
X134942889Y-95828586D01*
X135000000Y-95790426D01*
X135057111Y-95828586D01*
X135227271Y-95899068D01*
X135407911Y-95935000D01*
X135592089Y-95935000D01*
X135772729Y-95899068D01*
X135942889Y-95828586D01*
X136096028Y-95726262D01*
X136226262Y-95596028D01*
X136328586Y-95442889D01*
X136399068Y-95272729D01*
X136435000Y-95092089D01*
X136435000Y-94907911D01*
X136399068Y-94727271D01*
X136328586Y-94557111D01*
X136226262Y-94403972D01*
X136096028Y-94273738D01*
X135942889Y-94171414D01*
X135772729Y-94100932D01*
X135592089Y-94065000D01*
X135407911Y-94065000D01*
X135227271Y-94100932D01*
X135057111Y-94171414D01*
X135000000Y-94209574D01*
X134942889Y-94171414D01*
X134772729Y-94100932D01*
X134592089Y-94065000D01*
X134407911Y-94065000D01*
X134227271Y-94100932D01*
X134057111Y-94171414D01*
X133903972Y-94273738D01*
X133773738Y-94403972D01*
X133671414Y-94557111D01*
X133600932Y-94727271D01*
X133565000Y-94907911D01*
X132627000Y-94907911D01*
X132627000Y-92972497D01*
X132643098Y-92961638D01*
X132693156Y-92928881D01*
X132700297Y-92923057D01*
X132775486Y-92860855D01*
X132817639Y-92818406D01*
X132860371Y-92776561D01*
X132866245Y-92769460D01*
X132927921Y-92693840D01*
X132961052Y-92643975D01*
X132972675Y-92627000D01*
X144142465Y-92627000D01*
X144100932Y-92727271D01*
G37*
X144100932Y-92727271D02*
X144065000Y-92907911D01*
X144065000Y-93092089D01*
X144100932Y-93272729D01*
X144171414Y-93442889D01*
X144209574Y-93500000D01*
X144171414Y-93557111D01*
X144100932Y-93727271D01*
X144065000Y-93907911D01*
X144065000Y-94092089D01*
X144100932Y-94272729D01*
X144171414Y-94442889D01*
X144273738Y-94596028D01*
X144403972Y-94726262D01*
X144557111Y-94828586D01*
X144727271Y-94899068D01*
X144907911Y-94935000D01*
X145092089Y-94935000D01*
X145272729Y-94899068D01*
X145442889Y-94828586D01*
X145596028Y-94726262D01*
X145726262Y-94596028D01*
X145828586Y-94442889D01*
X145899068Y-94272729D01*
X145935000Y-94092089D01*
X145935000Y-93907911D01*
X145899068Y-93727271D01*
X145828586Y-93557111D01*
X145790426Y-93500000D01*
X145828586Y-93442889D01*
X145899068Y-93272729D01*
X145935000Y-93092089D01*
X145935000Y-92907911D01*
X145899068Y-92727271D01*
X145857535Y-92627000D01*
X148804710Y-92627000D01*
X148903972Y-92726262D01*
X149057111Y-92828586D01*
X149227271Y-92899068D01*
X149407911Y-92935000D01*
X149592089Y-92935000D01*
X149772729Y-92899068D01*
X149942889Y-92828586D01*
X150096028Y-92726262D01*
X150195290Y-92627000D01*
X153804710Y-92627000D01*
X153903972Y-92726262D01*
X154057111Y-92828586D01*
X154227271Y-92899068D01*
X154407911Y-92935000D01*
X154592089Y-92935000D01*
X154772729Y-92899068D01*
X154840001Y-92871203D01*
X154840001Y-93628797D01*
X154772729Y-93600932D01*
X154592089Y-93565000D01*
X154407911Y-93565000D01*
X154227271Y-93600932D01*
X154057111Y-93671414D01*
X153903972Y-93773738D01*
X153773738Y-93903972D01*
X153671414Y-94057111D01*
X153600932Y-94227271D01*
X153565000Y-94407911D01*
X153565000Y-94592089D01*
X153600932Y-94772729D01*
X153671414Y-94942889D01*
X153773738Y-95096028D01*
X153903972Y-95226262D01*
X153939498Y-95250000D01*
X153903972Y-95273738D01*
X153773738Y-95403972D01*
X153671414Y-95557111D01*
X153600932Y-95727271D01*
X153565000Y-95907911D01*
X153565000Y-96092089D01*
X153600932Y-96272729D01*
X153671414Y-96442889D01*
X153773738Y-96596028D01*
X153903972Y-96726262D01*
X154057111Y-96828586D01*
X154227271Y-96899068D01*
X154407911Y-96935000D01*
X154592089Y-96935000D01*
X154772729Y-96899068D01*
X154840001Y-96871203D01*
X154840001Y-97535276D01*
X154703411Y-97444010D01*
X154433158Y-97332068D01*
X154146260Y-97275000D01*
X153853740Y-97275000D01*
X153566842Y-97332068D01*
X153296589Y-97444010D01*
X153053368Y-97606525D01*
X152846525Y-97813368D01*
X152684010Y-98056589D01*
X152572068Y-98326842D01*
X152515000Y-98613740D01*
X152515000Y-98906260D01*
X152572068Y-99193158D01*
X152684010Y-99463411D01*
X152846525Y-99706632D01*
X153053368Y-99913475D01*
X153227760Y-100030000D01*
X153053368Y-100146525D01*
X152846525Y-100353368D01*
X152684010Y-100596589D01*
X152572068Y-100866842D01*
X152515000Y-101153740D01*
X152515000Y-101446260D01*
X152572068Y-101733158D01*
X152684010Y-102003411D01*
X152846525Y-102246632D01*
X153053368Y-102453475D01*
X153227760Y-102570000D01*
X153053368Y-102686525D01*
X152846525Y-102893368D01*
X152684010Y-103136589D01*
X152572068Y-103406842D01*
X152515000Y-103693740D01*
X152515000Y-103986260D01*
X152572068Y-104273158D01*
X152684010Y-104543411D01*
X152846525Y-104786632D01*
X153053368Y-104993475D01*
X153227760Y-105110000D01*
X153053368Y-105226525D01*
X152846525Y-105433368D01*
X152684010Y-105676589D01*
X152572068Y-105946842D01*
X152515000Y-106233740D01*
X152515000Y-106526260D01*
X152572068Y-106813158D01*
X152684010Y-107083411D01*
X152846525Y-107326632D01*
X153053368Y-107533475D01*
X153227760Y-107650000D01*
X153053368Y-107766525D01*
X152846525Y-107973368D01*
X152684010Y-108216589D01*
X152572068Y-108486842D01*
X152515000Y-108773740D01*
X152515000Y-109066260D01*
X152572068Y-109353158D01*
X152684010Y-109623411D01*
X152846525Y-109866632D01*
X153053368Y-110073475D01*
X153227760Y-110190000D01*
X153053368Y-110306525D01*
X152846525Y-110513368D01*
X152684010Y-110756589D01*
X152572068Y-111026842D01*
X152515000Y-111313740D01*
X152515000Y-111606260D01*
X152572068Y-111893158D01*
X152684010Y-112163411D01*
X152846525Y-112406632D01*
X152978380Y-112538487D01*
X152905820Y-112560498D01*
X152795506Y-112619463D01*
X152698815Y-112698815D01*
X152619463Y-112795506D01*
X152560498Y-112905820D01*
X152524188Y-113025518D01*
X152511928Y-113150000D01*
X152511928Y-114840000D01*
X152371204Y-114840000D01*
X152399068Y-114772729D01*
X152435000Y-114592089D01*
X152435000Y-114407911D01*
X152399068Y-114227271D01*
X152328586Y-114057111D01*
X152226262Y-113903972D01*
X152096028Y-113773738D01*
X151942889Y-113671414D01*
X151772729Y-113600932D01*
X151592089Y-113565000D01*
X151407911Y-113565000D01*
X151227271Y-113600932D01*
X151057111Y-113671414D01*
X150903972Y-113773738D01*
X150773738Y-113903972D01*
X150671414Y-114057111D01*
X150600932Y-114227271D01*
X150565000Y-114407911D01*
X150565000Y-114592089D01*
X150600932Y-114772729D01*
X150628796Y-114840000D01*
X149871204Y-114840000D01*
X149899068Y-114772729D01*
X149935000Y-114592089D01*
X149935000Y-114407911D01*
X149899068Y-114227271D01*
X149828586Y-114057111D01*
X149726262Y-113903972D01*
X149596028Y-113773738D01*
X149442889Y-113671414D01*
X149272729Y-113600932D01*
X149092089Y-113565000D01*
X148907911Y-113565000D01*
X148727271Y-113600932D01*
X148557111Y-113671414D01*
X148403972Y-113773738D01*
X148273738Y-113903972D01*
X148171414Y-114057111D01*
X148100932Y-114227271D01*
X148065000Y-114407911D01*
X148065000Y-114592089D01*
X148100932Y-114772729D01*
X148128796Y-114840000D01*
X142871204Y-114840000D01*
X142899068Y-114772729D01*
X142935000Y-114592089D01*
X142935000Y-114407911D01*
X142899068Y-114227271D01*
X142828586Y-114057111D01*
X142726262Y-113903972D01*
X142596028Y-113773738D01*
X142442889Y-113671414D01*
X142272729Y-113600932D01*
X142092089Y-113565000D01*
X141907911Y-113565000D01*
X141727271Y-113600932D01*
X141557111Y-113671414D01*
X141403972Y-113773738D01*
X141273738Y-113903972D01*
X141171414Y-114057111D01*
X141125000Y-114169165D01*
X141078586Y-114057111D01*
X140976262Y-113903972D01*
X140846028Y-113773738D01*
X140692889Y-113671414D01*
X140522729Y-113600932D01*
X140342089Y-113565000D01*
X140157911Y-113565000D01*
X139977271Y-113600932D01*
X139807111Y-113671414D01*
X139653972Y-113773738D01*
X139523738Y-113903972D01*
X139421414Y-114057111D01*
X139350932Y-114227271D01*
X139315000Y-114407911D01*
X139315000Y-114592089D01*
X139350932Y-114772729D01*
X139378796Y-114840000D01*
X134371204Y-114840000D01*
X134399068Y-114772729D01*
X134435000Y-114592089D01*
X134435000Y-114407911D01*
X134399068Y-114227271D01*
X134328586Y-114057111D01*
X134226262Y-113903972D01*
X134096028Y-113773738D01*
X133942889Y-113671414D01*
X133772729Y-113600932D01*
X133592089Y-113565000D01*
X133407911Y-113565000D01*
X133227271Y-113600932D01*
X133160000Y-113628796D01*
X133160000Y-112871204D01*
X133227271Y-112899068D01*
X133407911Y-112935000D01*
X133592089Y-112935000D01*
X133772729Y-112899068D01*
X133942889Y-112828586D01*
X134096028Y-112726262D01*
X134226262Y-112596028D01*
X134259274Y-112546622D01*
X134307111Y-112578586D01*
X134477271Y-112649068D01*
X134657911Y-112685000D01*
X134842089Y-112685000D01*
X135022729Y-112649068D01*
X135192889Y-112578586D01*
X135346028Y-112476262D01*
X135476262Y-112346028D01*
X135578586Y-112192889D01*
X135649068Y-112022729D01*
X135685000Y-111842089D01*
X135685000Y-111657911D01*
X135649068Y-111477271D01*
X135620339Y-111407911D01*
X142065000Y-111407911D01*
X142065000Y-111592089D01*
X142100932Y-111772729D01*
X142171414Y-111942889D01*
X142209574Y-112000000D01*
X142171414Y-112057111D01*
X142100932Y-112227271D01*
X142065000Y-112407911D01*
X142065000Y-112592089D01*
X142100932Y-112772729D01*
X142171414Y-112942889D01*
X142273738Y-113096028D01*
X142403972Y-113226262D01*
X142557111Y-113328586D01*
X142727271Y-113399068D01*
X142907911Y-113435000D01*
X143092089Y-113435000D01*
X143272729Y-113399068D01*
X143442889Y-113328586D01*
X143596028Y-113226262D01*
X143726262Y-113096028D01*
X143828586Y-112942889D01*
X143899068Y-112772729D01*
X143935000Y-112592089D01*
X143935000Y-112407911D01*
X143899068Y-112227271D01*
X143828586Y-112057111D01*
X143790426Y-112000000D01*
X143828586Y-111942889D01*
X143899068Y-111772729D01*
X143935000Y-111592089D01*
X143935000Y-111407911D01*
X143899068Y-111227271D01*
X143828586Y-111057111D01*
X143726262Y-110903972D01*
X143596028Y-110773738D01*
X143442889Y-110671414D01*
X143272729Y-110600932D01*
X143092089Y-110565000D01*
X142907911Y-110565000D01*
X142727271Y-110600932D01*
X142557111Y-110671414D01*
X142403972Y-110773738D01*
X142273738Y-110903972D01*
X142171414Y-111057111D01*
X142100932Y-111227271D01*
X142065000Y-111407911D01*
X135620339Y-111407911D01*
X135578586Y-111307111D01*
X135476262Y-111153972D01*
X135346028Y-111023738D01*
X135192889Y-110921414D01*
X135022729Y-110850932D01*
X134842089Y-110815000D01*
X134657911Y-110815000D01*
X134477271Y-110850932D01*
X134307111Y-110921414D01*
X134153972Y-111023738D01*
X134023738Y-111153972D01*
X133990726Y-111203378D01*
X133942889Y-111171414D01*
X133772729Y-111100932D01*
X133592089Y-111065000D01*
X133407911Y-111065000D01*
X133227271Y-111100932D01*
X133160000Y-111128796D01*
X133160000Y-110371204D01*
X133227271Y-110399068D01*
X133407911Y-110435000D01*
X133592089Y-110435000D01*
X133772729Y-110399068D01*
X133942889Y-110328586D01*
X134096028Y-110226262D01*
X134226262Y-110096028D01*
X134328586Y-109942889D01*
X134399068Y-109772729D01*
X134435000Y-109592089D01*
X134435000Y-109407911D01*
X134399068Y-109227271D01*
X134328586Y-109057111D01*
X134226262Y-108903972D01*
X134096028Y-108773738D01*
X133942889Y-108671414D01*
X133772729Y-108600932D01*
X133592089Y-108565000D01*
X133407911Y-108565000D01*
X133227271Y-108600932D01*
X133160000Y-108628796D01*
X133160000Y-107967581D01*
X133157251Y-107939671D01*
X133157272Y-107936693D01*
X133156373Y-107927522D01*
X133151311Y-107879360D01*
X133150450Y-107870617D01*
X133150362Y-107870325D01*
X133146173Y-107830473D01*
X133134140Y-107771854D01*
X133122936Y-107713116D01*
X133120272Y-107704294D01*
X133091416Y-107611075D01*
X133068238Y-107555937D01*
X133048798Y-107507820D01*
X133096028Y-107476262D01*
X133226262Y-107346028D01*
X133328586Y-107192889D01*
X133399068Y-107022729D01*
X133435000Y-106842089D01*
X133435000Y-106685000D01*
X133583481Y-106685000D01*
X133600932Y-106772729D01*
X133671414Y-106942889D01*
X133773738Y-107096028D01*
X133903972Y-107226262D01*
X134057111Y-107328586D01*
X134227271Y-107399068D01*
X134407911Y-107435000D01*
X134565000Y-107435000D01*
X134565000Y-107592089D01*
X134600932Y-107772729D01*
X134671414Y-107942889D01*
X134773738Y-108096028D01*
X134903972Y-108226262D01*
X135057111Y-108328586D01*
X135227271Y-108399068D01*
X135407911Y-108435000D01*
X135565000Y-108435000D01*
X135565000Y-108592089D01*
X135600932Y-108772729D01*
X135671414Y-108942889D01*
X135709574Y-109000000D01*
X135671414Y-109057111D01*
X135600932Y-109227271D01*
X135565000Y-109407911D01*
X135565000Y-109592089D01*
X135600932Y-109772729D01*
X135671414Y-109942889D01*
X135773738Y-110096028D01*
X135903972Y-110226262D01*
X136057111Y-110328586D01*
X136227271Y-110399068D01*
X136407911Y-110435000D01*
X136592089Y-110435000D01*
X136772729Y-110399068D01*
X136942889Y-110328586D01*
X137096028Y-110226262D01*
X137226262Y-110096028D01*
X137328586Y-109942889D01*
X137399068Y-109772729D01*
X137435000Y-109592089D01*
X137435000Y-109407911D01*
X137399068Y-109227271D01*
X137328586Y-109057111D01*
X137290426Y-109000000D01*
X137328586Y-108942889D01*
X137399068Y-108772729D01*
X137435000Y-108592089D01*
X137435000Y-108407911D01*
X137399068Y-108227271D01*
X137328586Y-108057111D01*
X137290426Y-108000000D01*
X137328586Y-107942889D01*
X137399068Y-107772729D01*
X137435000Y-107592089D01*
X137435000Y-107407911D01*
X137399068Y-107227271D01*
X137328586Y-107057111D01*
X137226262Y-106903972D01*
X137096028Y-106773738D01*
X136942889Y-106671414D01*
X136772729Y-106600932D01*
X136592089Y-106565000D01*
X136407911Y-106565000D01*
X136227271Y-106600932D01*
X136057111Y-106671414D01*
X136000000Y-106709574D01*
X135942889Y-106671414D01*
X135772729Y-106600932D01*
X135592089Y-106565000D01*
X135435000Y-106565000D01*
X135435000Y-106407911D01*
X135399068Y-106227271D01*
X135328586Y-106057111D01*
X135226262Y-105903972D01*
X135096028Y-105773738D01*
X134942889Y-105671414D01*
X134772729Y-105600932D01*
X134592089Y-105565000D01*
X134416519Y-105565000D01*
X134399068Y-105477271D01*
X134328586Y-105307111D01*
X134226262Y-105153972D01*
X134096028Y-105023738D01*
X133942889Y-104921414D01*
X133772729Y-104850932D01*
X133592089Y-104815000D01*
X133407911Y-104815000D01*
X133227271Y-104850932D01*
X133057111Y-104921414D01*
X132903972Y-105023738D01*
X132773738Y-105153972D01*
X132671414Y-105307111D01*
X132627000Y-105414337D01*
X132627000Y-103928056D01*
X132772729Y-103899068D01*
X132942889Y-103828586D01*
X133096028Y-103726262D01*
X133226262Y-103596028D01*
X133250000Y-103560502D01*
X133273738Y-103596028D01*
X133403972Y-103726262D01*
X133557111Y-103828586D01*
X133727271Y-103899068D01*
X133907911Y-103935000D01*
X134065000Y-103935000D01*
X134065000Y-104092089D01*
X134100932Y-104272729D01*
X134171414Y-104442889D01*
X134273738Y-104596028D01*
X134403972Y-104726262D01*
X134557111Y-104828586D01*
X134727271Y-104899068D01*
X134907911Y-104935000D01*
X135065000Y-104935000D01*
X135065000Y-105092089D01*
X135100932Y-105272729D01*
X135171414Y-105442889D01*
X135273738Y-105596028D01*
X135403972Y-105726262D01*
X135557111Y-105828586D01*
X135727271Y-105899068D01*
X135907911Y-105935000D01*
X136092089Y-105935000D01*
X136272729Y-105899068D01*
X136442889Y-105828586D01*
X136596028Y-105726262D01*
X136726262Y-105596028D01*
X136828586Y-105442889D01*
X136899068Y-105272729D01*
X136935000Y-105092089D01*
X136935000Y-104907911D01*
X141065000Y-104907911D01*
X141065000Y-105092089D01*
X141100932Y-105272729D01*
X141171414Y-105442889D01*
X141273738Y-105596028D01*
X141302710Y-105625000D01*
X141273738Y-105653972D01*
X141171414Y-105807111D01*
X141100932Y-105977271D01*
X141065000Y-106157911D01*
X141065000Y-106342089D01*
X141100932Y-106522729D01*
X141171414Y-106692889D01*
X141273738Y-106846028D01*
X141403972Y-106976262D01*
X141439498Y-107000000D01*
X141403972Y-107023738D01*
X141273738Y-107153972D01*
X141171414Y-107307111D01*
X141100932Y-107477271D01*
X141065000Y-107657911D01*
X141065000Y-107842089D01*
X141100932Y-108022729D01*
X141171414Y-108192889D01*
X141273738Y-108346028D01*
X141302710Y-108375000D01*
X141273738Y-108403972D01*
X141171414Y-108557111D01*
X141100932Y-108727271D01*
X141065000Y-108907911D01*
X141065000Y-109092089D01*
X141100932Y-109272729D01*
X141171414Y-109442889D01*
X141273738Y-109596028D01*
X141403972Y-109726262D01*
X141557111Y-109828586D01*
X141727271Y-109899068D01*
X141907911Y-109935000D01*
X142092089Y-109935000D01*
X142272729Y-109899068D01*
X142442889Y-109828586D01*
X142596028Y-109726262D01*
X142625000Y-109697290D01*
X142653972Y-109726262D01*
X142807111Y-109828586D01*
X142977271Y-109899068D01*
X143157911Y-109935000D01*
X143342089Y-109935000D01*
X143522729Y-109899068D01*
X143692889Y-109828586D01*
X143846028Y-109726262D01*
X143976262Y-109596028D01*
X144000000Y-109560502D01*
X144023738Y-109596028D01*
X144153972Y-109726262D01*
X144307111Y-109828586D01*
X144477271Y-109899068D01*
X144657911Y-109935000D01*
X144842089Y-109935000D01*
X145022729Y-109899068D01*
X145192889Y-109828586D01*
X145346028Y-109726262D01*
X145375000Y-109697290D01*
X145403972Y-109726262D01*
X145557111Y-109828586D01*
X145727271Y-109899068D01*
X145907911Y-109935000D01*
X146092089Y-109935000D01*
X146272729Y-109899068D01*
X146442889Y-109828586D01*
X146596028Y-109726262D01*
X146726262Y-109596028D01*
X146828586Y-109442889D01*
X146843074Y-109407911D01*
X149565000Y-109407911D01*
X149565000Y-109592089D01*
X149600932Y-109772729D01*
X149671414Y-109942889D01*
X149709574Y-110000000D01*
X149671414Y-110057111D01*
X149600932Y-110227271D01*
X149565000Y-110407911D01*
X149565000Y-110592089D01*
X149600932Y-110772729D01*
X149671414Y-110942889D01*
X149773738Y-111096028D01*
X149903972Y-111226262D01*
X150057111Y-111328586D01*
X150227271Y-111399068D01*
X150407911Y-111435000D01*
X150565000Y-111435000D01*
X150565000Y-111592089D01*
X150600932Y-111772729D01*
X150671414Y-111942889D01*
X150709574Y-112000000D01*
X150671414Y-112057111D01*
X150600932Y-112227271D01*
X150565000Y-112407911D01*
X150565000Y-112592089D01*
X150600932Y-112772729D01*
X150671414Y-112942889D01*
X150773738Y-113096028D01*
X150903972Y-113226262D01*
X151057111Y-113328586D01*
X151227271Y-113399068D01*
X151407911Y-113435000D01*
X151592089Y-113435000D01*
X151772729Y-113399068D01*
X151942889Y-113328586D01*
X152096028Y-113226262D01*
X152226262Y-113096028D01*
X152328586Y-112942889D01*
X152399068Y-112772729D01*
X152435000Y-112592089D01*
X152435000Y-112407911D01*
X152399068Y-112227271D01*
X152328586Y-112057111D01*
X152290426Y-112000000D01*
X152328586Y-111942889D01*
X152399068Y-111772729D01*
X152435000Y-111592089D01*
X152435000Y-111407911D01*
X152399068Y-111227271D01*
X152328586Y-111057111D01*
X152226262Y-110903972D01*
X152096028Y-110773738D01*
X151942889Y-110671414D01*
X151772729Y-110600932D01*
X151592089Y-110565000D01*
X151435000Y-110565000D01*
X151435000Y-110407911D01*
X151399068Y-110227271D01*
X151328586Y-110057111D01*
X151290426Y-110000000D01*
X151328586Y-109942889D01*
X151399068Y-109772729D01*
X151435000Y-109592089D01*
X151435000Y-109407911D01*
X151399068Y-109227271D01*
X151328586Y-109057111D01*
X151226262Y-108903972D01*
X151096028Y-108773738D01*
X150942889Y-108671414D01*
X150772729Y-108600932D01*
X150592089Y-108565000D01*
X150407911Y-108565000D01*
X150227271Y-108600932D01*
X150057111Y-108671414D01*
X149903972Y-108773738D01*
X149773738Y-108903972D01*
X149671414Y-109057111D01*
X149600932Y-109227271D01*
X149565000Y-109407911D01*
X146843074Y-109407911D01*
X146899068Y-109272729D01*
X146935000Y-109092089D01*
X146935000Y-108907911D01*
X146899068Y-108727271D01*
X146828586Y-108557111D01*
X146726262Y-108403972D01*
X146697290Y-108375000D01*
X146726262Y-108346028D01*
X146828586Y-108192889D01*
X146899068Y-108022729D01*
X146935000Y-107842089D01*
X146935000Y-107657911D01*
X146899068Y-107477271D01*
X146828586Y-107307111D01*
X146726262Y-107153972D01*
X146596028Y-107023738D01*
X146560502Y-107000000D01*
X146596028Y-106976262D01*
X146726262Y-106846028D01*
X146828586Y-106692889D01*
X146899068Y-106522729D01*
X146935000Y-106342089D01*
X146935000Y-106157911D01*
X146899068Y-105977271D01*
X146870339Y-105907911D01*
X147565000Y-105907911D01*
X147565000Y-106092089D01*
X147600932Y-106272729D01*
X147671414Y-106442889D01*
X147773738Y-106596028D01*
X147903972Y-106726262D01*
X148057111Y-106828586D01*
X148227271Y-106899068D01*
X148407911Y-106935000D01*
X148592089Y-106935000D01*
X148772729Y-106899068D01*
X148942889Y-106828586D01*
X149096028Y-106726262D01*
X149226262Y-106596028D01*
X149328586Y-106442889D01*
X149399068Y-106272729D01*
X149435000Y-106092089D01*
X149435000Y-105907911D01*
X150565000Y-105907911D01*
X150565000Y-106092089D01*
X150600932Y-106272729D01*
X150671414Y-106442889D01*
X150773738Y-106596028D01*
X150903972Y-106726262D01*
X151057111Y-106828586D01*
X151227271Y-106899068D01*
X151407911Y-106935000D01*
X151592089Y-106935000D01*
X151772729Y-106899068D01*
X151942889Y-106828586D01*
X152096028Y-106726262D01*
X152226262Y-106596028D01*
X152328586Y-106442889D01*
X152399068Y-106272729D01*
X152435000Y-106092089D01*
X152435000Y-105907911D01*
X152399068Y-105727271D01*
X152328586Y-105557111D01*
X152226262Y-105403972D01*
X152096028Y-105273738D01*
X151942889Y-105171414D01*
X151772729Y-105100932D01*
X151592089Y-105065000D01*
X151407911Y-105065000D01*
X151227271Y-105100932D01*
X151057111Y-105171414D01*
X150903972Y-105273738D01*
X150773738Y-105403972D01*
X150671414Y-105557111D01*
X150600932Y-105727271D01*
X150565000Y-105907911D01*
X149435000Y-105907911D01*
X149399068Y-105727271D01*
X149328586Y-105557111D01*
X149226262Y-105403972D01*
X149096028Y-105273738D01*
X148942889Y-105171414D01*
X148772729Y-105100932D01*
X148592089Y-105065000D01*
X148407911Y-105065000D01*
X148227271Y-105100932D01*
X148057111Y-105171414D01*
X147903972Y-105273738D01*
X147773738Y-105403972D01*
X147671414Y-105557111D01*
X147600932Y-105727271D01*
X147565000Y-105907911D01*
X146870339Y-105907911D01*
X146828586Y-105807111D01*
X146726262Y-105653972D01*
X146697290Y-105625000D01*
X146726262Y-105596028D01*
X146828586Y-105442889D01*
X146899068Y-105272729D01*
X146935000Y-105092089D01*
X146935000Y-104907911D01*
X146899068Y-104727271D01*
X146828586Y-104557111D01*
X146726262Y-104403972D01*
X146596028Y-104273738D01*
X146442889Y-104171414D01*
X146272729Y-104100932D01*
X146092089Y-104065000D01*
X145907911Y-104065000D01*
X145727271Y-104100932D01*
X145557111Y-104171414D01*
X145403972Y-104273738D01*
X145375000Y-104302710D01*
X145346028Y-104273738D01*
X145192889Y-104171414D01*
X145022729Y-104100932D01*
X144842089Y-104065000D01*
X144657911Y-104065000D01*
X144477271Y-104100932D01*
X144307111Y-104171414D01*
X144153972Y-104273738D01*
X144023738Y-104403972D01*
X144000000Y-104439498D01*
X143976262Y-104403972D01*
X143846028Y-104273738D01*
X143692889Y-104171414D01*
X143522729Y-104100932D01*
X143342089Y-104065000D01*
X143157911Y-104065000D01*
X142977271Y-104100932D01*
X142807111Y-104171414D01*
X142653972Y-104273738D01*
X142625000Y-104302710D01*
X142596028Y-104273738D01*
X142442889Y-104171414D01*
X142272729Y-104100932D01*
X142092089Y-104065000D01*
X141907911Y-104065000D01*
X141727271Y-104100932D01*
X141557111Y-104171414D01*
X141403972Y-104273738D01*
X141273738Y-104403972D01*
X141171414Y-104557111D01*
X141100932Y-104727271D01*
X141065000Y-104907911D01*
X136935000Y-104907911D01*
X136899068Y-104727271D01*
X136828586Y-104557111D01*
X136726262Y-104403972D01*
X136596028Y-104273738D01*
X136442889Y-104171414D01*
X136272729Y-104100932D01*
X136092089Y-104065000D01*
X135935000Y-104065000D01*
X135935000Y-103907911D01*
X150065000Y-103907911D01*
X150065000Y-104092089D01*
X150100932Y-104272729D01*
X150171414Y-104442889D01*
X150273738Y-104596028D01*
X150403972Y-104726262D01*
X150557111Y-104828586D01*
X150727271Y-104899068D01*
X150907911Y-104935000D01*
X151092089Y-104935000D01*
X151272729Y-104899068D01*
X151442889Y-104828586D01*
X151596028Y-104726262D01*
X151726262Y-104596028D01*
X151828586Y-104442889D01*
X151899068Y-104272729D01*
X151935000Y-104092089D01*
X151935000Y-103907911D01*
X151899068Y-103727271D01*
X151828586Y-103557111D01*
X151726262Y-103403972D01*
X151596028Y-103273738D01*
X151442889Y-103171414D01*
X151272729Y-103100932D01*
X151092089Y-103065000D01*
X150907911Y-103065000D01*
X150727271Y-103100932D01*
X150557111Y-103171414D01*
X150403972Y-103273738D01*
X150273738Y-103403972D01*
X150171414Y-103557111D01*
X150100932Y-103727271D01*
X150065000Y-103907911D01*
X135935000Y-103907911D01*
X135899068Y-103727271D01*
X135828586Y-103557111D01*
X135726262Y-103403972D01*
X135596028Y-103273738D01*
X135442889Y-103171414D01*
X135272729Y-103100932D01*
X135092089Y-103065000D01*
X134935000Y-103065000D01*
X134935000Y-102907911D01*
X134899068Y-102727271D01*
X134828586Y-102557111D01*
X134726262Y-102403972D01*
X134596028Y-102273738D01*
X134442889Y-102171414D01*
X134272729Y-102100932D01*
X134092089Y-102065000D01*
X133907911Y-102065000D01*
X133727271Y-102100932D01*
X133557111Y-102171414D01*
X133403972Y-102273738D01*
X133273738Y-102403972D01*
X133250000Y-102439498D01*
X133226262Y-102403972D01*
X133096028Y-102273738D01*
X132942889Y-102171414D01*
X132772729Y-102100932D01*
X132627000Y-102071944D01*
X132627000Y-100407911D01*
X147565000Y-100407911D01*
X147565000Y-100592089D01*
X147600932Y-100772729D01*
X147671414Y-100942889D01*
X147773738Y-101096028D01*
X147802710Y-101125000D01*
X147773738Y-101153972D01*
X147671414Y-101307111D01*
X147600932Y-101477271D01*
X147565000Y-101657911D01*
X147565000Y-101842089D01*
X147600932Y-102022729D01*
X147671414Y-102192889D01*
X147773738Y-102346028D01*
X147903972Y-102476262D01*
X148057111Y-102578586D01*
X148227271Y-102649068D01*
X148407911Y-102685000D01*
X148592089Y-102685000D01*
X148772729Y-102649068D01*
X148942889Y-102578586D01*
X149096028Y-102476262D01*
X149226262Y-102346028D01*
X149328586Y-102192889D01*
X149399068Y-102022729D01*
X149435000Y-101842089D01*
X149435000Y-101657911D01*
X149399068Y-101477271D01*
X149328586Y-101307111D01*
X149226262Y-101153972D01*
X149197290Y-101125000D01*
X149226262Y-101096028D01*
X149328586Y-100942889D01*
X149399068Y-100772729D01*
X149435000Y-100592089D01*
X149435000Y-100407911D01*
X149399068Y-100227271D01*
X149328586Y-100057111D01*
X149226262Y-99903972D01*
X149096028Y-99773738D01*
X148942889Y-99671414D01*
X148772729Y-99600932D01*
X148592089Y-99565000D01*
X148407911Y-99565000D01*
X148227271Y-99600932D01*
X148057111Y-99671414D01*
X147903972Y-99773738D01*
X147773738Y-99903972D01*
X147671414Y-100057111D01*
X147600932Y-100227271D01*
X147565000Y-100407911D01*
X132627000Y-100407911D01*
X132627000Y-98907911D01*
X146065000Y-98907911D01*
X146065000Y-99092089D01*
X146100932Y-99272729D01*
X146171414Y-99442889D01*
X146273738Y-99596028D01*
X146403972Y-99726262D01*
X146557111Y-99828586D01*
X146727271Y-99899068D01*
X146907911Y-99935000D01*
X147092089Y-99935000D01*
X147272729Y-99899068D01*
X147442889Y-99828586D01*
X147596028Y-99726262D01*
X147726262Y-99596028D01*
X147828586Y-99442889D01*
X147899068Y-99272729D01*
X147935000Y-99092089D01*
X147935000Y-98907911D01*
X147899068Y-98727271D01*
X147828586Y-98557111D01*
X147726262Y-98403972D01*
X147596028Y-98273738D01*
X147442889Y-98171414D01*
X147272729Y-98100932D01*
X147092089Y-98065000D01*
X146907911Y-98065000D01*
X146727271Y-98100932D01*
X146557111Y-98171414D01*
X146403972Y-98273738D01*
X146273738Y-98403972D01*
X146171414Y-98557111D01*
X146100932Y-98727271D01*
X146065000Y-98907911D01*
X132627000Y-98907911D01*
X132627000Y-96407911D01*
X150065000Y-96407911D01*
X150065000Y-96592089D01*
X150100932Y-96772729D01*
X150171414Y-96942889D01*
X150273738Y-97096028D01*
X150403972Y-97226262D01*
X150557111Y-97328586D01*
X150727271Y-97399068D01*
X150907911Y-97435000D01*
X151092089Y-97435000D01*
X151272729Y-97399068D01*
X151442889Y-97328586D01*
X151596028Y-97226262D01*
X151726262Y-97096028D01*
X151828586Y-96942889D01*
X151899068Y-96772729D01*
X151935000Y-96592089D01*
X151935000Y-96407911D01*
X151899068Y-96227271D01*
X151828586Y-96057111D01*
X151726262Y-95903972D01*
X151596028Y-95773738D01*
X151442889Y-95671414D01*
X151272729Y-95600932D01*
X151092089Y-95565000D01*
X150907911Y-95565000D01*
X150727271Y-95600932D01*
X150557111Y-95671414D01*
X150403972Y-95773738D01*
X150273738Y-95903972D01*
X150171414Y-96057111D01*
X150100932Y-96227271D01*
X150065000Y-96407911D01*
X132627000Y-96407911D01*
X132627000Y-94907911D01*
X133565000Y-94907911D01*
X133565000Y-95092089D01*
X133600932Y-95272729D01*
X133671414Y-95442889D01*
X133773738Y-95596028D01*
X133903972Y-95726262D01*
X134057111Y-95828586D01*
X134227271Y-95899068D01*
X134407911Y-95935000D01*
X134592089Y-95935000D01*
X134772729Y-95899068D01*
X134942889Y-95828586D01*
X135000000Y-95790426D01*
X135057111Y-95828586D01*
X135227271Y-95899068D01*
X135407911Y-95935000D01*
X135592089Y-95935000D01*
X135772729Y-95899068D01*
X135942889Y-95828586D01*
X136096028Y-95726262D01*
X136226262Y-95596028D01*
X136328586Y-95442889D01*
X136399068Y-95272729D01*
X136435000Y-95092089D01*
X136435000Y-94907911D01*
X136399068Y-94727271D01*
X136328586Y-94557111D01*
X136226262Y-94403972D01*
X136096028Y-94273738D01*
X135942889Y-94171414D01*
X135772729Y-94100932D01*
X135592089Y-94065000D01*
X135407911Y-94065000D01*
X135227271Y-94100932D01*
X135057111Y-94171414D01*
X135000000Y-94209574D01*
X134942889Y-94171414D01*
X134772729Y-94100932D01*
X134592089Y-94065000D01*
X134407911Y-94065000D01*
X134227271Y-94100932D01*
X134057111Y-94171414D01*
X133903972Y-94273738D01*
X133773738Y-94403972D01*
X133671414Y-94557111D01*
X133600932Y-94727271D01*
X133565000Y-94907911D01*
X132627000Y-94907911D01*
X132627000Y-92972497D01*
X132643098Y-92961638D01*
X132693156Y-92928881D01*
X132700297Y-92923057D01*
X132775486Y-92860855D01*
X132817639Y-92818406D01*
X132860371Y-92776561D01*
X132866245Y-92769460D01*
X132927921Y-92693840D01*
X132961052Y-92643975D01*
X132972675Y-92627000D01*
X144142465Y-92627000D01*
X144100932Y-92727271D01*
G36*
X134731928Y-86850000D02*
G01*
X134744188Y-86974482D01*
X134780498Y-87094180D01*
X134839463Y-87204494D01*
X134918815Y-87301185D01*
X135015506Y-87380537D01*
X135125820Y-87439502D01*
X135245518Y-87475812D01*
X135370000Y-87488072D01*
X137070000Y-87488072D01*
X137194482Y-87475812D01*
X137314180Y-87439502D01*
X137424494Y-87380537D01*
X137521185Y-87301185D01*
X137600537Y-87204494D01*
X137659502Y-87094180D01*
X137681513Y-87021620D01*
X137813368Y-87153475D01*
X137948663Y-87243876D01*
X137903972Y-87273738D01*
X137773738Y-87403972D01*
X137671414Y-87557111D01*
X137600932Y-87727271D01*
X137565000Y-87907911D01*
X137565000Y-88092089D01*
X137600932Y-88272729D01*
X137671414Y-88442889D01*
X137773738Y-88596028D01*
X137903972Y-88726262D01*
X138057111Y-88828586D01*
X138227271Y-88899068D01*
X138407911Y-88935000D01*
X138592089Y-88935000D01*
X138772729Y-88899068D01*
X138942889Y-88828586D01*
X139000000Y-88790426D01*
X139057111Y-88828586D01*
X139227271Y-88899068D01*
X139407911Y-88935000D01*
X139592089Y-88935000D01*
X139772729Y-88899068D01*
X139942889Y-88828586D01*
X140096028Y-88726262D01*
X140226262Y-88596028D01*
X140328586Y-88442889D01*
X140399068Y-88272729D01*
X140435000Y-88092089D01*
X140435000Y-87907911D01*
X140399068Y-87727271D01*
X140328586Y-87557111D01*
X140226262Y-87403972D01*
X140096028Y-87273738D01*
X139942889Y-87171414D01*
X139772729Y-87100932D01*
X139761424Y-87098683D01*
X139913475Y-86946632D01*
X140030000Y-86772240D01*
X140146525Y-86946632D01*
X140353368Y-87153475D01*
X140596589Y-87315990D01*
X140866842Y-87427932D01*
X141153740Y-87485000D01*
X141446260Y-87485000D01*
X141733158Y-87427932D01*
X142003411Y-87315990D01*
X142246632Y-87153475D01*
X142453475Y-86946632D01*
X142570000Y-86772240D01*
X142686525Y-86946632D01*
X142821985Y-87082092D01*
X142727271Y-87100932D01*
X142557111Y-87171414D01*
X142403972Y-87273738D01*
X142273738Y-87403972D01*
X142171414Y-87557111D01*
X142100932Y-87727271D01*
X142065000Y-87907911D01*
X142065000Y-88092089D01*
X142100932Y-88272729D01*
X142171414Y-88442889D01*
X142273738Y-88596028D01*
X142403972Y-88726262D01*
X142557111Y-88828586D01*
X142727271Y-88899068D01*
X142907911Y-88935000D01*
X143092089Y-88935000D01*
X143272729Y-88899068D01*
X143442889Y-88828586D01*
X143500000Y-88790426D01*
X143557111Y-88828586D01*
X143727271Y-88899068D01*
X143907911Y-88935000D01*
X144092089Y-88935000D01*
X144272729Y-88899068D01*
X144442889Y-88828586D01*
X144596028Y-88726262D01*
X144726262Y-88596028D01*
X144828586Y-88442889D01*
X144899068Y-88272729D01*
X144935000Y-88092089D01*
X144935000Y-87907911D01*
X144899068Y-87727271D01*
X144828586Y-87557111D01*
X144726262Y-87403972D01*
X144600281Y-87277991D01*
X144786632Y-87153475D01*
X144993475Y-86946632D01*
X145110000Y-86772240D01*
X145226525Y-86946632D01*
X145433368Y-87153475D01*
X145676589Y-87315990D01*
X145946842Y-87427932D01*
X146233740Y-87485000D01*
X146526260Y-87485000D01*
X146813158Y-87427932D01*
X147083411Y-87315990D01*
X147326632Y-87153475D01*
X147533475Y-86946632D01*
X147650000Y-86772240D01*
X147766525Y-86946632D01*
X147973368Y-87153475D01*
X148216589Y-87315990D01*
X148486842Y-87427932D01*
X148773740Y-87485000D01*
X149066260Y-87485000D01*
X149353158Y-87427932D01*
X149623411Y-87315990D01*
X149866632Y-87153475D01*
X150073475Y-86946632D01*
X150190000Y-86772240D01*
X150306525Y-86946632D01*
X150513368Y-87153475D01*
X150756589Y-87315990D01*
X151026842Y-87427932D01*
X151313740Y-87485000D01*
X151606260Y-87485000D01*
X151893158Y-87427932D01*
X152163411Y-87315990D01*
X152406632Y-87153475D01*
X152613475Y-86946632D01*
X152730000Y-86772240D01*
X152846525Y-86946632D01*
X153053368Y-87153475D01*
X153296589Y-87315990D01*
X153566842Y-87427932D01*
X153853740Y-87485000D01*
X154146260Y-87485000D01*
X154433158Y-87427932D01*
X154703411Y-87315990D01*
X154840001Y-87224724D01*
X154840001Y-90128797D01*
X154772729Y-90100932D01*
X154592089Y-90065000D01*
X154407911Y-90065000D01*
X154227271Y-90100932D01*
X154057111Y-90171414D01*
X153903972Y-90273738D01*
X153773738Y-90403972D01*
X153671414Y-90557111D01*
X153600932Y-90727271D01*
X153565000Y-90907911D01*
X153565000Y-91092089D01*
X153600932Y-91272729D01*
X153642465Y-91373000D01*
X150357535Y-91373000D01*
X150399068Y-91272729D01*
X150435000Y-91092089D01*
X150435000Y-90907911D01*
X150399068Y-90727271D01*
X150328586Y-90557111D01*
X150226262Y-90403972D01*
X150096028Y-90273738D01*
X149942889Y-90171414D01*
X149772729Y-90100932D01*
X149592089Y-90065000D01*
X149407911Y-90065000D01*
X149227271Y-90100932D01*
X149057111Y-90171414D01*
X148903972Y-90273738D01*
X148773738Y-90403972D01*
X148671414Y-90557111D01*
X148600932Y-90727271D01*
X148565000Y-90907911D01*
X148565000Y-91092089D01*
X148600932Y-91272729D01*
X148642465Y-91373000D01*
X145857535Y-91373000D01*
X145899068Y-91272729D01*
X145935000Y-91092089D01*
X145935000Y-90907911D01*
X145899068Y-90727271D01*
X145828586Y-90557111D01*
X145726262Y-90403972D01*
X145596028Y-90273738D01*
X145442889Y-90171414D01*
X145272729Y-90100932D01*
X145092089Y-90065000D01*
X144907911Y-90065000D01*
X144727271Y-90100932D01*
X144557111Y-90171414D01*
X144403972Y-90273738D01*
X144273738Y-90403972D01*
X144171414Y-90557111D01*
X144100932Y-90727271D01*
X144065000Y-90907911D01*
X144065000Y-91092089D01*
X144100932Y-91272729D01*
X144142465Y-91373000D01*
X133160000Y-91373000D01*
X133160000Y-88871204D01*
X133227271Y-88899068D01*
X133407911Y-88935000D01*
X133592089Y-88935000D01*
X133772729Y-88899068D01*
X133942889Y-88828586D01*
X134096028Y-88726262D01*
X134226262Y-88596028D01*
X134328586Y-88442889D01*
X134399068Y-88272729D01*
X134435000Y-88092089D01*
X134435000Y-87907911D01*
X134399068Y-87727271D01*
X134328586Y-87557111D01*
X134226262Y-87403972D01*
X134096028Y-87273738D01*
X133942889Y-87171414D01*
X133772729Y-87100932D01*
X133592089Y-87065000D01*
X133407911Y-87065000D01*
X133227271Y-87100932D01*
X133160000Y-87128796D01*
X133160000Y-86371204D01*
X133227271Y-86399068D01*
X133407911Y-86435000D01*
X133592089Y-86435000D01*
X133772729Y-86399068D01*
X133942889Y-86328586D01*
X134096028Y-86226262D01*
X134226262Y-86096028D01*
X134328586Y-85942889D01*
X134399068Y-85772729D01*
X134435000Y-85592089D01*
X134435000Y-85407911D01*
X134399068Y-85227271D01*
X134371204Y-85160000D01*
X134731928Y-85160000D01*
X134731928Y-86850000D01*
G37*
X134731928Y-86850000D02*
X134744188Y-86974482D01*
X134780498Y-87094180D01*
X134839463Y-87204494D01*
X134918815Y-87301185D01*
X135015506Y-87380537D01*
X135125820Y-87439502D01*
X135245518Y-87475812D01*
X135370000Y-87488072D01*
X137070000Y-87488072D01*
X137194482Y-87475812D01*
X137314180Y-87439502D01*
X137424494Y-87380537D01*
X137521185Y-87301185D01*
X137600537Y-87204494D01*
X137659502Y-87094180D01*
X137681513Y-87021620D01*
X137813368Y-87153475D01*
X137948663Y-87243876D01*
X137903972Y-87273738D01*
X137773738Y-87403972D01*
X137671414Y-87557111D01*
X137600932Y-87727271D01*
X137565000Y-87907911D01*
X137565000Y-88092089D01*
X137600932Y-88272729D01*
X137671414Y-88442889D01*
X137773738Y-88596028D01*
X137903972Y-88726262D01*
X138057111Y-88828586D01*
X138227271Y-88899068D01*
X138407911Y-88935000D01*
X138592089Y-88935000D01*
X138772729Y-88899068D01*
X138942889Y-88828586D01*
X139000000Y-88790426D01*
X139057111Y-88828586D01*
X139227271Y-88899068D01*
X139407911Y-88935000D01*
X139592089Y-88935000D01*
X139772729Y-88899068D01*
X139942889Y-88828586D01*
X140096028Y-88726262D01*
X140226262Y-88596028D01*
X140328586Y-88442889D01*
X140399068Y-88272729D01*
X140435000Y-88092089D01*
X140435000Y-87907911D01*
X140399068Y-87727271D01*
X140328586Y-87557111D01*
X140226262Y-87403972D01*
X140096028Y-87273738D01*
X139942889Y-87171414D01*
X139772729Y-87100932D01*
X139761424Y-87098683D01*
X139913475Y-86946632D01*
X140030000Y-86772240D01*
X140146525Y-86946632D01*
X140353368Y-87153475D01*
X140596589Y-87315990D01*
X140866842Y-87427932D01*
X141153740Y-87485000D01*
X141446260Y-87485000D01*
X141733158Y-87427932D01*
X142003411Y-87315990D01*
X142246632Y-87153475D01*
X142453475Y-86946632D01*
X142570000Y-86772240D01*
X142686525Y-86946632D01*
X142821985Y-87082092D01*
X142727271Y-87100932D01*
X142557111Y-87171414D01*
X142403972Y-87273738D01*
X142273738Y-87403972D01*
X142171414Y-87557111D01*
X142100932Y-87727271D01*
X142065000Y-87907911D01*
X142065000Y-88092089D01*
X142100932Y-88272729D01*
X142171414Y-88442889D01*
X142273738Y-88596028D01*
X142403972Y-88726262D01*
X142557111Y-88828586D01*
X142727271Y-88899068D01*
X142907911Y-88935000D01*
X143092089Y-88935000D01*
X143272729Y-88899068D01*
X143442889Y-88828586D01*
X143500000Y-88790426D01*
X143557111Y-88828586D01*
X143727271Y-88899068D01*
X143907911Y-88935000D01*
X144092089Y-88935000D01*
X144272729Y-88899068D01*
X144442889Y-88828586D01*
X144596028Y-88726262D01*
X144726262Y-88596028D01*
X144828586Y-88442889D01*
X144899068Y-88272729D01*
X144935000Y-88092089D01*
X144935000Y-87907911D01*
X144899068Y-87727271D01*
X144828586Y-87557111D01*
X144726262Y-87403972D01*
X144600281Y-87277991D01*
X144786632Y-87153475D01*
X144993475Y-86946632D01*
X145110000Y-86772240D01*
X145226525Y-86946632D01*
X145433368Y-87153475D01*
X145676589Y-87315990D01*
X145946842Y-87427932D01*
X146233740Y-87485000D01*
X146526260Y-87485000D01*
X146813158Y-87427932D01*
X147083411Y-87315990D01*
X147326632Y-87153475D01*
X147533475Y-86946632D01*
X147650000Y-86772240D01*
X147766525Y-86946632D01*
X147973368Y-87153475D01*
X148216589Y-87315990D01*
X148486842Y-87427932D01*
X148773740Y-87485000D01*
X149066260Y-87485000D01*
X149353158Y-87427932D01*
X149623411Y-87315990D01*
X149866632Y-87153475D01*
X150073475Y-86946632D01*
X150190000Y-86772240D01*
X150306525Y-86946632D01*
X150513368Y-87153475D01*
X150756589Y-87315990D01*
X151026842Y-87427932D01*
X151313740Y-87485000D01*
X151606260Y-87485000D01*
X151893158Y-87427932D01*
X152163411Y-87315990D01*
X152406632Y-87153475D01*
X152613475Y-86946632D01*
X152730000Y-86772240D01*
X152846525Y-86946632D01*
X153053368Y-87153475D01*
X153296589Y-87315990D01*
X153566842Y-87427932D01*
X153853740Y-87485000D01*
X154146260Y-87485000D01*
X154433158Y-87427932D01*
X154703411Y-87315990D01*
X154840001Y-87224724D01*
X154840001Y-90128797D01*
X154772729Y-90100932D01*
X154592089Y-90065000D01*
X154407911Y-90065000D01*
X154227271Y-90100932D01*
X154057111Y-90171414D01*
X153903972Y-90273738D01*
X153773738Y-90403972D01*
X153671414Y-90557111D01*
X153600932Y-90727271D01*
X153565000Y-90907911D01*
X153565000Y-91092089D01*
X153600932Y-91272729D01*
X153642465Y-91373000D01*
X150357535Y-91373000D01*
X150399068Y-91272729D01*
X150435000Y-91092089D01*
X150435000Y-90907911D01*
X150399068Y-90727271D01*
X150328586Y-90557111D01*
X150226262Y-90403972D01*
X150096028Y-90273738D01*
X149942889Y-90171414D01*
X149772729Y-90100932D01*
X149592089Y-90065000D01*
X149407911Y-90065000D01*
X149227271Y-90100932D01*
X149057111Y-90171414D01*
X148903972Y-90273738D01*
X148773738Y-90403972D01*
X148671414Y-90557111D01*
X148600932Y-90727271D01*
X148565000Y-90907911D01*
X148565000Y-91092089D01*
X148600932Y-91272729D01*
X148642465Y-91373000D01*
X145857535Y-91373000D01*
X145899068Y-91272729D01*
X145935000Y-91092089D01*
X145935000Y-90907911D01*
X145899068Y-90727271D01*
X145828586Y-90557111D01*
X145726262Y-90403972D01*
X145596028Y-90273738D01*
X145442889Y-90171414D01*
X145272729Y-90100932D01*
X145092089Y-90065000D01*
X144907911Y-90065000D01*
X144727271Y-90100932D01*
X144557111Y-90171414D01*
X144403972Y-90273738D01*
X144273738Y-90403972D01*
X144171414Y-90557111D01*
X144100932Y-90727271D01*
X144065000Y-90907911D01*
X144065000Y-91092089D01*
X144100932Y-91272729D01*
X144142465Y-91373000D01*
X133160000Y-91373000D01*
X133160000Y-88871204D01*
X133227271Y-88899068D01*
X133407911Y-88935000D01*
X133592089Y-88935000D01*
X133772729Y-88899068D01*
X133942889Y-88828586D01*
X134096028Y-88726262D01*
X134226262Y-88596028D01*
X134328586Y-88442889D01*
X134399068Y-88272729D01*
X134435000Y-88092089D01*
X134435000Y-87907911D01*
X134399068Y-87727271D01*
X134328586Y-87557111D01*
X134226262Y-87403972D01*
X134096028Y-87273738D01*
X133942889Y-87171414D01*
X133772729Y-87100932D01*
X133592089Y-87065000D01*
X133407911Y-87065000D01*
X133227271Y-87100932D01*
X133160000Y-87128796D01*
X133160000Y-86371204D01*
X133227271Y-86399068D01*
X133407911Y-86435000D01*
X133592089Y-86435000D01*
X133772729Y-86399068D01*
X133942889Y-86328586D01*
X134096028Y-86226262D01*
X134226262Y-86096028D01*
X134328586Y-85942889D01*
X134399068Y-85772729D01*
X134435000Y-85592089D01*
X134435000Y-85407911D01*
X134399068Y-85227271D01*
X134371204Y-85160000D01*
X134731928Y-85160000D01*
X134731928Y-86850000D01*
M02*
