M48
; DRILL file {KiCad (5.1.5)-3} date 27.11.2020 19:53:46
; FORMAT={-:-/ absolute / inch / decimal}
; #@! TF.CreationDate,2020-11-27T19:53:46+01:00
; #@! TF.GenerationSoftware,Kicad,Pcbnew,(5.1.5)-3
FMAT,2
INCH
T1C0.0118
T2C0.0394
%
G90
G05
T1
X5.1378Y-3.6811
X5.1378Y-3.7402
X5.1378Y-3.8189
X5.1378Y-3.8976
X5.1378Y-3.9764
X5.1378Y-4.0551
X5.1575Y-4.2028
X5.2165Y-4.0551
X5.2165Y-4.2028
X5.2559Y-3.3661
X5.2559Y-3.4646
X5.2559Y-4.1634
X5.2559Y-4.311
X5.2559Y-4.4094
X5.2559Y-4.5079
X5.2756Y-4.0551
X5.2953Y-3.7402
X5.2953Y-4.1929
X5.3051Y-4.3996
X5.315Y-4.0945
X5.3346Y-3.7402
X5.3346Y-4.2323
X5.3543Y-4.1339
X5.374Y-4.2323
X5.374Y-4.2717
X5.374Y-4.311
X5.4134Y-4.0748
X5.4331Y-3.5039
X5.4331Y-3.5433
X5.4528Y-3.4646
X5.4724Y-3.5039
X5.4921Y-3.4646
X5.5118Y-3.5039
X5.5217Y-4.5079
X5.5709Y-4.4291
X5.5906Y-4.1339
X5.5906Y-4.1831
X5.5906Y-4.2421
X5.5906Y-4.2913
X5.5906Y-4.5079
X5.6102Y-3.5039
X5.6299Y-3.4646
X5.6299Y-4.3898
X5.6299Y-4.4291
X5.6398Y-4.1339
X5.6398Y-4.1831
X5.6398Y-4.2421
X5.6398Y-4.2913
X5.6496Y-3.5039
X5.6693Y-3.4646
X5.689Y-3.5039
X5.6988Y-4.1339
X5.6988Y-4.1831
X5.6988Y-4.2421
X5.6988Y-4.2913
X5.7087Y-3.5827
X5.7087Y-3.622
X5.7087Y-3.6614
X5.7087Y-3.7008
X5.7087Y-3.7402
X5.7087Y-3.7795
X5.748Y-4.1339
X5.748Y-4.1831
X5.748Y-4.2421
X5.748Y-4.2913
X5.7874Y-3.8976
X5.8071Y-4.0059
X5.8268Y-3.5039
X5.8465Y-3.7008
X5.8465Y-3.9567
X5.8465Y-4.0059
X5.8465Y-4.1732
X5.8465Y-4.4488
X5.8661Y-3.5039
X5.8661Y-4.5079
X5.8858Y-3.5827
X5.8858Y-3.622
X5.8858Y-4.4488
X5.9252Y-4.311
X5.9252Y-4.3504
X5.9449Y-3.7992
X5.9449Y-4.0945
X5.9646Y-4.1732
X5.9646Y-4.3898
X5.9646Y-4.4291
X5.9646Y-4.5079
X6.0236Y-3.5039
X6.0433Y-3.7008
X6.063Y-3.5039
X6.0827Y-3.5827
X6.0827Y-3.622
X6.0827Y-3.7205
X6.0827Y-3.7795
X5.1181Y-4.2028
T2
X5.363Y-3.3858
X5.463Y-3.3858
X5.563Y-3.3858
X5.663Y-3.3858
X5.763Y-3.3858
X5.863Y-3.3858
X5.963Y-3.3858
X6.063Y-3.3858
X6.063Y-3.8882
X6.063Y-3.9882
X6.063Y-4.0882
X6.063Y-4.1882
X6.063Y-4.2882
X6.063Y-4.3882
X6.063Y-4.4882
T0
M30
