G04 #@! TF.GenerationSoftware,KiCad,Pcbnew,(5.1.5)-3*
G04 #@! TF.CreationDate,2020-11-27T19:53:37+01:00*
G04 #@! TF.ProjectId,nRF52832-toyboard,6e524635-3238-4333-922d-746f79626f61,rev?*
G04 #@! TF.SameCoordinates,Original*
G04 #@! TF.FileFunction,Soldermask,Top*
G04 #@! TF.FilePolarity,Negative*
%FSLAX46Y46*%
G04 Gerber Fmt 4.6, Leading zero omitted, Abs format (unit mm)*
G04 Created by KiCad (PCBNEW (5.1.5)-3) date 2020-11-27 19:53:37*
%MOMM*%
%LPD*%
G04 APERTURE LIST*
%ADD10C,0.100000*%
G04 APERTURE END LIST*
D10*
G36*
X154901000Y-114901000D02*
G01*
X153099000Y-114901000D01*
X153099000Y-113099000D01*
X154901000Y-113099000D01*
X154901000Y-114901000D01*
G37*
G36*
X139351000Y-114501000D02*
G01*
X137849000Y-114501000D01*
X137849000Y-113199000D01*
X139351000Y-113199000D01*
X139351000Y-114501000D01*
G37*
G36*
X137151000Y-114501000D02*
G01*
X135649000Y-114501000D01*
X135649000Y-113199000D01*
X137151000Y-113199000D01*
X137151000Y-114501000D01*
G37*
G36*
X140531938Y-113141716D02*
G01*
X140552557Y-113147971D01*
X140571553Y-113158124D01*
X140588208Y-113171792D01*
X140601876Y-113188447D01*
X140612029Y-113207443D01*
X140618284Y-113228062D01*
X140621000Y-113255640D01*
X140621000Y-113714360D01*
X140618284Y-113741938D01*
X140612029Y-113762557D01*
X140601876Y-113781553D01*
X140588208Y-113798208D01*
X140571553Y-113811876D01*
X140552557Y-113822029D01*
X140531938Y-113828284D01*
X140504360Y-113831000D01*
X139995640Y-113831000D01*
X139968062Y-113828284D01*
X139947443Y-113822029D01*
X139928447Y-113811876D01*
X139911792Y-113798208D01*
X139898124Y-113781553D01*
X139887971Y-113762557D01*
X139881716Y-113741938D01*
X139879000Y-113714360D01*
X139879000Y-113255640D01*
X139881716Y-113228062D01*
X139887971Y-113207443D01*
X139898124Y-113188447D01*
X139911792Y-113171792D01*
X139928447Y-113158124D01*
X139947443Y-113147971D01*
X139968062Y-113141716D01*
X139995640Y-113139000D01*
X140504360Y-113139000D01*
X140531938Y-113141716D01*
G37*
G36*
X135031938Y-113141716D02*
G01*
X135052557Y-113147971D01*
X135071553Y-113158124D01*
X135088208Y-113171792D01*
X135101876Y-113188447D01*
X135112029Y-113207443D01*
X135118284Y-113228062D01*
X135121000Y-113255640D01*
X135121000Y-113714360D01*
X135118284Y-113741938D01*
X135112029Y-113762557D01*
X135101876Y-113781553D01*
X135088208Y-113798208D01*
X135071553Y-113811876D01*
X135052557Y-113822029D01*
X135031938Y-113828284D01*
X135004360Y-113831000D01*
X134495640Y-113831000D01*
X134468062Y-113828284D01*
X134447443Y-113822029D01*
X134428447Y-113811876D01*
X134411792Y-113798208D01*
X134398124Y-113781553D01*
X134387971Y-113762557D01*
X134381716Y-113741938D01*
X134379000Y-113714360D01*
X134379000Y-113255640D01*
X134381716Y-113228062D01*
X134387971Y-113207443D01*
X134398124Y-113188447D01*
X134411792Y-113171792D01*
X134428447Y-113158124D01*
X134447443Y-113147971D01*
X134468062Y-113141716D01*
X134495640Y-113139000D01*
X135004360Y-113139000D01*
X135031938Y-113141716D01*
G37*
G36*
X145781938Y-113141716D02*
G01*
X145802557Y-113147971D01*
X145821553Y-113158124D01*
X145838208Y-113171792D01*
X145851876Y-113188447D01*
X145862029Y-113207443D01*
X145868284Y-113228062D01*
X145871000Y-113255640D01*
X145871000Y-113714360D01*
X145868284Y-113741938D01*
X145862029Y-113762557D01*
X145851876Y-113781553D01*
X145838208Y-113798208D01*
X145821553Y-113811876D01*
X145802557Y-113822029D01*
X145781938Y-113828284D01*
X145754360Y-113831000D01*
X145245640Y-113831000D01*
X145218062Y-113828284D01*
X145197443Y-113822029D01*
X145178447Y-113811876D01*
X145161792Y-113798208D01*
X145148124Y-113781553D01*
X145137971Y-113762557D01*
X145131716Y-113741938D01*
X145129000Y-113714360D01*
X145129000Y-113255640D01*
X145131716Y-113228062D01*
X145137971Y-113207443D01*
X145148124Y-113188447D01*
X145161792Y-113171792D01*
X145178447Y-113158124D01*
X145197443Y-113147971D01*
X145218062Y-113141716D01*
X145245640Y-113139000D01*
X145754360Y-113139000D01*
X145781938Y-113141716D01*
G37*
G36*
X147379591Y-112803085D02*
G01*
X147413569Y-112813393D01*
X147444890Y-112830134D01*
X147472339Y-112852661D01*
X147494866Y-112880110D01*
X147511607Y-112911431D01*
X147521915Y-112945409D01*
X147526000Y-112986890D01*
X147526000Y-113588110D01*
X147521915Y-113629591D01*
X147511607Y-113663569D01*
X147494866Y-113694890D01*
X147472339Y-113722339D01*
X147444890Y-113744866D01*
X147413569Y-113761607D01*
X147379591Y-113771915D01*
X147338110Y-113776000D01*
X146661890Y-113776000D01*
X146620409Y-113771915D01*
X146586431Y-113761607D01*
X146555110Y-113744866D01*
X146527661Y-113722339D01*
X146505134Y-113694890D01*
X146488393Y-113663569D01*
X146478085Y-113629591D01*
X146474000Y-113588110D01*
X146474000Y-112986890D01*
X146478085Y-112945409D01*
X146488393Y-112911431D01*
X146505134Y-112880110D01*
X146527661Y-112852661D01*
X146555110Y-112830134D01*
X146586431Y-112813393D01*
X146620409Y-112803085D01*
X146661890Y-112799000D01*
X147338110Y-112799000D01*
X147379591Y-112803085D01*
G37*
G36*
X144379591Y-112803085D02*
G01*
X144413569Y-112813393D01*
X144444890Y-112830134D01*
X144472339Y-112852661D01*
X144494866Y-112880110D01*
X144511607Y-112911431D01*
X144521915Y-112945409D01*
X144526000Y-112986890D01*
X144526000Y-113588110D01*
X144521915Y-113629591D01*
X144511607Y-113663569D01*
X144494866Y-113694890D01*
X144472339Y-113722339D01*
X144444890Y-113744866D01*
X144413569Y-113761607D01*
X144379591Y-113771915D01*
X144338110Y-113776000D01*
X143661890Y-113776000D01*
X143620409Y-113771915D01*
X143586431Y-113761607D01*
X143555110Y-113744866D01*
X143527661Y-113722339D01*
X143505134Y-113694890D01*
X143488393Y-113663569D01*
X143478085Y-113629591D01*
X143474000Y-113588110D01*
X143474000Y-112986890D01*
X143478085Y-112945409D01*
X143488393Y-112911431D01*
X143505134Y-112880110D01*
X143527661Y-112852661D01*
X143555110Y-112830134D01*
X143586431Y-112813393D01*
X143620409Y-112803085D01*
X143661890Y-112799000D01*
X144338110Y-112799000D01*
X144379591Y-112803085D01*
G37*
G36*
X135031938Y-112171716D02*
G01*
X135052557Y-112177971D01*
X135071553Y-112188124D01*
X135088208Y-112201792D01*
X135101876Y-112218447D01*
X135112029Y-112237443D01*
X135118284Y-112258062D01*
X135121000Y-112285640D01*
X135121000Y-112744360D01*
X135118284Y-112771938D01*
X135112029Y-112792557D01*
X135101876Y-112811553D01*
X135088208Y-112828208D01*
X135071553Y-112841876D01*
X135052557Y-112852029D01*
X135031938Y-112858284D01*
X135004360Y-112861000D01*
X134495640Y-112861000D01*
X134468062Y-112858284D01*
X134447443Y-112852029D01*
X134428447Y-112841876D01*
X134411792Y-112828208D01*
X134398124Y-112811553D01*
X134387971Y-112792557D01*
X134381716Y-112771938D01*
X134379000Y-112744360D01*
X134379000Y-112285640D01*
X134381716Y-112258062D01*
X134387971Y-112237443D01*
X134398124Y-112218447D01*
X134411792Y-112201792D01*
X134428447Y-112188124D01*
X134447443Y-112177971D01*
X134468062Y-112171716D01*
X134495640Y-112169000D01*
X135004360Y-112169000D01*
X135031938Y-112171716D01*
G37*
G36*
X145781938Y-112171716D02*
G01*
X145802557Y-112177971D01*
X145821553Y-112188124D01*
X145838208Y-112201792D01*
X145851876Y-112218447D01*
X145862029Y-112237443D01*
X145868284Y-112258062D01*
X145871000Y-112285640D01*
X145871000Y-112744360D01*
X145868284Y-112771938D01*
X145862029Y-112792557D01*
X145851876Y-112811553D01*
X145838208Y-112828208D01*
X145821553Y-112841876D01*
X145802557Y-112852029D01*
X145781938Y-112858284D01*
X145754360Y-112861000D01*
X145245640Y-112861000D01*
X145218062Y-112858284D01*
X145197443Y-112852029D01*
X145178447Y-112841876D01*
X145161792Y-112828208D01*
X145148124Y-112811553D01*
X145137971Y-112792557D01*
X145131716Y-112771938D01*
X145129000Y-112744360D01*
X145129000Y-112285640D01*
X145131716Y-112258062D01*
X145137971Y-112237443D01*
X145148124Y-112218447D01*
X145161792Y-112201792D01*
X145178447Y-112188124D01*
X145197443Y-112177971D01*
X145218062Y-112171716D01*
X145245640Y-112169000D01*
X145754360Y-112169000D01*
X145781938Y-112171716D01*
G37*
G36*
X140531938Y-112171716D02*
G01*
X140552557Y-112177971D01*
X140571553Y-112188124D01*
X140588208Y-112201792D01*
X140601876Y-112218447D01*
X140612029Y-112237443D01*
X140618284Y-112258062D01*
X140621000Y-112285640D01*
X140621000Y-112744360D01*
X140618284Y-112771938D01*
X140612029Y-112792557D01*
X140601876Y-112811553D01*
X140588208Y-112828208D01*
X140571553Y-112841876D01*
X140552557Y-112852029D01*
X140531938Y-112858284D01*
X140504360Y-112861000D01*
X139995640Y-112861000D01*
X139968062Y-112858284D01*
X139947443Y-112852029D01*
X139928447Y-112841876D01*
X139911792Y-112828208D01*
X139898124Y-112811553D01*
X139887971Y-112792557D01*
X139881716Y-112771938D01*
X139879000Y-112744360D01*
X139879000Y-112285640D01*
X139881716Y-112258062D01*
X139887971Y-112237443D01*
X139898124Y-112218447D01*
X139911792Y-112201792D01*
X139928447Y-112188124D01*
X139947443Y-112177971D01*
X139968062Y-112171716D01*
X139995640Y-112169000D01*
X140504360Y-112169000D01*
X140531938Y-112171716D01*
G37*
G36*
X137151000Y-112801000D02*
G01*
X135649000Y-112801000D01*
X135649000Y-111499000D01*
X137151000Y-111499000D01*
X137151000Y-112801000D01*
G37*
G36*
X139351000Y-112801000D02*
G01*
X137849000Y-112801000D01*
X137849000Y-111499000D01*
X139351000Y-111499000D01*
X139351000Y-112801000D01*
G37*
G36*
X149054591Y-111478085D02*
G01*
X149088569Y-111488393D01*
X149119890Y-111505134D01*
X149147339Y-111527661D01*
X149169866Y-111555110D01*
X149186607Y-111586431D01*
X149196915Y-111620409D01*
X149201000Y-111661890D01*
X149201000Y-112338110D01*
X149196915Y-112379591D01*
X149186607Y-112413569D01*
X149169866Y-112444890D01*
X149147339Y-112472339D01*
X149119890Y-112494866D01*
X149088569Y-112511607D01*
X149054591Y-112521915D01*
X149013110Y-112526000D01*
X148411890Y-112526000D01*
X148370409Y-112521915D01*
X148336431Y-112511607D01*
X148305110Y-112494866D01*
X148277661Y-112472339D01*
X148255134Y-112444890D01*
X148238393Y-112413569D01*
X148228085Y-112379591D01*
X148224000Y-112338110D01*
X148224000Y-111661890D01*
X148228085Y-111620409D01*
X148238393Y-111586431D01*
X148255134Y-111555110D01*
X148277661Y-111527661D01*
X148305110Y-111505134D01*
X148336431Y-111488393D01*
X148370409Y-111478085D01*
X148411890Y-111474000D01*
X149013110Y-111474000D01*
X149054591Y-111478085D01*
G37*
G36*
X150629591Y-111478085D02*
G01*
X150663569Y-111488393D01*
X150694890Y-111505134D01*
X150722339Y-111527661D01*
X150744866Y-111555110D01*
X150761607Y-111586431D01*
X150771915Y-111620409D01*
X150776000Y-111661890D01*
X150776000Y-112338110D01*
X150771915Y-112379591D01*
X150761607Y-112413569D01*
X150744866Y-112444890D01*
X150722339Y-112472339D01*
X150694890Y-112494866D01*
X150663569Y-112511607D01*
X150629591Y-112521915D01*
X150588110Y-112526000D01*
X149986890Y-112526000D01*
X149945409Y-112521915D01*
X149911431Y-112511607D01*
X149880110Y-112494866D01*
X149852661Y-112472339D01*
X149830134Y-112444890D01*
X149813393Y-112413569D01*
X149803085Y-112379591D01*
X149799000Y-112338110D01*
X149799000Y-111661890D01*
X149803085Y-111620409D01*
X149813393Y-111586431D01*
X149830134Y-111555110D01*
X149852661Y-111527661D01*
X149880110Y-111505134D01*
X149911431Y-111488393D01*
X149945409Y-111478085D01*
X149986890Y-111474000D01*
X150588110Y-111474000D01*
X150629591Y-111478085D01*
G37*
G36*
X154113512Y-110563927D02*
G01*
X154262812Y-110593624D01*
X154426784Y-110661544D01*
X154574354Y-110760147D01*
X154699853Y-110885646D01*
X154798456Y-111033216D01*
X154866376Y-111197188D01*
X154901000Y-111371259D01*
X154901000Y-111548741D01*
X154866376Y-111722812D01*
X154798456Y-111886784D01*
X154699853Y-112034354D01*
X154574354Y-112159853D01*
X154426784Y-112258456D01*
X154262812Y-112326376D01*
X154113512Y-112356073D01*
X154088742Y-112361000D01*
X153911258Y-112361000D01*
X153886488Y-112356073D01*
X153737188Y-112326376D01*
X153573216Y-112258456D01*
X153425646Y-112159853D01*
X153300147Y-112034354D01*
X153201544Y-111886784D01*
X153133624Y-111722812D01*
X153099000Y-111548741D01*
X153099000Y-111371259D01*
X153133624Y-111197188D01*
X153201544Y-111033216D01*
X153300147Y-110885646D01*
X153425646Y-110760147D01*
X153573216Y-110661544D01*
X153737188Y-110593624D01*
X153886488Y-110563927D01*
X153911258Y-110559000D01*
X154088742Y-110559000D01*
X154113512Y-110563927D01*
G37*
G36*
X147379591Y-111228085D02*
G01*
X147413569Y-111238393D01*
X147444890Y-111255134D01*
X147472339Y-111277661D01*
X147494866Y-111305110D01*
X147511607Y-111336431D01*
X147521915Y-111370409D01*
X147526000Y-111411890D01*
X147526000Y-112013110D01*
X147521915Y-112054591D01*
X147511607Y-112088569D01*
X147494866Y-112119890D01*
X147472339Y-112147339D01*
X147444890Y-112169866D01*
X147413569Y-112186607D01*
X147379591Y-112196915D01*
X147338110Y-112201000D01*
X146661890Y-112201000D01*
X146620409Y-112196915D01*
X146586431Y-112186607D01*
X146555110Y-112169866D01*
X146527661Y-112147339D01*
X146505134Y-112119890D01*
X146488393Y-112088569D01*
X146478085Y-112054591D01*
X146474000Y-112013110D01*
X146474000Y-111411890D01*
X146478085Y-111370409D01*
X146488393Y-111336431D01*
X146505134Y-111305110D01*
X146527661Y-111277661D01*
X146555110Y-111255134D01*
X146586431Y-111238393D01*
X146620409Y-111228085D01*
X146661890Y-111224000D01*
X147338110Y-111224000D01*
X147379591Y-111228085D01*
G37*
G36*
X144379591Y-111228085D02*
G01*
X144413569Y-111238393D01*
X144444890Y-111255134D01*
X144472339Y-111277661D01*
X144494866Y-111305110D01*
X144511607Y-111336431D01*
X144521915Y-111370409D01*
X144526000Y-111411890D01*
X144526000Y-112013110D01*
X144521915Y-112054591D01*
X144511607Y-112088569D01*
X144494866Y-112119890D01*
X144472339Y-112147339D01*
X144444890Y-112169866D01*
X144413569Y-112186607D01*
X144379591Y-112196915D01*
X144338110Y-112201000D01*
X143661890Y-112201000D01*
X143620409Y-112196915D01*
X143586431Y-112186607D01*
X143555110Y-112169866D01*
X143527661Y-112147339D01*
X143505134Y-112119890D01*
X143488393Y-112088569D01*
X143478085Y-112054591D01*
X143474000Y-112013110D01*
X143474000Y-111411890D01*
X143478085Y-111370409D01*
X143488393Y-111336431D01*
X143505134Y-111305110D01*
X143527661Y-111277661D01*
X143555110Y-111255134D01*
X143586431Y-111238393D01*
X143620409Y-111228085D01*
X143661890Y-111224000D01*
X144338110Y-111224000D01*
X144379591Y-111228085D01*
G37*
G36*
X142241938Y-111131716D02*
G01*
X142262557Y-111137971D01*
X142281553Y-111148124D01*
X142298208Y-111161792D01*
X142311876Y-111178447D01*
X142322029Y-111197443D01*
X142328284Y-111218062D01*
X142331000Y-111245640D01*
X142331000Y-111754360D01*
X142328284Y-111781938D01*
X142322029Y-111802557D01*
X142311876Y-111821553D01*
X142298208Y-111838208D01*
X142281553Y-111851876D01*
X142262557Y-111862029D01*
X142241938Y-111868284D01*
X142214360Y-111871000D01*
X141755640Y-111871000D01*
X141728062Y-111868284D01*
X141707443Y-111862029D01*
X141688447Y-111851876D01*
X141671792Y-111838208D01*
X141658124Y-111821553D01*
X141647971Y-111802557D01*
X141641716Y-111781938D01*
X141639000Y-111754360D01*
X141639000Y-111245640D01*
X141641716Y-111218062D01*
X141647971Y-111197443D01*
X141658124Y-111178447D01*
X141671792Y-111161792D01*
X141688447Y-111148124D01*
X141707443Y-111137971D01*
X141728062Y-111131716D01*
X141755640Y-111129000D01*
X142214360Y-111129000D01*
X142241938Y-111131716D01*
G37*
G36*
X141271938Y-111131716D02*
G01*
X141292557Y-111137971D01*
X141311553Y-111148124D01*
X141328208Y-111161792D01*
X141341876Y-111178447D01*
X141352029Y-111197443D01*
X141358284Y-111218062D01*
X141361000Y-111245640D01*
X141361000Y-111754360D01*
X141358284Y-111781938D01*
X141352029Y-111802557D01*
X141341876Y-111821553D01*
X141328208Y-111838208D01*
X141311553Y-111851876D01*
X141292557Y-111862029D01*
X141271938Y-111868284D01*
X141244360Y-111871000D01*
X140785640Y-111871000D01*
X140758062Y-111868284D01*
X140737443Y-111862029D01*
X140718447Y-111851876D01*
X140701792Y-111838208D01*
X140688124Y-111821553D01*
X140677971Y-111802557D01*
X140671716Y-111781938D01*
X140669000Y-111754360D01*
X140669000Y-111245640D01*
X140671716Y-111218062D01*
X140677971Y-111197443D01*
X140688124Y-111178447D01*
X140701792Y-111161792D01*
X140718447Y-111148124D01*
X140737443Y-111137971D01*
X140758062Y-111131716D01*
X140785640Y-111129000D01*
X141244360Y-111129000D01*
X141271938Y-111131716D01*
G37*
G36*
X148771938Y-110131716D02*
G01*
X148792557Y-110137971D01*
X148811553Y-110148124D01*
X148828208Y-110161792D01*
X148841876Y-110178447D01*
X148852029Y-110197443D01*
X148858284Y-110218062D01*
X148861000Y-110245640D01*
X148861000Y-110754360D01*
X148858284Y-110781938D01*
X148852029Y-110802557D01*
X148841876Y-110821553D01*
X148828208Y-110838208D01*
X148811553Y-110851876D01*
X148792557Y-110862029D01*
X148771938Y-110868284D01*
X148744360Y-110871000D01*
X148285640Y-110871000D01*
X148258062Y-110868284D01*
X148237443Y-110862029D01*
X148218447Y-110851876D01*
X148201792Y-110838208D01*
X148188124Y-110821553D01*
X148177971Y-110802557D01*
X148171716Y-110781938D01*
X148169000Y-110754360D01*
X148169000Y-110245640D01*
X148171716Y-110218062D01*
X148177971Y-110197443D01*
X148188124Y-110178447D01*
X148201792Y-110161792D01*
X148218447Y-110148124D01*
X148237443Y-110137971D01*
X148258062Y-110131716D01*
X148285640Y-110129000D01*
X148744360Y-110129000D01*
X148771938Y-110131716D01*
G37*
G36*
X149741938Y-110131716D02*
G01*
X149762557Y-110137971D01*
X149781553Y-110148124D01*
X149798208Y-110161792D01*
X149811876Y-110178447D01*
X149822029Y-110197443D01*
X149828284Y-110218062D01*
X149831000Y-110245640D01*
X149831000Y-110754360D01*
X149828284Y-110781938D01*
X149822029Y-110802557D01*
X149811876Y-110821553D01*
X149798208Y-110838208D01*
X149781553Y-110851876D01*
X149762557Y-110862029D01*
X149741938Y-110868284D01*
X149714360Y-110871000D01*
X149255640Y-110871000D01*
X149228062Y-110868284D01*
X149207443Y-110862029D01*
X149188447Y-110851876D01*
X149171792Y-110838208D01*
X149158124Y-110821553D01*
X149147971Y-110802557D01*
X149141716Y-110781938D01*
X149139000Y-110754360D01*
X149139000Y-110245640D01*
X149141716Y-110218062D01*
X149147971Y-110197443D01*
X149158124Y-110178447D01*
X149171792Y-110161792D01*
X149188447Y-110148124D01*
X149207443Y-110137971D01*
X149228062Y-110131716D01*
X149255640Y-110129000D01*
X149714360Y-110129000D01*
X149741938Y-110131716D01*
G37*
G36*
X141940416Y-103599843D02*
G01*
X141944556Y-103601099D01*
X141963716Y-103609035D01*
X141987750Y-103613815D01*
X142012254Y-103613815D01*
X142036287Y-103609034D01*
X142055445Y-103601099D01*
X142059584Y-103599843D01*
X142068143Y-103599000D01*
X142331857Y-103599000D01*
X142340416Y-103599843D01*
X142344556Y-103601099D01*
X142363716Y-103609035D01*
X142387750Y-103613815D01*
X142412254Y-103613815D01*
X142436287Y-103609034D01*
X142455445Y-103601099D01*
X142459584Y-103599843D01*
X142468143Y-103599000D01*
X142731857Y-103599000D01*
X142740416Y-103599843D01*
X142744556Y-103601099D01*
X142763716Y-103609035D01*
X142787750Y-103613815D01*
X142812254Y-103613815D01*
X142836287Y-103609034D01*
X142855445Y-103601099D01*
X142859584Y-103599843D01*
X142868143Y-103599000D01*
X143131857Y-103599000D01*
X143140416Y-103599843D01*
X143144556Y-103601099D01*
X143163716Y-103609035D01*
X143187750Y-103613815D01*
X143212254Y-103613815D01*
X143236287Y-103609034D01*
X143255445Y-103601099D01*
X143259584Y-103599843D01*
X143268143Y-103599000D01*
X143531857Y-103599000D01*
X143540416Y-103599843D01*
X143544556Y-103601099D01*
X143563716Y-103609035D01*
X143587750Y-103613815D01*
X143612254Y-103613815D01*
X143636287Y-103609034D01*
X143655445Y-103601099D01*
X143659584Y-103599843D01*
X143668143Y-103599000D01*
X143931857Y-103599000D01*
X143940416Y-103599843D01*
X143944556Y-103601099D01*
X143963716Y-103609035D01*
X143987750Y-103613815D01*
X144012254Y-103613815D01*
X144036287Y-103609034D01*
X144055445Y-103601099D01*
X144059584Y-103599843D01*
X144068143Y-103599000D01*
X144331857Y-103599000D01*
X144340416Y-103599843D01*
X144344556Y-103601099D01*
X144363716Y-103609035D01*
X144387750Y-103613815D01*
X144412254Y-103613815D01*
X144436287Y-103609034D01*
X144455445Y-103601099D01*
X144459584Y-103599843D01*
X144468143Y-103599000D01*
X144731857Y-103599000D01*
X144740416Y-103599843D01*
X144744556Y-103601099D01*
X144763716Y-103609035D01*
X144787750Y-103613815D01*
X144812254Y-103613815D01*
X144836287Y-103609034D01*
X144855445Y-103601099D01*
X144859584Y-103599843D01*
X144868143Y-103599000D01*
X145131857Y-103599000D01*
X145140416Y-103599843D01*
X145144556Y-103601099D01*
X145163716Y-103609035D01*
X145187750Y-103613815D01*
X145212254Y-103613815D01*
X145236287Y-103609034D01*
X145255445Y-103601099D01*
X145259584Y-103599843D01*
X145268143Y-103599000D01*
X145531857Y-103599000D01*
X145540416Y-103599843D01*
X145544556Y-103601099D01*
X145563716Y-103609035D01*
X145587750Y-103613815D01*
X145612254Y-103613815D01*
X145636287Y-103609034D01*
X145655445Y-103601099D01*
X145659584Y-103599843D01*
X145668143Y-103599000D01*
X145931857Y-103599000D01*
X145940416Y-103599843D01*
X145944556Y-103601099D01*
X145963716Y-103609035D01*
X145987750Y-103613815D01*
X146012254Y-103613815D01*
X146036287Y-103609034D01*
X146055445Y-103601099D01*
X146059584Y-103599843D01*
X146068143Y-103599000D01*
X146331857Y-103599000D01*
X146340416Y-103599843D01*
X146342745Y-103600550D01*
X146344887Y-103601695D01*
X146346765Y-103603235D01*
X146348305Y-103605113D01*
X146349450Y-103607255D01*
X146350157Y-103609584D01*
X146351000Y-103618143D01*
X146351000Y-104481857D01*
X146350157Y-104490416D01*
X146348622Y-104495476D01*
X146343842Y-104519509D01*
X146343842Y-104544013D01*
X146348623Y-104568047D01*
X146358000Y-104590685D01*
X146371614Y-104611060D01*
X146388941Y-104628387D01*
X146409315Y-104642000D01*
X146431954Y-104651378D01*
X146455987Y-104656158D01*
X146480491Y-104656158D01*
X146504524Y-104651378D01*
X146509584Y-104649843D01*
X146518143Y-104649000D01*
X147381857Y-104649000D01*
X147390416Y-104649843D01*
X147392745Y-104650550D01*
X147394887Y-104651695D01*
X147396765Y-104653235D01*
X147398305Y-104655113D01*
X147399450Y-104657255D01*
X147400157Y-104659584D01*
X147401000Y-104668143D01*
X147401000Y-104931857D01*
X147400157Y-104940416D01*
X147398901Y-104944556D01*
X147390965Y-104963716D01*
X147386185Y-104987750D01*
X147386185Y-105012254D01*
X147390966Y-105036287D01*
X147398901Y-105055445D01*
X147400157Y-105059584D01*
X147401000Y-105068143D01*
X147401000Y-105331857D01*
X147400157Y-105340416D01*
X147398901Y-105344556D01*
X147390965Y-105363716D01*
X147386185Y-105387750D01*
X147386185Y-105412254D01*
X147390966Y-105436287D01*
X147398901Y-105455445D01*
X147400157Y-105459584D01*
X147401000Y-105468143D01*
X147401000Y-105731857D01*
X147400157Y-105740416D01*
X147398901Y-105744556D01*
X147390965Y-105763716D01*
X147386185Y-105787750D01*
X147386185Y-105812254D01*
X147390966Y-105836287D01*
X147398901Y-105855445D01*
X147400157Y-105859584D01*
X147401000Y-105868143D01*
X147401000Y-106131857D01*
X147400157Y-106140416D01*
X147398901Y-106144556D01*
X147390965Y-106163716D01*
X147386185Y-106187750D01*
X147386185Y-106212254D01*
X147390966Y-106236287D01*
X147398901Y-106255445D01*
X147400157Y-106259584D01*
X147401000Y-106268143D01*
X147401000Y-106531857D01*
X147400157Y-106540416D01*
X147398901Y-106544556D01*
X147390965Y-106563716D01*
X147386185Y-106587750D01*
X147386185Y-106612254D01*
X147390966Y-106636287D01*
X147398901Y-106655445D01*
X147400157Y-106659584D01*
X147401000Y-106668143D01*
X147401000Y-106931857D01*
X147400157Y-106940416D01*
X147398901Y-106944556D01*
X147390965Y-106963716D01*
X147386185Y-106987750D01*
X147386185Y-107012254D01*
X147390966Y-107036287D01*
X147398901Y-107055445D01*
X147400157Y-107059584D01*
X147401000Y-107068143D01*
X147401000Y-107331857D01*
X147400157Y-107340416D01*
X147398901Y-107344556D01*
X147390965Y-107363716D01*
X147386185Y-107387750D01*
X147386185Y-107412254D01*
X147390966Y-107436287D01*
X147398901Y-107455445D01*
X147400157Y-107459584D01*
X147401000Y-107468143D01*
X147401000Y-107731857D01*
X147400157Y-107740416D01*
X147398901Y-107744556D01*
X147390965Y-107763716D01*
X147386185Y-107787750D01*
X147386185Y-107812254D01*
X147390966Y-107836287D01*
X147398901Y-107855445D01*
X147400157Y-107859584D01*
X147401000Y-107868143D01*
X147401000Y-108131857D01*
X147400157Y-108140416D01*
X147398901Y-108144556D01*
X147390965Y-108163716D01*
X147386185Y-108187750D01*
X147386185Y-108212254D01*
X147390966Y-108236287D01*
X147398901Y-108255445D01*
X147400157Y-108259584D01*
X147401000Y-108268143D01*
X147401000Y-108531857D01*
X147400157Y-108540416D01*
X147398901Y-108544556D01*
X147390965Y-108563716D01*
X147386185Y-108587750D01*
X147386185Y-108612254D01*
X147390966Y-108636287D01*
X147398901Y-108655445D01*
X147400157Y-108659584D01*
X147401000Y-108668143D01*
X147401000Y-108931857D01*
X147400157Y-108940416D01*
X147398901Y-108944556D01*
X147390965Y-108963716D01*
X147386185Y-108987750D01*
X147386185Y-109012254D01*
X147390966Y-109036287D01*
X147398901Y-109055445D01*
X147400157Y-109059584D01*
X147401000Y-109068143D01*
X147401000Y-109331857D01*
X147400157Y-109340416D01*
X147399450Y-109342745D01*
X147398305Y-109344887D01*
X147396765Y-109346765D01*
X147394887Y-109348305D01*
X147392745Y-109349450D01*
X147390416Y-109350157D01*
X147381857Y-109351000D01*
X146518143Y-109351000D01*
X146509584Y-109350157D01*
X146504524Y-109348622D01*
X146480491Y-109343842D01*
X146455987Y-109343842D01*
X146431953Y-109348623D01*
X146409315Y-109358000D01*
X146388940Y-109371614D01*
X146371613Y-109388941D01*
X146358000Y-109409315D01*
X146348622Y-109431954D01*
X146343842Y-109455987D01*
X146343842Y-109480491D01*
X146348622Y-109504524D01*
X146350157Y-109509584D01*
X146351000Y-109518143D01*
X146351000Y-110381857D01*
X146350157Y-110390416D01*
X146349450Y-110392745D01*
X146348305Y-110394887D01*
X146346765Y-110396765D01*
X146344887Y-110398305D01*
X146342745Y-110399450D01*
X146340416Y-110400157D01*
X146331857Y-110401000D01*
X146068143Y-110401000D01*
X146059584Y-110400157D01*
X146055444Y-110398901D01*
X146036284Y-110390965D01*
X146012250Y-110386185D01*
X145987746Y-110386185D01*
X145963713Y-110390966D01*
X145944555Y-110398901D01*
X145940416Y-110400157D01*
X145931857Y-110401000D01*
X145668143Y-110401000D01*
X145659584Y-110400157D01*
X145655444Y-110398901D01*
X145636284Y-110390965D01*
X145612250Y-110386185D01*
X145587746Y-110386185D01*
X145563713Y-110390966D01*
X145544555Y-110398901D01*
X145540416Y-110400157D01*
X145531857Y-110401000D01*
X145268143Y-110401000D01*
X145259584Y-110400157D01*
X145255444Y-110398901D01*
X145236284Y-110390965D01*
X145212250Y-110386185D01*
X145187746Y-110386185D01*
X145163713Y-110390966D01*
X145144555Y-110398901D01*
X145140416Y-110400157D01*
X145131857Y-110401000D01*
X144868143Y-110401000D01*
X144859584Y-110400157D01*
X144855444Y-110398901D01*
X144836284Y-110390965D01*
X144812250Y-110386185D01*
X144787746Y-110386185D01*
X144763713Y-110390966D01*
X144744555Y-110398901D01*
X144740416Y-110400157D01*
X144731857Y-110401000D01*
X144468143Y-110401000D01*
X144459584Y-110400157D01*
X144455444Y-110398901D01*
X144436284Y-110390965D01*
X144412250Y-110386185D01*
X144387746Y-110386185D01*
X144363713Y-110390966D01*
X144344555Y-110398901D01*
X144340416Y-110400157D01*
X144331857Y-110401000D01*
X144068143Y-110401000D01*
X144059584Y-110400157D01*
X144055444Y-110398901D01*
X144036284Y-110390965D01*
X144012250Y-110386185D01*
X143987746Y-110386185D01*
X143963713Y-110390966D01*
X143944555Y-110398901D01*
X143940416Y-110400157D01*
X143931857Y-110401000D01*
X143668143Y-110401000D01*
X143659584Y-110400157D01*
X143655444Y-110398901D01*
X143636284Y-110390965D01*
X143612250Y-110386185D01*
X143587746Y-110386185D01*
X143563713Y-110390966D01*
X143544555Y-110398901D01*
X143540416Y-110400157D01*
X143531857Y-110401000D01*
X143268143Y-110401000D01*
X143259584Y-110400157D01*
X143255444Y-110398901D01*
X143236284Y-110390965D01*
X143212250Y-110386185D01*
X143187746Y-110386185D01*
X143163713Y-110390966D01*
X143144555Y-110398901D01*
X143140416Y-110400157D01*
X143131857Y-110401000D01*
X142868143Y-110401000D01*
X142859584Y-110400157D01*
X142855444Y-110398901D01*
X142836284Y-110390965D01*
X142812250Y-110386185D01*
X142787746Y-110386185D01*
X142763713Y-110390966D01*
X142744555Y-110398901D01*
X142740416Y-110400157D01*
X142731857Y-110401000D01*
X142468143Y-110401000D01*
X142459584Y-110400157D01*
X142455444Y-110398901D01*
X142436284Y-110390965D01*
X142412250Y-110386185D01*
X142387746Y-110386185D01*
X142363713Y-110390966D01*
X142344555Y-110398901D01*
X142340416Y-110400157D01*
X142331857Y-110401000D01*
X142068143Y-110401000D01*
X142059584Y-110400157D01*
X142055444Y-110398901D01*
X142036284Y-110390965D01*
X142012250Y-110386185D01*
X141987746Y-110386185D01*
X141963713Y-110390966D01*
X141944555Y-110398901D01*
X141940416Y-110400157D01*
X141931857Y-110401000D01*
X141668143Y-110401000D01*
X141659584Y-110400157D01*
X141657255Y-110399450D01*
X141655113Y-110398305D01*
X141653235Y-110396765D01*
X141651695Y-110394887D01*
X141650550Y-110392745D01*
X141649843Y-110390416D01*
X141649000Y-110381857D01*
X141649000Y-109518143D01*
X141649843Y-109509584D01*
X141651378Y-109504524D01*
X141656158Y-109480491D01*
X141656158Y-109455987D01*
X141651377Y-109431953D01*
X141642000Y-109409315D01*
X141628386Y-109388940D01*
X141611059Y-109371613D01*
X141590685Y-109358000D01*
X141568046Y-109348622D01*
X141544013Y-109343842D01*
X141519509Y-109343842D01*
X141495476Y-109348622D01*
X141490416Y-109350157D01*
X141481857Y-109351000D01*
X140618143Y-109351000D01*
X140609584Y-109350157D01*
X140607255Y-109349450D01*
X140605113Y-109348305D01*
X140603235Y-109346765D01*
X140601695Y-109344887D01*
X140600550Y-109342745D01*
X140599843Y-109340416D01*
X140599000Y-109331857D01*
X140599000Y-109068143D01*
X140599843Y-109059584D01*
X140601099Y-109055444D01*
X140609035Y-109036284D01*
X140613815Y-109012250D01*
X140613815Y-108987746D01*
X140609034Y-108963713D01*
X140601099Y-108944555D01*
X140599843Y-108940416D01*
X140599000Y-108931857D01*
X140599000Y-108668143D01*
X140599843Y-108659584D01*
X140601099Y-108655444D01*
X140609035Y-108636284D01*
X140613815Y-108612250D01*
X140613815Y-108587746D01*
X140609034Y-108563713D01*
X140601099Y-108544555D01*
X140599843Y-108540416D01*
X140599000Y-108531857D01*
X140599000Y-108268143D01*
X140599843Y-108259584D01*
X140601099Y-108255444D01*
X140609035Y-108236284D01*
X140613815Y-108212250D01*
X140613815Y-108187746D01*
X140609034Y-108163713D01*
X140601099Y-108144555D01*
X140599843Y-108140416D01*
X140599000Y-108131857D01*
X140599000Y-107868143D01*
X140599843Y-107859584D01*
X140601099Y-107855444D01*
X140609035Y-107836284D01*
X140613815Y-107812250D01*
X140613815Y-107787746D01*
X140609034Y-107763713D01*
X140601099Y-107744555D01*
X140599843Y-107740416D01*
X140599000Y-107731857D01*
X140599000Y-107468143D01*
X140599843Y-107459584D01*
X140601099Y-107455444D01*
X140609035Y-107436284D01*
X140613815Y-107412250D01*
X140613815Y-107387746D01*
X140609034Y-107363713D01*
X140601099Y-107344555D01*
X140599843Y-107340416D01*
X140599000Y-107331857D01*
X140599000Y-107068143D01*
X140599843Y-107059584D01*
X140601099Y-107055444D01*
X140609035Y-107036284D01*
X140613815Y-107012250D01*
X140613815Y-106987746D01*
X140609034Y-106963713D01*
X140601099Y-106944555D01*
X140599843Y-106940416D01*
X140599000Y-106931857D01*
X140599000Y-106668143D01*
X140599843Y-106659584D01*
X140601099Y-106655444D01*
X140609035Y-106636284D01*
X140613815Y-106612250D01*
X140613815Y-106587746D01*
X140609034Y-106563713D01*
X140601099Y-106544555D01*
X140599843Y-106540416D01*
X140599000Y-106531857D01*
X140599000Y-106268143D01*
X140599843Y-106259584D01*
X140601099Y-106255444D01*
X140609035Y-106236284D01*
X140613815Y-106212250D01*
X140613815Y-106187746D01*
X140609034Y-106163713D01*
X140601099Y-106144555D01*
X140599843Y-106140416D01*
X140599000Y-106131857D01*
X140599000Y-105868143D01*
X140599843Y-105859584D01*
X140601099Y-105855444D01*
X140609035Y-105836284D01*
X140613815Y-105812250D01*
X140613815Y-105787746D01*
X140609034Y-105763713D01*
X140601099Y-105744555D01*
X140599843Y-105740416D01*
X140599000Y-105731857D01*
X140599000Y-105468143D01*
X140599843Y-105459584D01*
X140601099Y-105455444D01*
X140609035Y-105436284D01*
X140613815Y-105412250D01*
X140613815Y-105387746D01*
X140609034Y-105363713D01*
X140601099Y-105344555D01*
X140599843Y-105340416D01*
X140599000Y-105331857D01*
X140599000Y-105068143D01*
X140599843Y-105059584D01*
X140601099Y-105055444D01*
X140609035Y-105036284D01*
X140613815Y-105012250D01*
X140613815Y-104987746D01*
X140609034Y-104963713D01*
X140601099Y-104944555D01*
X140599843Y-104940416D01*
X140599000Y-104931857D01*
X140599000Y-104668143D01*
X140599843Y-104659584D01*
X140600550Y-104657255D01*
X140601695Y-104655113D01*
X140603235Y-104653235D01*
X140605113Y-104651695D01*
X140607255Y-104650550D01*
X140609584Y-104649843D01*
X140618143Y-104649000D01*
X141481857Y-104649000D01*
X141490416Y-104649843D01*
X141495476Y-104651378D01*
X141519509Y-104656158D01*
X141544013Y-104656158D01*
X141568047Y-104651377D01*
X141590685Y-104642000D01*
X141611060Y-104628386D01*
X141628387Y-104611059D01*
X141642000Y-104590685D01*
X141651378Y-104568046D01*
X141656158Y-104544013D01*
X141656158Y-104519509D01*
X141651378Y-104495476D01*
X141649843Y-104490416D01*
X141649000Y-104481857D01*
X141649000Y-103618143D01*
X141649843Y-103609584D01*
X141650550Y-103607255D01*
X141651695Y-103605113D01*
X141653235Y-103603235D01*
X141655113Y-103601695D01*
X141657255Y-103600550D01*
X141659584Y-103599843D01*
X141668143Y-103599000D01*
X141931857Y-103599000D01*
X141940416Y-103599843D01*
G37*
G36*
X148771938Y-109131716D02*
G01*
X148792557Y-109137971D01*
X148811553Y-109148124D01*
X148828208Y-109161792D01*
X148841876Y-109178447D01*
X148852029Y-109197443D01*
X148858284Y-109218062D01*
X148861000Y-109245640D01*
X148861000Y-109754360D01*
X148858284Y-109781938D01*
X148852029Y-109802557D01*
X148841876Y-109821553D01*
X148828208Y-109838208D01*
X148811553Y-109851876D01*
X148792557Y-109862029D01*
X148771938Y-109868284D01*
X148744360Y-109871000D01*
X148285640Y-109871000D01*
X148258062Y-109868284D01*
X148237443Y-109862029D01*
X148218447Y-109851876D01*
X148201792Y-109838208D01*
X148188124Y-109821553D01*
X148177971Y-109802557D01*
X148171716Y-109781938D01*
X148169000Y-109754360D01*
X148169000Y-109245640D01*
X148171716Y-109218062D01*
X148177971Y-109197443D01*
X148188124Y-109178447D01*
X148201792Y-109161792D01*
X148218447Y-109148124D01*
X148237443Y-109137971D01*
X148258062Y-109131716D01*
X148285640Y-109129000D01*
X148744360Y-109129000D01*
X148771938Y-109131716D01*
G37*
G36*
X137771938Y-109131716D02*
G01*
X137792557Y-109137971D01*
X137811553Y-109148124D01*
X137828208Y-109161792D01*
X137841876Y-109178447D01*
X137852029Y-109197443D01*
X137858284Y-109218062D01*
X137861000Y-109245640D01*
X137861000Y-109754360D01*
X137858284Y-109781938D01*
X137852029Y-109802557D01*
X137841876Y-109821553D01*
X137828208Y-109838208D01*
X137811553Y-109851876D01*
X137792557Y-109862029D01*
X137771938Y-109868284D01*
X137744360Y-109871000D01*
X137285640Y-109871000D01*
X137258062Y-109868284D01*
X137237443Y-109862029D01*
X137218447Y-109851876D01*
X137201792Y-109838208D01*
X137188124Y-109821553D01*
X137177971Y-109802557D01*
X137171716Y-109781938D01*
X137169000Y-109754360D01*
X137169000Y-109245640D01*
X137171716Y-109218062D01*
X137177971Y-109197443D01*
X137188124Y-109178447D01*
X137201792Y-109161792D01*
X137218447Y-109148124D01*
X137237443Y-109137971D01*
X137258062Y-109131716D01*
X137285640Y-109129000D01*
X137744360Y-109129000D01*
X137771938Y-109131716D01*
G37*
G36*
X138741938Y-109131716D02*
G01*
X138762557Y-109137971D01*
X138781553Y-109148124D01*
X138798208Y-109161792D01*
X138811876Y-109178447D01*
X138822029Y-109197443D01*
X138828284Y-109218062D01*
X138831000Y-109245640D01*
X138831000Y-109754360D01*
X138828284Y-109781938D01*
X138822029Y-109802557D01*
X138811876Y-109821553D01*
X138798208Y-109838208D01*
X138781553Y-109851876D01*
X138762557Y-109862029D01*
X138741938Y-109868284D01*
X138714360Y-109871000D01*
X138255640Y-109871000D01*
X138228062Y-109868284D01*
X138207443Y-109862029D01*
X138188447Y-109851876D01*
X138171792Y-109838208D01*
X138158124Y-109821553D01*
X138147971Y-109802557D01*
X138141716Y-109781938D01*
X138139000Y-109754360D01*
X138139000Y-109245640D01*
X138141716Y-109218062D01*
X138147971Y-109197443D01*
X138158124Y-109178447D01*
X138171792Y-109161792D01*
X138188447Y-109148124D01*
X138207443Y-109137971D01*
X138228062Y-109131716D01*
X138255640Y-109129000D01*
X138714360Y-109129000D01*
X138741938Y-109131716D01*
G37*
G36*
X149741938Y-109131716D02*
G01*
X149762557Y-109137971D01*
X149781553Y-109148124D01*
X149798208Y-109161792D01*
X149811876Y-109178447D01*
X149822029Y-109197443D01*
X149828284Y-109218062D01*
X149831000Y-109245640D01*
X149831000Y-109754360D01*
X149828284Y-109781938D01*
X149822029Y-109802557D01*
X149811876Y-109821553D01*
X149798208Y-109838208D01*
X149781553Y-109851876D01*
X149762557Y-109862029D01*
X149741938Y-109868284D01*
X149714360Y-109871000D01*
X149255640Y-109871000D01*
X149228062Y-109868284D01*
X149207443Y-109862029D01*
X149188447Y-109851876D01*
X149171792Y-109838208D01*
X149158124Y-109821553D01*
X149147971Y-109802557D01*
X149141716Y-109781938D01*
X149139000Y-109754360D01*
X149139000Y-109245640D01*
X149141716Y-109218062D01*
X149147971Y-109197443D01*
X149158124Y-109178447D01*
X149171792Y-109161792D01*
X149188447Y-109148124D01*
X149207443Y-109137971D01*
X149228062Y-109131716D01*
X149255640Y-109129000D01*
X149714360Y-109129000D01*
X149741938Y-109131716D01*
G37*
G36*
X154113512Y-108023927D02*
G01*
X154262812Y-108053624D01*
X154426784Y-108121544D01*
X154574354Y-108220147D01*
X154699853Y-108345646D01*
X154798456Y-108493216D01*
X154866376Y-108657188D01*
X154895291Y-108802557D01*
X154899070Y-108821553D01*
X154901000Y-108831259D01*
X154901000Y-109008741D01*
X154866376Y-109182812D01*
X154798456Y-109346784D01*
X154699853Y-109494354D01*
X154574354Y-109619853D01*
X154426784Y-109718456D01*
X154262812Y-109786376D01*
X154113512Y-109816073D01*
X154088742Y-109821000D01*
X153911258Y-109821000D01*
X153886488Y-109816073D01*
X153737188Y-109786376D01*
X153573216Y-109718456D01*
X153425646Y-109619853D01*
X153300147Y-109494354D01*
X153201544Y-109346784D01*
X153133624Y-109182812D01*
X153099000Y-109008741D01*
X153099000Y-108831259D01*
X153100931Y-108821553D01*
X153104709Y-108802557D01*
X153133624Y-108657188D01*
X153201544Y-108493216D01*
X153300147Y-108345646D01*
X153425646Y-108220147D01*
X153573216Y-108121544D01*
X153737188Y-108053624D01*
X153886488Y-108023927D01*
X153911258Y-108019000D01*
X154088742Y-108019000D01*
X154113512Y-108023927D01*
G37*
G36*
X138741938Y-108131716D02*
G01*
X138762557Y-108137971D01*
X138781553Y-108148124D01*
X138798208Y-108161792D01*
X138811876Y-108178447D01*
X138822029Y-108197443D01*
X138828284Y-108218062D01*
X138831000Y-108245640D01*
X138831000Y-108754360D01*
X138828284Y-108781938D01*
X138822029Y-108802557D01*
X138811876Y-108821553D01*
X138798208Y-108838208D01*
X138781553Y-108851876D01*
X138762557Y-108862029D01*
X138741938Y-108868284D01*
X138714360Y-108871000D01*
X138255640Y-108871000D01*
X138228062Y-108868284D01*
X138207443Y-108862029D01*
X138188447Y-108851876D01*
X138171792Y-108838208D01*
X138158124Y-108821553D01*
X138147971Y-108802557D01*
X138141716Y-108781938D01*
X138139000Y-108754360D01*
X138139000Y-108245640D01*
X138141716Y-108218062D01*
X138147971Y-108197443D01*
X138158124Y-108178447D01*
X138171792Y-108161792D01*
X138188447Y-108148124D01*
X138207443Y-108137971D01*
X138228062Y-108131716D01*
X138255640Y-108129000D01*
X138714360Y-108129000D01*
X138741938Y-108131716D01*
G37*
G36*
X137771938Y-108131716D02*
G01*
X137792557Y-108137971D01*
X137811553Y-108148124D01*
X137828208Y-108161792D01*
X137841876Y-108178447D01*
X137852029Y-108197443D01*
X137858284Y-108218062D01*
X137861000Y-108245640D01*
X137861000Y-108754360D01*
X137858284Y-108781938D01*
X137852029Y-108802557D01*
X137841876Y-108821553D01*
X137828208Y-108838208D01*
X137811553Y-108851876D01*
X137792557Y-108862029D01*
X137771938Y-108868284D01*
X137744360Y-108871000D01*
X137285640Y-108871000D01*
X137258062Y-108868284D01*
X137237443Y-108862029D01*
X137218447Y-108851876D01*
X137201792Y-108838208D01*
X137188124Y-108821553D01*
X137177971Y-108802557D01*
X137171716Y-108781938D01*
X137169000Y-108754360D01*
X137169000Y-108245640D01*
X137171716Y-108218062D01*
X137177971Y-108197443D01*
X137188124Y-108178447D01*
X137201792Y-108161792D01*
X137218447Y-108148124D01*
X137237443Y-108137971D01*
X137258062Y-108131716D01*
X137285640Y-108129000D01*
X137744360Y-108129000D01*
X137771938Y-108131716D01*
G37*
G36*
X139531938Y-106891716D02*
G01*
X139552557Y-106897971D01*
X139571553Y-106908124D01*
X139588208Y-106921792D01*
X139601876Y-106938447D01*
X139612029Y-106957443D01*
X139618284Y-106978062D01*
X139621000Y-107005640D01*
X139621000Y-107464360D01*
X139618284Y-107491938D01*
X139612029Y-107512557D01*
X139601876Y-107531553D01*
X139588208Y-107548208D01*
X139571553Y-107561876D01*
X139552557Y-107572029D01*
X139531938Y-107578284D01*
X139504360Y-107581000D01*
X138995640Y-107581000D01*
X138968062Y-107578284D01*
X138947443Y-107572029D01*
X138928447Y-107561876D01*
X138911792Y-107548208D01*
X138898124Y-107531553D01*
X138887971Y-107512557D01*
X138881716Y-107491938D01*
X138879000Y-107464360D01*
X138879000Y-107005640D01*
X138881716Y-106978062D01*
X138887971Y-106957443D01*
X138898124Y-106938447D01*
X138911792Y-106921792D01*
X138928447Y-106908124D01*
X138947443Y-106897971D01*
X138968062Y-106891716D01*
X138995640Y-106889000D01*
X139504360Y-106889000D01*
X139531938Y-106891716D01*
G37*
G36*
X149781938Y-106641716D02*
G01*
X149802557Y-106647971D01*
X149821553Y-106658124D01*
X149838208Y-106671792D01*
X149851876Y-106688447D01*
X149862029Y-106707443D01*
X149868284Y-106728062D01*
X149871000Y-106755640D01*
X149871000Y-107214360D01*
X149868284Y-107241938D01*
X149862029Y-107262557D01*
X149851876Y-107281553D01*
X149838208Y-107298208D01*
X149821553Y-107311876D01*
X149802557Y-107322029D01*
X149781938Y-107328284D01*
X149754360Y-107331000D01*
X149245640Y-107331000D01*
X149218062Y-107328284D01*
X149197443Y-107322029D01*
X149178447Y-107311876D01*
X149161792Y-107298208D01*
X149148124Y-107281553D01*
X149137971Y-107262557D01*
X149131716Y-107241938D01*
X149129000Y-107214360D01*
X149129000Y-106755640D01*
X149131716Y-106728062D01*
X149137971Y-106707443D01*
X149148124Y-106688447D01*
X149161792Y-106671792D01*
X149178447Y-106658124D01*
X149197443Y-106647971D01*
X149218062Y-106641716D01*
X149245640Y-106639000D01*
X149754360Y-106639000D01*
X149781938Y-106641716D01*
G37*
G36*
X150781938Y-106641716D02*
G01*
X150802557Y-106647971D01*
X150821553Y-106658124D01*
X150838208Y-106671792D01*
X150851876Y-106688447D01*
X150862029Y-106707443D01*
X150868284Y-106728062D01*
X150871000Y-106755640D01*
X150871000Y-107214360D01*
X150868284Y-107241938D01*
X150862029Y-107262557D01*
X150851876Y-107281553D01*
X150838208Y-107298208D01*
X150821553Y-107311876D01*
X150802557Y-107322029D01*
X150781938Y-107328284D01*
X150754360Y-107331000D01*
X150245640Y-107331000D01*
X150218062Y-107328284D01*
X150197443Y-107322029D01*
X150178447Y-107311876D01*
X150161792Y-107298208D01*
X150148124Y-107281553D01*
X150137971Y-107262557D01*
X150131716Y-107241938D01*
X150129000Y-107214360D01*
X150129000Y-106755640D01*
X150131716Y-106728062D01*
X150137971Y-106707443D01*
X150148124Y-106688447D01*
X150161792Y-106671792D01*
X150178447Y-106658124D01*
X150197443Y-106647971D01*
X150218062Y-106641716D01*
X150245640Y-106639000D01*
X150754360Y-106639000D01*
X150781938Y-106641716D01*
G37*
G36*
X154106609Y-105482554D02*
G01*
X154262812Y-105513624D01*
X154426784Y-105581544D01*
X154574354Y-105680147D01*
X154699853Y-105805646D01*
X154798456Y-105953216D01*
X154866376Y-106117188D01*
X154901000Y-106291259D01*
X154901000Y-106468741D01*
X154866376Y-106642812D01*
X154798456Y-106806784D01*
X154699853Y-106954354D01*
X154574354Y-107079853D01*
X154426784Y-107178456D01*
X154262812Y-107246376D01*
X154116392Y-107275500D01*
X154088742Y-107281000D01*
X153911258Y-107281000D01*
X153883608Y-107275500D01*
X153737188Y-107246376D01*
X153573216Y-107178456D01*
X153425646Y-107079853D01*
X153300147Y-106954354D01*
X153201544Y-106806784D01*
X153133624Y-106642812D01*
X153099000Y-106468741D01*
X153099000Y-106291259D01*
X153133624Y-106117188D01*
X153201544Y-105953216D01*
X153300147Y-105805646D01*
X153425646Y-105680147D01*
X153573216Y-105581544D01*
X153737188Y-105513624D01*
X153893391Y-105482554D01*
X153911258Y-105479000D01*
X154088742Y-105479000D01*
X154106609Y-105482554D01*
G37*
G36*
X138491938Y-105881716D02*
G01*
X138512557Y-105887971D01*
X138531553Y-105898124D01*
X138548208Y-105911792D01*
X138561876Y-105928447D01*
X138572029Y-105947443D01*
X138578284Y-105968062D01*
X138581000Y-105995640D01*
X138581000Y-106504360D01*
X138578284Y-106531938D01*
X138572029Y-106552557D01*
X138561876Y-106571553D01*
X138548208Y-106588208D01*
X138531553Y-106601876D01*
X138512557Y-106612029D01*
X138491938Y-106618284D01*
X138464360Y-106621000D01*
X138005640Y-106621000D01*
X137978062Y-106618284D01*
X137957443Y-106612029D01*
X137938447Y-106601876D01*
X137921792Y-106588208D01*
X137908124Y-106571553D01*
X137897971Y-106552557D01*
X137891716Y-106531938D01*
X137889000Y-106504360D01*
X137889000Y-105995640D01*
X137891716Y-105968062D01*
X137897971Y-105947443D01*
X137908124Y-105928447D01*
X137921792Y-105911792D01*
X137938447Y-105898124D01*
X137957443Y-105887971D01*
X137978062Y-105881716D01*
X138005640Y-105879000D01*
X138464360Y-105879000D01*
X138491938Y-105881716D01*
G37*
G36*
X137521938Y-105881716D02*
G01*
X137542557Y-105887971D01*
X137561553Y-105898124D01*
X137578208Y-105911792D01*
X137591876Y-105928447D01*
X137602029Y-105947443D01*
X137608284Y-105968062D01*
X137611000Y-105995640D01*
X137611000Y-106504360D01*
X137608284Y-106531938D01*
X137602029Y-106552557D01*
X137591876Y-106571553D01*
X137578208Y-106588208D01*
X137561553Y-106601876D01*
X137542557Y-106612029D01*
X137521938Y-106618284D01*
X137494360Y-106621000D01*
X137035640Y-106621000D01*
X137008062Y-106618284D01*
X136987443Y-106612029D01*
X136968447Y-106601876D01*
X136951792Y-106588208D01*
X136938124Y-106571553D01*
X136927971Y-106552557D01*
X136921716Y-106531938D01*
X136919000Y-106504360D01*
X136919000Y-105995640D01*
X136921716Y-105968062D01*
X136927971Y-105947443D01*
X136938124Y-105928447D01*
X136951792Y-105911792D01*
X136968447Y-105898124D01*
X136987443Y-105887971D01*
X137008062Y-105881716D01*
X137035640Y-105879000D01*
X137494360Y-105879000D01*
X137521938Y-105881716D01*
G37*
G36*
X139531938Y-105921716D02*
G01*
X139552557Y-105927971D01*
X139571553Y-105938124D01*
X139588208Y-105951792D01*
X139601876Y-105968447D01*
X139612029Y-105987443D01*
X139618284Y-106008062D01*
X139621000Y-106035640D01*
X139621000Y-106494360D01*
X139618284Y-106521938D01*
X139612029Y-106542557D01*
X139601876Y-106561553D01*
X139588208Y-106578208D01*
X139571553Y-106591876D01*
X139552557Y-106602029D01*
X139531938Y-106608284D01*
X139504360Y-106611000D01*
X138995640Y-106611000D01*
X138968062Y-106608284D01*
X138947443Y-106602029D01*
X138928447Y-106591876D01*
X138911792Y-106578208D01*
X138898124Y-106561553D01*
X138887971Y-106542557D01*
X138881716Y-106521938D01*
X138879000Y-106494360D01*
X138879000Y-106035640D01*
X138881716Y-106008062D01*
X138887971Y-105987443D01*
X138898124Y-105968447D01*
X138911792Y-105951792D01*
X138928447Y-105938124D01*
X138947443Y-105927971D01*
X138968062Y-105921716D01*
X138995640Y-105919000D01*
X139504360Y-105919000D01*
X139531938Y-105921716D01*
G37*
G36*
X150781938Y-105671716D02*
G01*
X150802557Y-105677971D01*
X150821553Y-105688124D01*
X150838208Y-105701792D01*
X150851876Y-105718447D01*
X150862029Y-105737443D01*
X150868284Y-105758062D01*
X150871000Y-105785640D01*
X150871000Y-106244360D01*
X150868284Y-106271938D01*
X150862029Y-106292557D01*
X150851876Y-106311553D01*
X150838208Y-106328208D01*
X150821553Y-106341876D01*
X150802557Y-106352029D01*
X150781938Y-106358284D01*
X150754360Y-106361000D01*
X150245640Y-106361000D01*
X150218062Y-106358284D01*
X150197443Y-106352029D01*
X150178447Y-106341876D01*
X150161792Y-106328208D01*
X150148124Y-106311553D01*
X150137971Y-106292557D01*
X150131716Y-106271938D01*
X150129000Y-106244360D01*
X150129000Y-105785640D01*
X150131716Y-105758062D01*
X150137971Y-105737443D01*
X150148124Y-105718447D01*
X150161792Y-105701792D01*
X150178447Y-105688124D01*
X150197443Y-105677971D01*
X150218062Y-105671716D01*
X150245640Y-105669000D01*
X150754360Y-105669000D01*
X150781938Y-105671716D01*
G37*
G36*
X149781938Y-105671716D02*
G01*
X149802557Y-105677971D01*
X149821553Y-105688124D01*
X149838208Y-105701792D01*
X149851876Y-105718447D01*
X149862029Y-105737443D01*
X149868284Y-105758062D01*
X149871000Y-105785640D01*
X149871000Y-106244360D01*
X149868284Y-106271938D01*
X149862029Y-106292557D01*
X149851876Y-106311553D01*
X149838208Y-106328208D01*
X149821553Y-106341876D01*
X149802557Y-106352029D01*
X149781938Y-106358284D01*
X149754360Y-106361000D01*
X149245640Y-106361000D01*
X149218062Y-106358284D01*
X149197443Y-106352029D01*
X149178447Y-106341876D01*
X149161792Y-106328208D01*
X149148124Y-106311553D01*
X149137971Y-106292557D01*
X149131716Y-106271938D01*
X149129000Y-106244360D01*
X149129000Y-105785640D01*
X149131716Y-105758062D01*
X149137971Y-105737443D01*
X149148124Y-105718447D01*
X149161792Y-105701792D01*
X149178447Y-105688124D01*
X149197443Y-105677971D01*
X149218062Y-105671716D01*
X149245640Y-105669000D01*
X149754360Y-105669000D01*
X149781938Y-105671716D01*
G37*
G36*
X131281938Y-105141716D02*
G01*
X131302557Y-105147971D01*
X131321553Y-105158124D01*
X131338208Y-105171792D01*
X131351876Y-105188447D01*
X131362029Y-105207443D01*
X131368284Y-105228062D01*
X131371000Y-105255640D01*
X131371000Y-105714360D01*
X131368284Y-105741938D01*
X131362029Y-105762557D01*
X131351876Y-105781553D01*
X131338208Y-105798208D01*
X131321553Y-105811876D01*
X131302557Y-105822029D01*
X131281938Y-105828284D01*
X131254360Y-105831000D01*
X130745640Y-105831000D01*
X130718062Y-105828284D01*
X130697443Y-105822029D01*
X130678447Y-105811876D01*
X130661792Y-105798208D01*
X130648124Y-105781553D01*
X130637971Y-105762557D01*
X130631716Y-105741938D01*
X130629000Y-105714360D01*
X130629000Y-105255640D01*
X130631716Y-105228062D01*
X130637971Y-105207443D01*
X130648124Y-105188447D01*
X130661792Y-105171792D01*
X130678447Y-105158124D01*
X130697443Y-105147971D01*
X130718062Y-105141716D01*
X130745640Y-105139000D01*
X131254360Y-105139000D01*
X131281938Y-105141716D01*
G37*
G36*
X132271938Y-104131716D02*
G01*
X132292557Y-104137971D01*
X132311553Y-104148124D01*
X132328208Y-104161792D01*
X132341876Y-104178447D01*
X132352029Y-104197443D01*
X132358284Y-104218062D01*
X132361000Y-104245640D01*
X132361000Y-104754360D01*
X132358284Y-104781938D01*
X132352029Y-104802557D01*
X132341876Y-104821553D01*
X132328208Y-104838208D01*
X132311553Y-104851876D01*
X132292557Y-104862029D01*
X132271938Y-104868284D01*
X132244360Y-104871000D01*
X131785640Y-104871000D01*
X131758062Y-104868284D01*
X131737443Y-104862029D01*
X131718447Y-104851876D01*
X131701792Y-104838208D01*
X131688124Y-104821553D01*
X131677971Y-104802557D01*
X131671716Y-104781938D01*
X131669000Y-104754360D01*
X131669000Y-104245640D01*
X131671716Y-104218062D01*
X131677971Y-104197443D01*
X131688124Y-104178447D01*
X131701792Y-104161792D01*
X131718447Y-104148124D01*
X131737443Y-104137971D01*
X131758062Y-104131716D01*
X131785640Y-104129000D01*
X132244360Y-104129000D01*
X132271938Y-104131716D01*
G37*
G36*
X133241938Y-104131716D02*
G01*
X133262557Y-104137971D01*
X133281553Y-104148124D01*
X133298208Y-104161792D01*
X133311876Y-104178447D01*
X133322029Y-104197443D01*
X133328284Y-104218062D01*
X133331000Y-104245640D01*
X133331000Y-104754360D01*
X133328284Y-104781938D01*
X133322029Y-104802557D01*
X133311876Y-104821553D01*
X133298208Y-104838208D01*
X133281553Y-104851876D01*
X133262557Y-104862029D01*
X133241938Y-104868284D01*
X133214360Y-104871000D01*
X132755640Y-104871000D01*
X132728062Y-104868284D01*
X132707443Y-104862029D01*
X132688447Y-104851876D01*
X132671792Y-104838208D01*
X132658124Y-104821553D01*
X132647971Y-104802557D01*
X132641716Y-104781938D01*
X132639000Y-104754360D01*
X132639000Y-104245640D01*
X132641716Y-104218062D01*
X132647971Y-104197443D01*
X132658124Y-104178447D01*
X132671792Y-104161792D01*
X132688447Y-104148124D01*
X132707443Y-104137971D01*
X132728062Y-104131716D01*
X132755640Y-104129000D01*
X133214360Y-104129000D01*
X133241938Y-104131716D01*
G37*
G36*
X131281938Y-104171716D02*
G01*
X131302557Y-104177971D01*
X131321553Y-104188124D01*
X131338208Y-104201792D01*
X131351876Y-104218447D01*
X131362029Y-104237443D01*
X131368284Y-104258062D01*
X131371000Y-104285640D01*
X131371000Y-104744360D01*
X131368284Y-104771938D01*
X131362029Y-104792557D01*
X131351876Y-104811553D01*
X131338208Y-104828208D01*
X131321553Y-104841876D01*
X131302557Y-104852029D01*
X131281938Y-104858284D01*
X131254360Y-104861000D01*
X130745640Y-104861000D01*
X130718062Y-104858284D01*
X130697443Y-104852029D01*
X130678447Y-104841876D01*
X130661792Y-104828208D01*
X130648124Y-104811553D01*
X130637971Y-104792557D01*
X130631716Y-104771938D01*
X130629000Y-104744360D01*
X130629000Y-104285640D01*
X130631716Y-104258062D01*
X130637971Y-104237443D01*
X130648124Y-104218447D01*
X130661792Y-104201792D01*
X130678447Y-104188124D01*
X130697443Y-104177971D01*
X130718062Y-104171716D01*
X130745640Y-104169000D01*
X131254360Y-104169000D01*
X131281938Y-104171716D01*
G37*
G36*
X154113512Y-102943927D02*
G01*
X154262812Y-102973624D01*
X154426784Y-103041544D01*
X154574354Y-103140147D01*
X154699853Y-103265646D01*
X154798456Y-103413216D01*
X154866376Y-103577188D01*
X154901000Y-103751259D01*
X154901000Y-103928741D01*
X154866376Y-104102812D01*
X154798456Y-104266784D01*
X154699853Y-104414354D01*
X154574354Y-104539853D01*
X154426784Y-104638456D01*
X154262812Y-104706376D01*
X154113512Y-104736073D01*
X154088742Y-104741000D01*
X153911258Y-104741000D01*
X153886488Y-104736073D01*
X153737188Y-104706376D01*
X153573216Y-104638456D01*
X153425646Y-104539853D01*
X153300147Y-104414354D01*
X153201544Y-104266784D01*
X153133624Y-104102812D01*
X153099000Y-103928741D01*
X153099000Y-103751259D01*
X153133624Y-103577188D01*
X153201544Y-103413216D01*
X153300147Y-103265646D01*
X153425646Y-103140147D01*
X153573216Y-103041544D01*
X153737188Y-102973624D01*
X153886488Y-102943927D01*
X153911258Y-102939000D01*
X154088742Y-102939000D01*
X154113512Y-102943927D01*
G37*
G36*
X138771938Y-103131716D02*
G01*
X138792557Y-103137971D01*
X138811553Y-103148124D01*
X138828208Y-103161792D01*
X138841876Y-103178447D01*
X138852029Y-103197443D01*
X138858284Y-103218062D01*
X138861000Y-103245640D01*
X138861000Y-103754360D01*
X138858284Y-103781938D01*
X138852029Y-103802557D01*
X138841876Y-103821553D01*
X138828208Y-103838208D01*
X138811553Y-103851876D01*
X138792557Y-103862029D01*
X138771938Y-103868284D01*
X138744360Y-103871000D01*
X138285640Y-103871000D01*
X138258062Y-103868284D01*
X138237443Y-103862029D01*
X138218447Y-103851876D01*
X138201792Y-103838208D01*
X138188124Y-103821553D01*
X138177971Y-103802557D01*
X138171716Y-103781938D01*
X138169000Y-103754360D01*
X138169000Y-103245640D01*
X138171716Y-103218062D01*
X138177971Y-103197443D01*
X138188124Y-103178447D01*
X138201792Y-103161792D01*
X138218447Y-103148124D01*
X138237443Y-103137971D01*
X138258062Y-103131716D01*
X138285640Y-103129000D01*
X138744360Y-103129000D01*
X138771938Y-103131716D01*
G37*
G36*
X139741938Y-103131716D02*
G01*
X139762557Y-103137971D01*
X139781553Y-103148124D01*
X139798208Y-103161792D01*
X139811876Y-103178447D01*
X139822029Y-103197443D01*
X139828284Y-103218062D01*
X139831000Y-103245640D01*
X139831000Y-103754360D01*
X139828284Y-103781938D01*
X139822029Y-103802557D01*
X139811876Y-103821553D01*
X139798208Y-103838208D01*
X139781553Y-103851876D01*
X139762557Y-103862029D01*
X139741938Y-103868284D01*
X139714360Y-103871000D01*
X139255640Y-103871000D01*
X139228062Y-103868284D01*
X139207443Y-103862029D01*
X139188447Y-103851876D01*
X139171792Y-103838208D01*
X139158124Y-103821553D01*
X139147971Y-103802557D01*
X139141716Y-103781938D01*
X139139000Y-103754360D01*
X139139000Y-103245640D01*
X139141716Y-103218062D01*
X139147971Y-103197443D01*
X139158124Y-103178447D01*
X139171792Y-103161792D01*
X139188447Y-103148124D01*
X139207443Y-103137971D01*
X139228062Y-103131716D01*
X139255640Y-103129000D01*
X139714360Y-103129000D01*
X139741938Y-103131716D01*
G37*
G36*
X151379591Y-102303085D02*
G01*
X151413569Y-102313393D01*
X151444890Y-102330134D01*
X151472339Y-102352661D01*
X151494866Y-102380110D01*
X151511607Y-102411431D01*
X151521915Y-102445409D01*
X151526000Y-102486890D01*
X151526000Y-103088110D01*
X151521915Y-103129591D01*
X151511607Y-103163569D01*
X151494866Y-103194890D01*
X151472339Y-103222339D01*
X151444890Y-103244866D01*
X151413569Y-103261607D01*
X151379591Y-103271915D01*
X151338110Y-103276000D01*
X150661890Y-103276000D01*
X150620409Y-103271915D01*
X150586431Y-103261607D01*
X150555110Y-103244866D01*
X150527661Y-103222339D01*
X150505134Y-103194890D01*
X150488393Y-103163569D01*
X150478085Y-103129591D01*
X150474000Y-103088110D01*
X150474000Y-102486890D01*
X150478085Y-102445409D01*
X150488393Y-102411431D01*
X150505134Y-102380110D01*
X150527661Y-102352661D01*
X150555110Y-102330134D01*
X150586431Y-102313393D01*
X150620409Y-102303085D01*
X150661890Y-102299000D01*
X151338110Y-102299000D01*
X151379591Y-102303085D01*
G37*
G36*
X147771938Y-102131716D02*
G01*
X147792557Y-102137971D01*
X147811553Y-102148124D01*
X147828208Y-102161792D01*
X147841876Y-102178447D01*
X147852029Y-102197443D01*
X147858284Y-102218062D01*
X147861000Y-102245640D01*
X147861000Y-102754360D01*
X147858284Y-102781938D01*
X147852029Y-102802557D01*
X147841876Y-102821553D01*
X147828208Y-102838208D01*
X147811553Y-102851876D01*
X147792557Y-102862029D01*
X147771938Y-102868284D01*
X147744360Y-102871000D01*
X147285640Y-102871000D01*
X147258062Y-102868284D01*
X147237443Y-102862029D01*
X147218447Y-102851876D01*
X147201792Y-102838208D01*
X147188124Y-102821553D01*
X147177971Y-102802557D01*
X147171716Y-102781938D01*
X147169000Y-102754360D01*
X147169000Y-102245640D01*
X147171716Y-102218062D01*
X147177971Y-102197443D01*
X147188124Y-102178447D01*
X147201792Y-102161792D01*
X147218447Y-102148124D01*
X147237443Y-102137971D01*
X147258062Y-102131716D01*
X147285640Y-102129000D01*
X147744360Y-102129000D01*
X147771938Y-102131716D01*
G37*
G36*
X148741938Y-102131716D02*
G01*
X148762557Y-102137971D01*
X148781553Y-102148124D01*
X148798208Y-102161792D01*
X148811876Y-102178447D01*
X148822029Y-102197443D01*
X148828284Y-102218062D01*
X148831000Y-102245640D01*
X148831000Y-102754360D01*
X148828284Y-102781938D01*
X148822029Y-102802557D01*
X148811876Y-102821553D01*
X148798208Y-102838208D01*
X148781553Y-102851876D01*
X148762557Y-102862029D01*
X148741938Y-102868284D01*
X148714360Y-102871000D01*
X148255640Y-102871000D01*
X148228062Y-102868284D01*
X148207443Y-102862029D01*
X148188447Y-102851876D01*
X148171792Y-102838208D01*
X148158124Y-102821553D01*
X148147971Y-102802557D01*
X148141716Y-102781938D01*
X148139000Y-102754360D01*
X148139000Y-102245640D01*
X148141716Y-102218062D01*
X148147971Y-102197443D01*
X148158124Y-102178447D01*
X148171792Y-102161792D01*
X148188447Y-102148124D01*
X148207443Y-102137971D01*
X148228062Y-102131716D01*
X148255640Y-102129000D01*
X148714360Y-102129000D01*
X148741938Y-102131716D01*
G37*
G36*
X154113512Y-100403927D02*
G01*
X154262812Y-100433624D01*
X154426784Y-100501544D01*
X154574354Y-100600147D01*
X154699853Y-100725646D01*
X154798456Y-100873216D01*
X154866376Y-101037188D01*
X154901000Y-101211259D01*
X154901000Y-101388741D01*
X154866376Y-101562812D01*
X154798456Y-101726784D01*
X154699853Y-101874354D01*
X154574354Y-101999853D01*
X154426784Y-102098456D01*
X154262812Y-102166376D01*
X154113512Y-102196073D01*
X154088742Y-102201000D01*
X153911258Y-102201000D01*
X153886488Y-102196073D01*
X153737188Y-102166376D01*
X153573216Y-102098456D01*
X153425646Y-101999853D01*
X153300147Y-101874354D01*
X153201544Y-101726784D01*
X153133624Y-101562812D01*
X153099000Y-101388741D01*
X153099000Y-101211259D01*
X153133624Y-101037188D01*
X153201544Y-100873216D01*
X153300147Y-100725646D01*
X153425646Y-100600147D01*
X153573216Y-100501544D01*
X153737188Y-100433624D01*
X153886488Y-100403927D01*
X153911258Y-100399000D01*
X154088742Y-100399000D01*
X154113512Y-100403927D01*
G37*
G36*
X139201000Y-101961000D02*
G01*
X136699000Y-101961000D01*
X136699000Y-101119000D01*
X139201000Y-101119000D01*
X139201000Y-101961000D01*
G37*
G36*
X135301000Y-101961000D02*
G01*
X132799000Y-101961000D01*
X132799000Y-101119000D01*
X135301000Y-101119000D01*
X135301000Y-101961000D01*
G37*
G36*
X142379591Y-100803085D02*
G01*
X142413569Y-100813393D01*
X142444890Y-100830134D01*
X142472339Y-100852661D01*
X142494866Y-100880110D01*
X142511607Y-100911431D01*
X142521915Y-100945409D01*
X142526000Y-100986890D01*
X142526000Y-101588110D01*
X142521915Y-101629591D01*
X142511607Y-101663569D01*
X142494866Y-101694890D01*
X142472339Y-101722339D01*
X142444890Y-101744866D01*
X142413569Y-101761607D01*
X142379591Y-101771915D01*
X142338110Y-101776000D01*
X141661890Y-101776000D01*
X141620409Y-101771915D01*
X141586431Y-101761607D01*
X141555110Y-101744866D01*
X141527661Y-101722339D01*
X141505134Y-101694890D01*
X141488393Y-101663569D01*
X141478085Y-101629591D01*
X141474000Y-101588110D01*
X141474000Y-100986890D01*
X141478085Y-100945409D01*
X141488393Y-100911431D01*
X141505134Y-100880110D01*
X141527661Y-100852661D01*
X141555110Y-100830134D01*
X141586431Y-100813393D01*
X141620409Y-100803085D01*
X141661890Y-100799000D01*
X142338110Y-100799000D01*
X142379591Y-100803085D01*
G37*
G36*
X143879591Y-100803085D02*
G01*
X143913569Y-100813393D01*
X143944890Y-100830134D01*
X143972339Y-100852661D01*
X143994866Y-100880110D01*
X144011607Y-100911431D01*
X144021915Y-100945409D01*
X144026000Y-100986890D01*
X144026000Y-101588110D01*
X144021915Y-101629591D01*
X144011607Y-101663569D01*
X143994866Y-101694890D01*
X143972339Y-101722339D01*
X143944890Y-101744866D01*
X143913569Y-101761607D01*
X143879591Y-101771915D01*
X143838110Y-101776000D01*
X143161890Y-101776000D01*
X143120409Y-101771915D01*
X143086431Y-101761607D01*
X143055110Y-101744866D01*
X143027661Y-101722339D01*
X143005134Y-101694890D01*
X142988393Y-101663569D01*
X142978085Y-101629591D01*
X142974000Y-101588110D01*
X142974000Y-100986890D01*
X142978085Y-100945409D01*
X142988393Y-100911431D01*
X143005134Y-100880110D01*
X143027661Y-100852661D01*
X143055110Y-100830134D01*
X143086431Y-100813393D01*
X143120409Y-100803085D01*
X143161890Y-100799000D01*
X143838110Y-100799000D01*
X143879591Y-100803085D01*
G37*
G36*
X151379591Y-100728085D02*
G01*
X151413569Y-100738393D01*
X151444890Y-100755134D01*
X151472339Y-100777661D01*
X151494866Y-100805110D01*
X151511607Y-100836431D01*
X151521915Y-100870409D01*
X151526000Y-100911890D01*
X151526000Y-101513110D01*
X151521915Y-101554591D01*
X151511607Y-101588569D01*
X151494866Y-101619890D01*
X151472339Y-101647339D01*
X151444890Y-101669866D01*
X151413569Y-101686607D01*
X151379591Y-101696915D01*
X151338110Y-101701000D01*
X150661890Y-101701000D01*
X150620409Y-101696915D01*
X150586431Y-101686607D01*
X150555110Y-101669866D01*
X150527661Y-101647339D01*
X150505134Y-101619890D01*
X150488393Y-101588569D01*
X150478085Y-101554591D01*
X150474000Y-101513110D01*
X150474000Y-100911890D01*
X150478085Y-100870409D01*
X150488393Y-100836431D01*
X150505134Y-100805110D01*
X150527661Y-100777661D01*
X150555110Y-100755134D01*
X150586431Y-100738393D01*
X150620409Y-100728085D01*
X150661890Y-100724000D01*
X151338110Y-100724000D01*
X151379591Y-100728085D01*
G37*
G36*
X135301000Y-100691000D02*
G01*
X132799000Y-100691000D01*
X132799000Y-99849000D01*
X135301000Y-99849000D01*
X135301000Y-100691000D01*
G37*
G36*
X139201000Y-100691000D02*
G01*
X136699000Y-100691000D01*
X136699000Y-99849000D01*
X139201000Y-99849000D01*
X139201000Y-100691000D01*
G37*
G36*
X143879591Y-99228085D02*
G01*
X143913569Y-99238393D01*
X143944890Y-99255134D01*
X143972339Y-99277661D01*
X143994866Y-99305110D01*
X144011607Y-99336431D01*
X144021915Y-99370409D01*
X144026000Y-99411890D01*
X144026000Y-100013110D01*
X144021915Y-100054591D01*
X144011607Y-100088569D01*
X143994866Y-100119890D01*
X143972339Y-100147339D01*
X143944890Y-100169866D01*
X143913569Y-100186607D01*
X143879591Y-100196915D01*
X143838110Y-100201000D01*
X143161890Y-100201000D01*
X143120409Y-100196915D01*
X143086431Y-100186607D01*
X143055110Y-100169866D01*
X143027661Y-100147339D01*
X143005134Y-100119890D01*
X142988393Y-100088569D01*
X142978085Y-100054591D01*
X142974000Y-100013110D01*
X142974000Y-99411890D01*
X142978085Y-99370409D01*
X142988393Y-99336431D01*
X143005134Y-99305110D01*
X143027661Y-99277661D01*
X143055110Y-99255134D01*
X143086431Y-99238393D01*
X143120409Y-99228085D01*
X143161890Y-99224000D01*
X143838110Y-99224000D01*
X143879591Y-99228085D01*
G37*
G36*
X142379591Y-99228085D02*
G01*
X142413569Y-99238393D01*
X142444890Y-99255134D01*
X142472339Y-99277661D01*
X142494866Y-99305110D01*
X142511607Y-99336431D01*
X142521915Y-99370409D01*
X142526000Y-99411890D01*
X142526000Y-100013110D01*
X142521915Y-100054591D01*
X142511607Y-100088569D01*
X142494866Y-100119890D01*
X142472339Y-100147339D01*
X142444890Y-100169866D01*
X142413569Y-100186607D01*
X142379591Y-100196915D01*
X142338110Y-100201000D01*
X141661890Y-100201000D01*
X141620409Y-100196915D01*
X141586431Y-100186607D01*
X141555110Y-100169866D01*
X141527661Y-100147339D01*
X141505134Y-100119890D01*
X141488393Y-100088569D01*
X141478085Y-100054591D01*
X141474000Y-100013110D01*
X141474000Y-99411890D01*
X141478085Y-99370409D01*
X141488393Y-99336431D01*
X141505134Y-99305110D01*
X141527661Y-99277661D01*
X141555110Y-99255134D01*
X141586431Y-99238393D01*
X141620409Y-99228085D01*
X141661890Y-99224000D01*
X142338110Y-99224000D01*
X142379591Y-99228085D01*
G37*
G36*
X151379591Y-98803085D02*
G01*
X151413569Y-98813393D01*
X151444890Y-98830134D01*
X151472339Y-98852661D01*
X151494866Y-98880110D01*
X151511607Y-98911431D01*
X151521915Y-98945409D01*
X151526000Y-98986890D01*
X151526000Y-99588110D01*
X151521915Y-99629591D01*
X151511607Y-99663569D01*
X151494866Y-99694890D01*
X151472339Y-99722339D01*
X151444890Y-99744866D01*
X151413569Y-99761607D01*
X151379591Y-99771915D01*
X151338110Y-99776000D01*
X150661890Y-99776000D01*
X150620409Y-99771915D01*
X150586431Y-99761607D01*
X150555110Y-99744866D01*
X150527661Y-99722339D01*
X150505134Y-99694890D01*
X150488393Y-99663569D01*
X150478085Y-99629591D01*
X150474000Y-99588110D01*
X150474000Y-98986890D01*
X150478085Y-98945409D01*
X150488393Y-98911431D01*
X150505134Y-98880110D01*
X150527661Y-98852661D01*
X150555110Y-98830134D01*
X150586431Y-98813393D01*
X150620409Y-98803085D01*
X150661890Y-98799000D01*
X151338110Y-98799000D01*
X151379591Y-98803085D01*
G37*
G36*
X154113512Y-97863927D02*
G01*
X154262812Y-97893624D01*
X154426784Y-97961544D01*
X154574354Y-98060147D01*
X154699853Y-98185646D01*
X154798456Y-98333216D01*
X154866376Y-98497188D01*
X154892712Y-98629591D01*
X154899471Y-98663569D01*
X154901000Y-98671259D01*
X154901000Y-98848741D01*
X154866376Y-99022812D01*
X154798456Y-99186784D01*
X154699853Y-99334354D01*
X154574354Y-99459853D01*
X154426784Y-99558456D01*
X154262812Y-99626376D01*
X154113512Y-99656073D01*
X154088742Y-99661000D01*
X153911258Y-99661000D01*
X153886488Y-99656073D01*
X153737188Y-99626376D01*
X153573216Y-99558456D01*
X153425646Y-99459853D01*
X153300147Y-99334354D01*
X153201544Y-99186784D01*
X153133624Y-99022812D01*
X153099000Y-98848741D01*
X153099000Y-98671259D01*
X153100530Y-98663569D01*
X153107288Y-98629591D01*
X153133624Y-98497188D01*
X153201544Y-98333216D01*
X153300147Y-98185646D01*
X153425646Y-98060147D01*
X153573216Y-97961544D01*
X153737188Y-97893624D01*
X153886488Y-97863927D01*
X153911258Y-97859000D01*
X154088742Y-97859000D01*
X154113512Y-97863927D01*
G37*
G36*
X135301000Y-99421000D02*
G01*
X132799000Y-99421000D01*
X132799000Y-98579000D01*
X135301000Y-98579000D01*
X135301000Y-99421000D01*
G37*
G36*
X139201000Y-99421000D02*
G01*
X136699000Y-99421000D01*
X136699000Y-98579000D01*
X139201000Y-98579000D01*
X139201000Y-99421000D01*
G37*
G36*
X143879591Y-97803085D02*
G01*
X143913569Y-97813393D01*
X143944890Y-97830134D01*
X143972339Y-97852661D01*
X143994866Y-97880110D01*
X144011607Y-97911431D01*
X144021915Y-97945409D01*
X144026000Y-97986890D01*
X144026000Y-98588110D01*
X144021915Y-98629591D01*
X144011607Y-98663569D01*
X143994866Y-98694890D01*
X143972339Y-98722339D01*
X143944890Y-98744866D01*
X143913569Y-98761607D01*
X143879591Y-98771915D01*
X143838110Y-98776000D01*
X143161890Y-98776000D01*
X143120409Y-98771915D01*
X143086431Y-98761607D01*
X143055110Y-98744866D01*
X143027661Y-98722339D01*
X143005134Y-98694890D01*
X142988393Y-98663569D01*
X142978085Y-98629591D01*
X142974000Y-98588110D01*
X142974000Y-97986890D01*
X142978085Y-97945409D01*
X142988393Y-97911431D01*
X143005134Y-97880110D01*
X143027661Y-97852661D01*
X143055110Y-97830134D01*
X143086431Y-97813393D01*
X143120409Y-97803085D01*
X143161890Y-97799000D01*
X143838110Y-97799000D01*
X143879591Y-97803085D01*
G37*
G36*
X142379591Y-97803085D02*
G01*
X142413569Y-97813393D01*
X142444890Y-97830134D01*
X142472339Y-97852661D01*
X142494866Y-97880110D01*
X142511607Y-97911431D01*
X142521915Y-97945409D01*
X142526000Y-97986890D01*
X142526000Y-98588110D01*
X142521915Y-98629591D01*
X142511607Y-98663569D01*
X142494866Y-98694890D01*
X142472339Y-98722339D01*
X142444890Y-98744866D01*
X142413569Y-98761607D01*
X142379591Y-98771915D01*
X142338110Y-98776000D01*
X141661890Y-98776000D01*
X141620409Y-98771915D01*
X141586431Y-98761607D01*
X141555110Y-98744866D01*
X141527661Y-98722339D01*
X141505134Y-98694890D01*
X141488393Y-98663569D01*
X141478085Y-98629591D01*
X141474000Y-98588110D01*
X141474000Y-97986890D01*
X141478085Y-97945409D01*
X141488393Y-97911431D01*
X141505134Y-97880110D01*
X141527661Y-97852661D01*
X141555110Y-97830134D01*
X141586431Y-97813393D01*
X141620409Y-97803085D01*
X141661890Y-97799000D01*
X142338110Y-97799000D01*
X142379591Y-97803085D01*
G37*
G36*
X151379591Y-97228085D02*
G01*
X151413569Y-97238393D01*
X151444890Y-97255134D01*
X151472339Y-97277661D01*
X151494866Y-97305110D01*
X151511607Y-97336431D01*
X151521915Y-97370409D01*
X151526000Y-97411890D01*
X151526000Y-98013110D01*
X151521915Y-98054591D01*
X151511607Y-98088569D01*
X151494866Y-98119890D01*
X151472339Y-98147339D01*
X151444890Y-98169866D01*
X151413569Y-98186607D01*
X151379591Y-98196915D01*
X151338110Y-98201000D01*
X150661890Y-98201000D01*
X150620409Y-98196915D01*
X150586431Y-98186607D01*
X150555110Y-98169866D01*
X150527661Y-98147339D01*
X150505134Y-98119890D01*
X150488393Y-98088569D01*
X150478085Y-98054591D01*
X150474000Y-98013110D01*
X150474000Y-97411890D01*
X150478085Y-97370409D01*
X150488393Y-97336431D01*
X150505134Y-97305110D01*
X150527661Y-97277661D01*
X150555110Y-97255134D01*
X150586431Y-97238393D01*
X150620409Y-97228085D01*
X150661890Y-97224000D01*
X151338110Y-97224000D01*
X151379591Y-97228085D01*
G37*
G36*
X139201000Y-98151000D02*
G01*
X136699000Y-98151000D01*
X136699000Y-97309000D01*
X139201000Y-97309000D01*
X139201000Y-98151000D01*
G37*
G36*
X135301000Y-98151000D02*
G01*
X132799000Y-98151000D01*
X132799000Y-97309000D01*
X135301000Y-97309000D01*
X135301000Y-98151000D01*
G37*
G36*
X143879591Y-96228085D02*
G01*
X143913569Y-96238393D01*
X143944890Y-96255134D01*
X143972339Y-96277661D01*
X143994866Y-96305110D01*
X144011607Y-96336431D01*
X144021915Y-96370409D01*
X144026000Y-96411890D01*
X144026000Y-97013110D01*
X144021915Y-97054591D01*
X144011607Y-97088569D01*
X143994866Y-97119890D01*
X143972339Y-97147339D01*
X143944890Y-97169866D01*
X143913569Y-97186607D01*
X143879591Y-97196915D01*
X143838110Y-97201000D01*
X143161890Y-97201000D01*
X143120409Y-97196915D01*
X143086431Y-97186607D01*
X143055110Y-97169866D01*
X143027661Y-97147339D01*
X143005134Y-97119890D01*
X142988393Y-97088569D01*
X142978085Y-97054591D01*
X142974000Y-97013110D01*
X142974000Y-96411890D01*
X142978085Y-96370409D01*
X142988393Y-96336431D01*
X143005134Y-96305110D01*
X143027661Y-96277661D01*
X143055110Y-96255134D01*
X143086431Y-96238393D01*
X143120409Y-96228085D01*
X143161890Y-96224000D01*
X143838110Y-96224000D01*
X143879591Y-96228085D01*
G37*
G36*
X142379591Y-96228085D02*
G01*
X142413569Y-96238393D01*
X142444890Y-96255134D01*
X142472339Y-96277661D01*
X142494866Y-96305110D01*
X142511607Y-96336431D01*
X142521915Y-96370409D01*
X142526000Y-96411890D01*
X142526000Y-97013110D01*
X142521915Y-97054591D01*
X142511607Y-97088569D01*
X142494866Y-97119890D01*
X142472339Y-97147339D01*
X142444890Y-97169866D01*
X142413569Y-97186607D01*
X142379591Y-97196915D01*
X142338110Y-97201000D01*
X141661890Y-97201000D01*
X141620409Y-97196915D01*
X141586431Y-97186607D01*
X141555110Y-97169866D01*
X141527661Y-97147339D01*
X141505134Y-97119890D01*
X141488393Y-97088569D01*
X141478085Y-97054591D01*
X141474000Y-97013110D01*
X141474000Y-96411890D01*
X141478085Y-96370409D01*
X141488393Y-96336431D01*
X141505134Y-96305110D01*
X141527661Y-96277661D01*
X141555110Y-96255134D01*
X141586431Y-96238393D01*
X141620409Y-96228085D01*
X141661890Y-96224000D01*
X142338110Y-96224000D01*
X142379591Y-96228085D01*
G37*
G36*
X135301000Y-96881000D02*
G01*
X132799000Y-96881000D01*
X132799000Y-96039000D01*
X135301000Y-96039000D01*
X135301000Y-96881000D01*
G37*
G36*
X139201000Y-96881000D02*
G01*
X136699000Y-96881000D01*
X136699000Y-96039000D01*
X139201000Y-96039000D01*
X139201000Y-96881000D01*
G37*
G36*
X143879591Y-94803085D02*
G01*
X143913569Y-94813393D01*
X143944890Y-94830134D01*
X143972339Y-94852661D01*
X143994866Y-94880110D01*
X144011607Y-94911431D01*
X144021915Y-94945409D01*
X144026000Y-94986890D01*
X144026000Y-95588110D01*
X144021915Y-95629591D01*
X144011607Y-95663569D01*
X143994866Y-95694890D01*
X143972339Y-95722339D01*
X143944890Y-95744866D01*
X143913569Y-95761607D01*
X143879591Y-95771915D01*
X143838110Y-95776000D01*
X143161890Y-95776000D01*
X143120409Y-95771915D01*
X143086431Y-95761607D01*
X143055110Y-95744866D01*
X143027661Y-95722339D01*
X143005134Y-95694890D01*
X142988393Y-95663569D01*
X142978085Y-95629591D01*
X142974000Y-95588110D01*
X142974000Y-94986890D01*
X142978085Y-94945409D01*
X142988393Y-94911431D01*
X143005134Y-94880110D01*
X143027661Y-94852661D01*
X143055110Y-94830134D01*
X143086431Y-94813393D01*
X143120409Y-94803085D01*
X143161890Y-94799000D01*
X143838110Y-94799000D01*
X143879591Y-94803085D01*
G37*
G36*
X140580958Y-90142586D02*
G01*
X140596983Y-90161123D01*
X140616317Y-90176178D01*
X140638216Y-90187172D01*
X140651000Y-90190695D01*
X140651000Y-90202139D01*
X140653402Y-90226525D01*
X140660515Y-90249974D01*
X140673879Y-90274224D01*
X140711450Y-90327449D01*
X140706553Y-90330066D01*
X140687611Y-90345611D01*
X140672066Y-90364553D01*
X140660515Y-90386164D01*
X140653402Y-90409613D01*
X140651000Y-90433999D01*
X140651000Y-91900201D01*
X140653402Y-91924587D01*
X140660515Y-91948036D01*
X140672066Y-91969647D01*
X140687611Y-91988589D01*
X140706553Y-92004134D01*
X140711026Y-92006525D01*
X140673596Y-92059996D01*
X140661579Y-92081351D01*
X140653959Y-92104640D01*
X140651000Y-92131678D01*
X140651000Y-92142644D01*
X140636590Y-92147015D01*
X140614979Y-92158566D01*
X140596037Y-92174111D01*
X140582022Y-92190817D01*
X140073596Y-92917140D01*
X140061579Y-92938495D01*
X140053959Y-92961784D01*
X140051000Y-92988822D01*
X140051000Y-94784500D01*
X138949000Y-94784500D01*
X138949000Y-92988822D01*
X138946598Y-92964436D01*
X138939485Y-92940987D01*
X138926404Y-92917140D01*
X138417978Y-92190817D01*
X138402026Y-92172216D01*
X138382752Y-92157085D01*
X138360896Y-92146005D01*
X138349000Y-92142676D01*
X138349000Y-92131678D01*
X138346598Y-92107292D01*
X138339485Y-92083843D01*
X138326404Y-92059996D01*
X138288974Y-92006525D01*
X138293447Y-92004134D01*
X138312389Y-91988589D01*
X138327934Y-91969647D01*
X138339485Y-91948036D01*
X138346598Y-91924587D01*
X138349000Y-91900201D01*
X138349000Y-90433999D01*
X138346598Y-90409613D01*
X138339485Y-90386164D01*
X138327934Y-90364553D01*
X138312389Y-90345611D01*
X138293447Y-90330066D01*
X138288550Y-90327449D01*
X138326121Y-90274224D01*
X138338222Y-90252916D01*
X138345933Y-90229657D01*
X138349000Y-90202139D01*
X138349000Y-90190765D01*
X138364757Y-90185985D01*
X138386368Y-90174434D01*
X138405310Y-90158889D01*
X138419042Y-90142586D01*
X138973574Y-89357000D01*
X140026426Y-89357000D01*
X140580958Y-90142586D01*
G37*
G36*
X138551000Y-94781000D02*
G01*
X137449000Y-94781000D01*
X137449000Y-93179000D01*
X138551000Y-93179000D01*
X138551000Y-94781000D01*
G37*
G36*
X141551000Y-94781000D02*
G01*
X140449000Y-94781000D01*
X140449000Y-93179000D01*
X141551000Y-93179000D01*
X141551000Y-94781000D01*
G37*
G36*
X136501000Y-94401000D02*
G01*
X135499000Y-94401000D01*
X135499000Y-93499000D01*
X136501000Y-93499000D01*
X136501000Y-94401000D01*
G37*
G36*
X143879591Y-93228085D02*
G01*
X143913569Y-93238393D01*
X143944890Y-93255134D01*
X143972339Y-93277661D01*
X143994866Y-93305110D01*
X144011607Y-93336431D01*
X144021915Y-93370409D01*
X144026000Y-93411890D01*
X144026000Y-94013110D01*
X144021915Y-94054591D01*
X144011607Y-94088569D01*
X143994866Y-94119890D01*
X143972339Y-94147339D01*
X143944890Y-94169866D01*
X143913569Y-94186607D01*
X143879591Y-94196915D01*
X143838110Y-94201000D01*
X143161890Y-94201000D01*
X143120409Y-94196915D01*
X143086431Y-94186607D01*
X143055110Y-94169866D01*
X143027661Y-94147339D01*
X143005134Y-94119890D01*
X142988393Y-94088569D01*
X142978085Y-94054591D01*
X142974000Y-94013110D01*
X142974000Y-93411890D01*
X142978085Y-93370409D01*
X142988393Y-93336431D01*
X143005134Y-93305110D01*
X143027661Y-93277661D01*
X143055110Y-93255134D01*
X143086431Y-93238393D01*
X143120409Y-93228085D01*
X143161890Y-93224000D01*
X143838110Y-93224000D01*
X143879591Y-93228085D01*
G37*
G36*
X134501000Y-93451000D02*
G01*
X133499000Y-93451000D01*
X133499000Y-92549000D01*
X134501000Y-92549000D01*
X134501000Y-93451000D01*
G37*
G36*
X148781938Y-92641716D02*
G01*
X148802557Y-92647971D01*
X148821553Y-92658124D01*
X148838208Y-92671792D01*
X148851876Y-92688447D01*
X148862029Y-92707443D01*
X148868284Y-92728062D01*
X148871000Y-92755640D01*
X148871000Y-93214360D01*
X148868284Y-93241938D01*
X148862029Y-93262557D01*
X148851876Y-93281553D01*
X148838208Y-93298208D01*
X148821553Y-93311876D01*
X148802557Y-93322029D01*
X148781938Y-93328284D01*
X148754360Y-93331000D01*
X148245640Y-93331000D01*
X148218062Y-93328284D01*
X148197443Y-93322029D01*
X148178447Y-93311876D01*
X148161792Y-93298208D01*
X148148124Y-93281553D01*
X148137971Y-93262557D01*
X148131716Y-93241938D01*
X148129000Y-93214360D01*
X148129000Y-92755640D01*
X148131716Y-92728062D01*
X148137971Y-92707443D01*
X148148124Y-92688447D01*
X148161792Y-92671792D01*
X148178447Y-92658124D01*
X148197443Y-92647971D01*
X148218062Y-92641716D01*
X148245640Y-92639000D01*
X148754360Y-92639000D01*
X148781938Y-92641716D01*
G37*
G36*
X153781938Y-92641716D02*
G01*
X153802557Y-92647971D01*
X153821553Y-92658124D01*
X153838208Y-92671792D01*
X153851876Y-92688447D01*
X153862029Y-92707443D01*
X153868284Y-92728062D01*
X153871000Y-92755640D01*
X153871000Y-93214360D01*
X153868284Y-93241938D01*
X153862029Y-93262557D01*
X153851876Y-93281553D01*
X153838208Y-93298208D01*
X153821553Y-93311876D01*
X153802557Y-93322029D01*
X153781938Y-93328284D01*
X153754360Y-93331000D01*
X153245640Y-93331000D01*
X153218062Y-93328284D01*
X153197443Y-93322029D01*
X153178447Y-93311876D01*
X153161792Y-93298208D01*
X153148124Y-93281553D01*
X153137971Y-93262557D01*
X153131716Y-93241938D01*
X153129000Y-93214360D01*
X153129000Y-92755640D01*
X153131716Y-92728062D01*
X153137971Y-92707443D01*
X153148124Y-92688447D01*
X153161792Y-92671792D01*
X153178447Y-92658124D01*
X153197443Y-92647971D01*
X153218062Y-92641716D01*
X153245640Y-92639000D01*
X153754360Y-92639000D01*
X153781938Y-92641716D01*
G37*
G36*
X152426000Y-90861672D02*
G01*
X152406553Y-90872066D01*
X152387611Y-90887611D01*
X152372066Y-90906553D01*
X152360515Y-90928164D01*
X152353402Y-90951613D01*
X152351000Y-90975999D01*
X152351000Y-92024001D01*
X152353402Y-92048387D01*
X152360515Y-92071836D01*
X152372066Y-92093447D01*
X152387611Y-92112389D01*
X152406553Y-92127934D01*
X152426000Y-92138328D01*
X152426000Y-92751000D01*
X150574000Y-92751000D01*
X150574000Y-92138328D01*
X150593447Y-92127934D01*
X150612389Y-92112389D01*
X150627934Y-92093447D01*
X150639485Y-92071836D01*
X150646598Y-92048387D01*
X150649000Y-92024001D01*
X150649000Y-90975999D01*
X150646598Y-90951613D01*
X150639485Y-90928164D01*
X150627934Y-90906553D01*
X150612389Y-90887611D01*
X150593447Y-90872066D01*
X150574000Y-90861672D01*
X150574000Y-90249000D01*
X152426000Y-90249000D01*
X152426000Y-90861672D01*
G37*
G36*
X147426000Y-90861672D02*
G01*
X147406553Y-90872066D01*
X147387611Y-90887611D01*
X147372066Y-90906553D01*
X147360515Y-90928164D01*
X147353402Y-90951613D01*
X147351000Y-90975999D01*
X147351000Y-92024001D01*
X147353402Y-92048387D01*
X147360515Y-92071836D01*
X147372066Y-92093447D01*
X147387611Y-92112389D01*
X147406553Y-92127934D01*
X147426000Y-92138328D01*
X147426000Y-92751000D01*
X145574000Y-92751000D01*
X145574000Y-92138328D01*
X145593447Y-92127934D01*
X145612389Y-92112389D01*
X145627934Y-92093447D01*
X145639485Y-92071836D01*
X145646598Y-92048387D01*
X145649000Y-92024001D01*
X145649000Y-90975999D01*
X145646598Y-90951613D01*
X145639485Y-90928164D01*
X145627934Y-90906553D01*
X145612389Y-90887611D01*
X145593447Y-90872066D01*
X145574000Y-90861672D01*
X145574000Y-90249000D01*
X147426000Y-90249000D01*
X147426000Y-90861672D01*
G37*
G36*
X136501000Y-92501000D02*
G01*
X135499000Y-92501000D01*
X135499000Y-91599000D01*
X136501000Y-91599000D01*
X136501000Y-92501000D01*
G37*
G36*
X144084468Y-91403565D02*
G01*
X144123138Y-91415296D01*
X144158777Y-91434346D01*
X144190017Y-91459983D01*
X144215654Y-91491223D01*
X144234704Y-91526862D01*
X144246435Y-91565532D01*
X144251000Y-91611888D01*
X144251000Y-92263112D01*
X144246435Y-92309468D01*
X144234704Y-92348138D01*
X144215654Y-92383777D01*
X144190017Y-92415017D01*
X144158777Y-92440654D01*
X144123138Y-92459704D01*
X144084468Y-92471435D01*
X144038112Y-92476000D01*
X142961888Y-92476000D01*
X142915532Y-92471435D01*
X142876862Y-92459704D01*
X142841223Y-92440654D01*
X142809983Y-92415017D01*
X142784346Y-92383777D01*
X142765296Y-92348138D01*
X142753565Y-92309468D01*
X142749000Y-92263112D01*
X142749000Y-91611888D01*
X142753565Y-91565532D01*
X142765296Y-91526862D01*
X142784346Y-91491223D01*
X142809983Y-91459983D01*
X142841223Y-91434346D01*
X142876862Y-91415296D01*
X142915532Y-91403565D01*
X142961888Y-91399000D01*
X144038112Y-91399000D01*
X144084468Y-91403565D01*
G37*
G36*
X148781938Y-91671716D02*
G01*
X148802557Y-91677971D01*
X148821553Y-91688124D01*
X148838208Y-91701792D01*
X148851876Y-91718447D01*
X148862029Y-91737443D01*
X148868284Y-91758062D01*
X148871000Y-91785640D01*
X148871000Y-92244360D01*
X148868284Y-92271938D01*
X148862029Y-92292557D01*
X148851876Y-92311553D01*
X148838208Y-92328208D01*
X148821553Y-92341876D01*
X148802557Y-92352029D01*
X148781938Y-92358284D01*
X148754360Y-92361000D01*
X148245640Y-92361000D01*
X148218062Y-92358284D01*
X148197443Y-92352029D01*
X148178447Y-92341876D01*
X148161792Y-92328208D01*
X148148124Y-92311553D01*
X148137971Y-92292557D01*
X148131716Y-92271938D01*
X148129000Y-92244360D01*
X148129000Y-91785640D01*
X148131716Y-91758062D01*
X148137971Y-91737443D01*
X148148124Y-91718447D01*
X148161792Y-91701792D01*
X148178447Y-91688124D01*
X148197443Y-91677971D01*
X148218062Y-91671716D01*
X148245640Y-91669000D01*
X148754360Y-91669000D01*
X148781938Y-91671716D01*
G37*
G36*
X153781938Y-91671716D02*
G01*
X153802557Y-91677971D01*
X153821553Y-91688124D01*
X153838208Y-91701792D01*
X153851876Y-91718447D01*
X153862029Y-91737443D01*
X153868284Y-91758062D01*
X153871000Y-91785640D01*
X153871000Y-92244360D01*
X153868284Y-92271938D01*
X153862029Y-92292557D01*
X153851876Y-92311553D01*
X153838208Y-92328208D01*
X153821553Y-92341876D01*
X153802557Y-92352029D01*
X153781938Y-92358284D01*
X153754360Y-92361000D01*
X153245640Y-92361000D01*
X153218062Y-92358284D01*
X153197443Y-92352029D01*
X153178447Y-92341876D01*
X153161792Y-92328208D01*
X153148124Y-92311553D01*
X153137971Y-92292557D01*
X153131716Y-92271938D01*
X153129000Y-92244360D01*
X153129000Y-91785640D01*
X153131716Y-91758062D01*
X153137971Y-91737443D01*
X153148124Y-91718447D01*
X153161792Y-91701792D01*
X153178447Y-91688124D01*
X153197443Y-91677971D01*
X153218062Y-91671716D01*
X153245640Y-91669000D01*
X153754360Y-91669000D01*
X153781938Y-91671716D01*
G37*
G36*
X153781938Y-90641716D02*
G01*
X153802557Y-90647971D01*
X153821553Y-90658124D01*
X153838208Y-90671792D01*
X153851876Y-90688447D01*
X153862029Y-90707443D01*
X153868284Y-90728062D01*
X153871000Y-90755640D01*
X153871000Y-91214360D01*
X153868284Y-91241938D01*
X153862029Y-91262557D01*
X153851876Y-91281553D01*
X153838208Y-91298208D01*
X153821553Y-91311876D01*
X153802557Y-91322029D01*
X153781938Y-91328284D01*
X153754360Y-91331000D01*
X153245640Y-91331000D01*
X153218062Y-91328284D01*
X153197443Y-91322029D01*
X153178447Y-91311876D01*
X153161792Y-91298208D01*
X153148124Y-91281553D01*
X153137971Y-91262557D01*
X153131716Y-91241938D01*
X153129000Y-91214360D01*
X153129000Y-90755640D01*
X153131716Y-90728062D01*
X153137971Y-90707443D01*
X153148124Y-90688447D01*
X153161792Y-90671792D01*
X153178447Y-90658124D01*
X153197443Y-90647971D01*
X153218062Y-90641716D01*
X153245640Y-90639000D01*
X153754360Y-90639000D01*
X153781938Y-90641716D01*
G37*
G36*
X148781938Y-90641716D02*
G01*
X148802557Y-90647971D01*
X148821553Y-90658124D01*
X148838208Y-90671792D01*
X148851876Y-90688447D01*
X148862029Y-90707443D01*
X148868284Y-90728062D01*
X148871000Y-90755640D01*
X148871000Y-91214360D01*
X148868284Y-91241938D01*
X148862029Y-91262557D01*
X148851876Y-91281553D01*
X148838208Y-91298208D01*
X148821553Y-91311876D01*
X148802557Y-91322029D01*
X148781938Y-91328284D01*
X148754360Y-91331000D01*
X148245640Y-91331000D01*
X148218062Y-91328284D01*
X148197443Y-91322029D01*
X148178447Y-91311876D01*
X148161792Y-91298208D01*
X148148124Y-91281553D01*
X148137971Y-91262557D01*
X148131716Y-91241938D01*
X148129000Y-91214360D01*
X148129000Y-90755640D01*
X148131716Y-90728062D01*
X148137971Y-90707443D01*
X148148124Y-90688447D01*
X148161792Y-90671792D01*
X148178447Y-90658124D01*
X148197443Y-90647971D01*
X148218062Y-90641716D01*
X148245640Y-90639000D01*
X148754360Y-90639000D01*
X148781938Y-90641716D01*
G37*
G36*
X144084468Y-89528565D02*
G01*
X144123138Y-89540296D01*
X144158777Y-89559346D01*
X144190017Y-89584983D01*
X144215654Y-89616223D01*
X144234704Y-89651862D01*
X144246435Y-89690532D01*
X144251000Y-89736888D01*
X144251000Y-90388112D01*
X144246435Y-90434468D01*
X144234704Y-90473138D01*
X144215654Y-90508777D01*
X144190017Y-90540017D01*
X144158777Y-90565654D01*
X144123138Y-90584704D01*
X144084468Y-90596435D01*
X144038112Y-90601000D01*
X142961888Y-90601000D01*
X142915532Y-90596435D01*
X142876862Y-90584704D01*
X142841223Y-90565654D01*
X142809983Y-90540017D01*
X142784346Y-90508777D01*
X142765296Y-90473138D01*
X142753565Y-90434468D01*
X142749000Y-90388112D01*
X142749000Y-89736888D01*
X142753565Y-89690532D01*
X142765296Y-89651862D01*
X142784346Y-89616223D01*
X142809983Y-89584983D01*
X142841223Y-89559346D01*
X142876862Y-89540296D01*
X142915532Y-89528565D01*
X142961888Y-89524000D01*
X144038112Y-89524000D01*
X144084468Y-89528565D01*
G37*
G36*
X135629591Y-89478085D02*
G01*
X135663569Y-89488393D01*
X135694890Y-89505134D01*
X135722339Y-89527661D01*
X135744866Y-89555110D01*
X135761607Y-89586431D01*
X135771915Y-89620409D01*
X135776000Y-89661890D01*
X135776000Y-90338110D01*
X135771915Y-90379591D01*
X135761607Y-90413569D01*
X135744866Y-90444890D01*
X135722339Y-90472339D01*
X135694890Y-90494866D01*
X135663569Y-90511607D01*
X135629591Y-90521915D01*
X135588110Y-90526000D01*
X134986890Y-90526000D01*
X134945409Y-90521915D01*
X134911431Y-90511607D01*
X134880110Y-90494866D01*
X134852661Y-90472339D01*
X134830134Y-90444890D01*
X134813393Y-90413569D01*
X134803085Y-90379591D01*
X134799000Y-90338110D01*
X134799000Y-89661890D01*
X134803085Y-89620409D01*
X134813393Y-89586431D01*
X134830134Y-89555110D01*
X134852661Y-89527661D01*
X134880110Y-89505134D01*
X134911431Y-89488393D01*
X134945409Y-89478085D01*
X134986890Y-89474000D01*
X135588110Y-89474000D01*
X135629591Y-89478085D01*
G37*
G36*
X134054591Y-89478085D02*
G01*
X134088569Y-89488393D01*
X134119890Y-89505134D01*
X134147339Y-89527661D01*
X134169866Y-89555110D01*
X134186607Y-89586431D01*
X134196915Y-89620409D01*
X134201000Y-89661890D01*
X134201000Y-90338110D01*
X134196915Y-90379591D01*
X134186607Y-90413569D01*
X134169866Y-90444890D01*
X134147339Y-90472339D01*
X134119890Y-90494866D01*
X134088569Y-90511607D01*
X134054591Y-90521915D01*
X134013110Y-90526000D01*
X133411890Y-90526000D01*
X133370409Y-90521915D01*
X133336431Y-90511607D01*
X133305110Y-90494866D01*
X133277661Y-90472339D01*
X133255134Y-90444890D01*
X133238393Y-90413569D01*
X133228085Y-90379591D01*
X133224000Y-90338110D01*
X133224000Y-89661890D01*
X133228085Y-89620409D01*
X133238393Y-89586431D01*
X133255134Y-89555110D01*
X133277661Y-89527661D01*
X133305110Y-89505134D01*
X133336431Y-89488393D01*
X133370409Y-89478085D01*
X133411890Y-89474000D01*
X134013110Y-89474000D01*
X134054591Y-89478085D01*
G37*
G36*
X153781938Y-89671716D02*
G01*
X153802557Y-89677971D01*
X153821553Y-89688124D01*
X153838208Y-89701792D01*
X153851876Y-89718447D01*
X153862029Y-89737443D01*
X153868284Y-89758062D01*
X153871000Y-89785640D01*
X153871000Y-90244360D01*
X153868284Y-90271938D01*
X153862029Y-90292557D01*
X153851876Y-90311553D01*
X153838208Y-90328208D01*
X153821553Y-90341876D01*
X153802557Y-90352029D01*
X153781938Y-90358284D01*
X153754360Y-90361000D01*
X153245640Y-90361000D01*
X153218062Y-90358284D01*
X153197443Y-90352029D01*
X153178447Y-90341876D01*
X153161792Y-90328208D01*
X153148124Y-90311553D01*
X153137971Y-90292557D01*
X153131716Y-90271938D01*
X153129000Y-90244360D01*
X153129000Y-89785640D01*
X153131716Y-89758062D01*
X153137971Y-89737443D01*
X153148124Y-89718447D01*
X153161792Y-89701792D01*
X153178447Y-89688124D01*
X153197443Y-89677971D01*
X153218062Y-89671716D01*
X153245640Y-89669000D01*
X153754360Y-89669000D01*
X153781938Y-89671716D01*
G37*
G36*
X148781938Y-89671716D02*
G01*
X148802557Y-89677971D01*
X148821553Y-89688124D01*
X148838208Y-89701792D01*
X148851876Y-89718447D01*
X148862029Y-89737443D01*
X148868284Y-89758062D01*
X148871000Y-89785640D01*
X148871000Y-90244360D01*
X148868284Y-90271938D01*
X148862029Y-90292557D01*
X148851876Y-90311553D01*
X148838208Y-90328208D01*
X148821553Y-90341876D01*
X148802557Y-90352029D01*
X148781938Y-90358284D01*
X148754360Y-90361000D01*
X148245640Y-90361000D01*
X148218062Y-90358284D01*
X148197443Y-90352029D01*
X148178447Y-90341876D01*
X148161792Y-90328208D01*
X148148124Y-90311553D01*
X148137971Y-90292557D01*
X148131716Y-90271938D01*
X148129000Y-90244360D01*
X148129000Y-89785640D01*
X148131716Y-89758062D01*
X148137971Y-89737443D01*
X148148124Y-89718447D01*
X148161792Y-89701792D01*
X148178447Y-89688124D01*
X148197443Y-89677971D01*
X148218062Y-89671716D01*
X148245640Y-89669000D01*
X148754360Y-89669000D01*
X148781938Y-89671716D01*
G37*
G36*
X138873512Y-85103927D02*
G01*
X139022812Y-85133624D01*
X139186784Y-85201544D01*
X139334354Y-85300147D01*
X139459853Y-85425646D01*
X139558456Y-85573216D01*
X139626376Y-85737188D01*
X139661000Y-85911259D01*
X139661000Y-86088741D01*
X139626376Y-86262812D01*
X139558456Y-86426784D01*
X139459853Y-86574354D01*
X139334354Y-86699853D01*
X139186784Y-86798456D01*
X139022812Y-86866376D01*
X138873512Y-86896073D01*
X138848742Y-86901000D01*
X138671258Y-86901000D01*
X138646488Y-86896073D01*
X138497188Y-86866376D01*
X138333216Y-86798456D01*
X138185646Y-86699853D01*
X138060147Y-86574354D01*
X137961544Y-86426784D01*
X137893624Y-86262812D01*
X137859000Y-86088741D01*
X137859000Y-85911259D01*
X137893624Y-85737188D01*
X137961544Y-85573216D01*
X138060147Y-85425646D01*
X138185646Y-85300147D01*
X138333216Y-85201544D01*
X138497188Y-85133624D01*
X138646488Y-85103927D01*
X138671258Y-85099000D01*
X138848742Y-85099000D01*
X138873512Y-85103927D01*
G37*
G36*
X146493512Y-85103927D02*
G01*
X146642812Y-85133624D01*
X146806784Y-85201544D01*
X146954354Y-85300147D01*
X147079853Y-85425646D01*
X147178456Y-85573216D01*
X147246376Y-85737188D01*
X147281000Y-85911259D01*
X147281000Y-86088741D01*
X147246376Y-86262812D01*
X147178456Y-86426784D01*
X147079853Y-86574354D01*
X146954354Y-86699853D01*
X146806784Y-86798456D01*
X146642812Y-86866376D01*
X146493512Y-86896073D01*
X146468742Y-86901000D01*
X146291258Y-86901000D01*
X146266488Y-86896073D01*
X146117188Y-86866376D01*
X145953216Y-86798456D01*
X145805646Y-86699853D01*
X145680147Y-86574354D01*
X145581544Y-86426784D01*
X145513624Y-86262812D01*
X145479000Y-86088741D01*
X145479000Y-85911259D01*
X145513624Y-85737188D01*
X145581544Y-85573216D01*
X145680147Y-85425646D01*
X145805646Y-85300147D01*
X145953216Y-85201544D01*
X146117188Y-85133624D01*
X146266488Y-85103927D01*
X146291258Y-85099000D01*
X146468742Y-85099000D01*
X146493512Y-85103927D01*
G37*
G36*
X154113512Y-85103927D02*
G01*
X154262812Y-85133624D01*
X154426784Y-85201544D01*
X154574354Y-85300147D01*
X154699853Y-85425646D01*
X154798456Y-85573216D01*
X154866376Y-85737188D01*
X154901000Y-85911259D01*
X154901000Y-86088741D01*
X154866376Y-86262812D01*
X154798456Y-86426784D01*
X154699853Y-86574354D01*
X154574354Y-86699853D01*
X154426784Y-86798456D01*
X154262812Y-86866376D01*
X154113512Y-86896073D01*
X154088742Y-86901000D01*
X153911258Y-86901000D01*
X153886488Y-86896073D01*
X153737188Y-86866376D01*
X153573216Y-86798456D01*
X153425646Y-86699853D01*
X153300147Y-86574354D01*
X153201544Y-86426784D01*
X153133624Y-86262812D01*
X153099000Y-86088741D01*
X153099000Y-85911259D01*
X153133624Y-85737188D01*
X153201544Y-85573216D01*
X153300147Y-85425646D01*
X153425646Y-85300147D01*
X153573216Y-85201544D01*
X153737188Y-85133624D01*
X153886488Y-85103927D01*
X153911258Y-85099000D01*
X154088742Y-85099000D01*
X154113512Y-85103927D01*
G37*
G36*
X141413512Y-85103927D02*
G01*
X141562812Y-85133624D01*
X141726784Y-85201544D01*
X141874354Y-85300147D01*
X141999853Y-85425646D01*
X142098456Y-85573216D01*
X142166376Y-85737188D01*
X142201000Y-85911259D01*
X142201000Y-86088741D01*
X142166376Y-86262812D01*
X142098456Y-86426784D01*
X141999853Y-86574354D01*
X141874354Y-86699853D01*
X141726784Y-86798456D01*
X141562812Y-86866376D01*
X141413512Y-86896073D01*
X141388742Y-86901000D01*
X141211258Y-86901000D01*
X141186488Y-86896073D01*
X141037188Y-86866376D01*
X140873216Y-86798456D01*
X140725646Y-86699853D01*
X140600147Y-86574354D01*
X140501544Y-86426784D01*
X140433624Y-86262812D01*
X140399000Y-86088741D01*
X140399000Y-85911259D01*
X140433624Y-85737188D01*
X140501544Y-85573216D01*
X140600147Y-85425646D01*
X140725646Y-85300147D01*
X140873216Y-85201544D01*
X141037188Y-85133624D01*
X141186488Y-85103927D01*
X141211258Y-85099000D01*
X141388742Y-85099000D01*
X141413512Y-85103927D01*
G37*
G36*
X151573512Y-85103927D02*
G01*
X151722812Y-85133624D01*
X151886784Y-85201544D01*
X152034354Y-85300147D01*
X152159853Y-85425646D01*
X152258456Y-85573216D01*
X152326376Y-85737188D01*
X152361000Y-85911259D01*
X152361000Y-86088741D01*
X152326376Y-86262812D01*
X152258456Y-86426784D01*
X152159853Y-86574354D01*
X152034354Y-86699853D01*
X151886784Y-86798456D01*
X151722812Y-86866376D01*
X151573512Y-86896073D01*
X151548742Y-86901000D01*
X151371258Y-86901000D01*
X151346488Y-86896073D01*
X151197188Y-86866376D01*
X151033216Y-86798456D01*
X150885646Y-86699853D01*
X150760147Y-86574354D01*
X150661544Y-86426784D01*
X150593624Y-86262812D01*
X150559000Y-86088741D01*
X150559000Y-85911259D01*
X150593624Y-85737188D01*
X150661544Y-85573216D01*
X150760147Y-85425646D01*
X150885646Y-85300147D01*
X151033216Y-85201544D01*
X151197188Y-85133624D01*
X151346488Y-85103927D01*
X151371258Y-85099000D01*
X151548742Y-85099000D01*
X151573512Y-85103927D01*
G37*
G36*
X149033512Y-85103927D02*
G01*
X149182812Y-85133624D01*
X149346784Y-85201544D01*
X149494354Y-85300147D01*
X149619853Y-85425646D01*
X149718456Y-85573216D01*
X149786376Y-85737188D01*
X149821000Y-85911259D01*
X149821000Y-86088741D01*
X149786376Y-86262812D01*
X149718456Y-86426784D01*
X149619853Y-86574354D01*
X149494354Y-86699853D01*
X149346784Y-86798456D01*
X149182812Y-86866376D01*
X149033512Y-86896073D01*
X149008742Y-86901000D01*
X148831258Y-86901000D01*
X148806488Y-86896073D01*
X148657188Y-86866376D01*
X148493216Y-86798456D01*
X148345646Y-86699853D01*
X148220147Y-86574354D01*
X148121544Y-86426784D01*
X148053624Y-86262812D01*
X148019000Y-86088741D01*
X148019000Y-85911259D01*
X148053624Y-85737188D01*
X148121544Y-85573216D01*
X148220147Y-85425646D01*
X148345646Y-85300147D01*
X148493216Y-85201544D01*
X148657188Y-85133624D01*
X148806488Y-85103927D01*
X148831258Y-85099000D01*
X149008742Y-85099000D01*
X149033512Y-85103927D01*
G37*
G36*
X143953512Y-85103927D02*
G01*
X144102812Y-85133624D01*
X144266784Y-85201544D01*
X144414354Y-85300147D01*
X144539853Y-85425646D01*
X144638456Y-85573216D01*
X144706376Y-85737188D01*
X144741000Y-85911259D01*
X144741000Y-86088741D01*
X144706376Y-86262812D01*
X144638456Y-86426784D01*
X144539853Y-86574354D01*
X144414354Y-86699853D01*
X144266784Y-86798456D01*
X144102812Y-86866376D01*
X143953512Y-86896073D01*
X143928742Y-86901000D01*
X143751258Y-86901000D01*
X143726488Y-86896073D01*
X143577188Y-86866376D01*
X143413216Y-86798456D01*
X143265646Y-86699853D01*
X143140147Y-86574354D01*
X143041544Y-86426784D01*
X142973624Y-86262812D01*
X142939000Y-86088741D01*
X142939000Y-85911259D01*
X142973624Y-85737188D01*
X143041544Y-85573216D01*
X143140147Y-85425646D01*
X143265646Y-85300147D01*
X143413216Y-85201544D01*
X143577188Y-85133624D01*
X143726488Y-85103927D01*
X143751258Y-85099000D01*
X143928742Y-85099000D01*
X143953512Y-85103927D01*
G37*
G36*
X137121000Y-86901000D02*
G01*
X135319000Y-86901000D01*
X135319000Y-85099000D01*
X137121000Y-85099000D01*
X137121000Y-86901000D01*
G37*
M02*
